<?xml version="1.0" standalone="no"?>
<!DOCTYPE svg PUBLIC "-//W3C//DTD SVG 1.1//EN" "http://www.w3.org/Graphics/SVG/1.1/DTD/svg11.dtd" >
<svg>
<metadata>
Created by FontForge 20090622 at Sat Sep 19 19:44:55 2020
 By deploy user
Copyright (c) 2016 by Thomas Gillett. All rights reserved. |DCNT
</metadata>
<defs>
<font id="Gordita-Medium" horiz-adv-x="680" >
  <font-face 
    font-family="Gordita Medium"
    font-weight="500"
    font-stretch="normal"
    units-per-em="1000"
    panose-1="0 0 0 0 0 0 0 0 0 0"
    ascent="754"
    descent="-246"
    x-height="534"
    cap-height="783"
    bbox="-218 -356 1265 1131"
    underline-thickness="50"
    underline-position="-50"
    unicode-range="U+0020-U+FB04"
  />
<missing-glyph horiz-adv-x="799" 
d="M750 783v-783h-660v783h660zM706 40v699h-577z" />
    <glyph glyph-name="ff" unicode="ff" horiz-adv-x="765" 
d="M708 711q-102 0 -102 -106v-71h142v-105h-142v-429h-120v429h-241v-429h-120v429h-98v105h98v75q0 99 55.5 153.5t154.5 54.5q25 0 55 -8v-102q-16 4 -43 4q-102 0 -102 -106v-71h241v75q0 99 55.5 153.5t154.5 54.5q25 0 55 -8v-102q-16 4 -43 4z" />
    <glyph glyph-name="fi" unicode="fi" horiz-adv-x="686" 
d="M245 534h361v-534h-120v429h-241v-429h-120v429h-98v105h98v75q0 99 55.5 153.5t154.5 54.5q25 0 55 -8v-102q-16 4 -43 4q-102 0 -102 -106v-71zM545 629q-32 0 -54.5 23t-22.5 55t23 55.5t54 23.5q33 0 56.5 -23.5t23.5 -55.5t-23.5 -55t-56.5 -23z" />
    <glyph glyph-name="fl" unicode="fl" horiz-adv-x="685" 
d="M486 815h119v-815h-119v429h-241v-429h-120v429h-98v105h98v75q0 99 55.5 153.5t154.5 54.5q25 0 55 -8v-102q-16 4 -43 4q-102 0 -102 -106v-71h241v281z" />
    <glyph glyph-name="ffi" unicode="ffi" horiz-adv-x="1042" 
d="M607 534h355v-534h-119v429h-236v-429h-120v429h-242v-429h-120v429h-98v105h98v75q0 99 55.5 153.5t154.5 54.5q25 0 55 -8v-102q-16 4 -43 4q-102 0 -102 -106v-71h242v75q0 99 55.5 153.5t154.5 54.5q25 0 55 -8v-102q-16 4 -43 4q-102 0 -102 -106v-71zM902 629
q-32 0 -55 23t-23 55t23 55.5t55 23.5q33 0 56 -23.5t23 -55.5t-23 -55t-56 -23z" />
    <glyph glyph-name="ffl" unicode="ffl" horiz-adv-x="1042" 
d="M843 815h119v-815h-119v429h-236v-429h-120v429h-242v-429h-120v429h-98v105h98v75q0 99 55.5 153.5t154.5 54.5q25 0 55 -8v-102q-16 4 -43 4q-102 0 -102 -106v-71h242v75q0 99 55.5 153.5t154.5 54.5q25 0 55 -8v-102q-16 4 -43 4q-102 0 -102 -106v-71h236v281z" />
    <glyph glyph-name=".notdef" horiz-adv-x="799" 
d="M750 783v-783h-660v783h660zM706 40v699h-577z" />
    <glyph glyph-name=".null" horiz-adv-x="0" 
 />
    <glyph glyph-name="nonmarkingreturn" horiz-adv-x="333" 
 />
    <glyph glyph-name="space" unicode=" " horiz-adv-x="264" 
 />
    <glyph glyph-name="exclam" unicode="!" horiz-adv-x="312" 
d="M102 230l-10 434v119h128v-119l-10 -434h-108zM155 -7q-32 0 -55 22.5t-23 55.5t23 56t55 23q33 0 56 -23t23 -56t-23 -55.5t-56 -22.5z" />
    <glyph glyph-name="quotedbl" unicode="&#x22;" horiz-adv-x="454" 
d="M168 501l-10 -57h-62q-40 222 -40 254q0 36 19 58t52 22t52 -22t19 -58q0 -16 -10 -77zM368 501l-10 -57h-62q-40 222 -40 254q0 36 19 58t52 22t52 -22t19 -58q0 -16 -10 -77z" />
    <glyph glyph-name="numbersign" unicode="#" horiz-adv-x="829" 
d="M574 207l-45 -207h-104l45 207h-196l-45 -207h-104l45 207h-131v97h152l42 191h-131v97h152l42 191h104l-42 -191h196l42 191h104l-42 -191h132v-97h-153l-42 -191h131l1 -97h-153zM336 495l-42 -191h198l42 191h-198z" />
    <glyph glyph-name="dollar" unicode="$" horiz-adv-x="635" 
d="M587 219q0 -81 -60 -146q-59 -64 -164 -76l1 -99h-80l-1 99q-88 9 -151.5 56.5t-92.5 127.5l103 54q40 -105 143 -125v233q-107 34 -161 83q-60 51 -60 141q0 84 62 146q61 63 157 75l1 103h80l-1 -103q78 -9 133 -52.5t80 -109.5l-101 -55q-35 87 -113 104v-229
q117 -36 170 -89q55 -52 55 -138zM189 574q0 -66 96 -103v206q-43 -8 -69.5 -36t-26.5 -67zM361 317v-208q45 8 72.5 36t27.5 67q0 35 -23.5 59.5t-76.5 45.5z" />
    <glyph glyph-name="percent" unicode="%" horiz-adv-x="875" 
d="M390 614q0 -73 -52 -125t-125 -52t-125 52q-51 53 -51 125t51 125q52 52 125 52t125 -52q52 -51 52 -125zM751 783l-509 -783h-118l510 783h117zM213 690q-31 0 -53.5 -22t-22.5 -54t22.5 -54t53.5 -22q32 0 54.5 22.5t22.5 53.5t-22.5 53.5t-54.5 22.5zM662 348
q73 0 124 -52q52 -52 52 -125t-52 -125q-51 -51 -124 -51q-72 0 -125 51q-52 52 -52 125q0 72 51 125q52 52 126 52zM716 117q22 23 22 54t-22 53q-22 23 -54 23t-55 -23q-22 -22 -22 -53t22 -54q23 -22 55 -22t54 22z" />
    <glyph glyph-name="ampersand" unicode="&#x26;" horiz-adv-x="729" 
d="M699 0h-142l-60 70q-94 -79 -205 -79q-105 0 -175 52q-69 53 -69 153q0 62 37.5 112.5t118.5 101.5l-45 52q-57 66 -57 133q0 82 61 140q62 59 153 59q88 0 152 -58q65 -57 65 -136q0 -109 -122 -180l-50 -29l135 -157q51 79 76 173l109 -26q-30 -127 -110 -233zM253 516
l43 -50l73 44q50 30 50 85q0 39 -29 67t-71 28q-43 0 -72 -29q-30 -27 -29 -66t35 -79zM293 100q67 0 132 54l-157 181q-98 -60 -98 -123q0 -34 12.5 -57.5t33 -34.5t39.5 -15.5t38 -4.5z" />
    <glyph glyph-name="quotesingle" unicode="'" horiz-adv-x="254" 
d="M168 501l-10 -57h-62q-40 222 -40 254q0 36 19 58t52 22t52 -22t19 -58q0 -16 -10 -77z" />
    <glyph glyph-name="parenleft" unicode="(" horiz-adv-x="400" 
d="M379 -70l-51 -66q-134 76 -206.5 202t-72.5 288v29q0 163 73 291t206 203l51 -65q-104 -77 -160.5 -187t-56.5 -243v-28q0 -267 217 -424z" />
    <glyph glyph-name="parenright" unicode=")" horiz-adv-x="400" 
d="M72 -136l-51 66q216 158 216 424v28q0 133 -56 243t-160 187l51 65q133 -75 206 -203t73 -291v-29q0 -162 -72.5 -288t-206.5 -202z" />
    <glyph glyph-name="asterisk" unicode="*" horiz-adv-x="499" 
d="M162 387l-67 49l85 118l-139 46l26 79l139 -45v149h86v-149l139 45l27 -79l-139 -46l85 -118l-67 -49l-88 118z" />
    <glyph glyph-name="plus" unicode="+" horiz-adv-x="620" 
d="M254 311h-209v109h209v202h112v-202h209v-109h-209v-205h-112v205z" />
    <glyph glyph-name="comma" unicode="," horiz-adv-x="307" 
d="M124 -162l-54 48q67 46 99 121q-13 -6 -30 -6q-31 0 -54 23.5t-23 58.5q0 37 25.5 62t64.5 25t66 -32t27 -82v-5q0 -59 -33 -116.5t-88 -96.5z" />
    <glyph glyph-name="hyphen" unicode="-" horiz-adv-x="464" 
d="M69 264v121h326v-121h-326z" />
    <glyph glyph-name="period" unicode="." horiz-adv-x="292" 
d="M59 82q0 37 25.5 62.5t61.5 25.5q37 0 62 -25.5t25 -62.5q0 -36 -25.5 -61.5t-61.5 -25.5t-61.5 26t-25.5 61z" />
    <glyph glyph-name="slash" unicode="/" horiz-adv-x="540" 
d="M151 -5h-119l358 820h119z" />
    <glyph glyph-name="zero" unicode="0" horiz-adv-x="764" 
d="M53 392q0 170 92 286q93 116 238 116q146 0 237 -115q91 -113 91 -285t-92 -288q-91 -115 -238 -115q-145 0 -237 114q-91 115 -91 287zM584 392q0 120 -56 205q-56 84 -147 84q-90 0 -146 -83q-54 -82 -54 -204q0 -123 55 -206q56 -84 147 -84q90 0 146 83q55 82 55 205
z" />
    <glyph glyph-name="one" unicode="1" horiz-adv-x="462" 
d="M7 639l239 144h117v-783h-123v651l-176 -106z" />
    <glyph glyph-name="two" unicode="2" horiz-adv-x="657" 
d="M48 0v107l280 239q79 67 110 109q30 42 30 94q0 58 -38 95t-102 37q-112 0 -159 -123l-110 46q24 86 96 138q73 52 174 52q116 0 191 -66q75 -64 75 -170q0 -85 -44 -149q-43 -61 -147 -147l-182 -151h377v-111h-551z" />
    <glyph glyph-name="three" unicode="3" horiz-adv-x="647" 
d="M592 220q0 -96 -79 -163q-78 -66 -199 -66q-203 0 -274 176l106 52q51 -116 170 -116q62 0 106 35q43 36 43 84q0 50 -42 85q-41 36 -105 36h-84v111h77q61 0 99 34q40 34 40 83t-37 80t-102 31q-105 0 -153 -113l-107 49q28 80 96.5 128t165.5 48q121 0 191 -61
q71 -62 71 -149q0 -122 -118 -179v-1q135 -52 135 -184z" />
    <glyph glyph-name="four" unicode="4" horiz-adv-x="712" 
d="M404 783h151v-499h116v-111h-116v-173h-121v173h-403v124zM434 644l-277 -360h277v360z" />
    <glyph glyph-name="five" unicode="5" horiz-adv-x="639" 
d="M307 -9q-91 0 -161 43t-105 125l106 59q49 -114 162 -114q66 0 111 39q46 39 46 105q0 67 -43.5 106.5t-110.5 39.5q-88 0 -148 -67l-105 43l59 413h437v-111h-344l-31 -224q64 53 155 53q116 0 187 -71t71 -180q0 -118 -83 -189q-82 -70 -203 -70z" />
    <glyph glyph-name="six" unicode="6" horiz-adv-x="685" 
d="M401 686q-103 0 -162 -80q-56 -79 -64 -197h1q32 46 87.5 72.5t115.5 26.5q112 0 186 -71t74 -183q0 -117 -84 -190q-83 -74 -201 -74q-128 0 -213 85q-88 88 -88 289q0 85 21 160.5t62 137t109.5 97t155.5 35.5q117 0 218 -84l-62 -90q-30 24 -46 33q-47 33 -110 33z
M352 401q-66 0 -115 -42t-49 -106q0 -69 47 -110t117 -41t115 41.5t45 106.5q0 68 -45 109q-45 42 -115 42z" />
    <glyph glyph-name="seven" unicode="7" horiz-adv-x="615" 
d="M29 783h559v-101l-359 -682h-142l360 672h-418v111z" />
    <glyph glyph-name="eight" unicode="8" horiz-adv-x="679" 
d="M339 -9q-122 0 -205 62q-82 61 -82 160q0 139 150 194v1q-60 17 -95 64t-35 110q0 95 80 154q79 58 187 58q109 0 188 -58q80 -57 80 -154q0 -63 -34 -108.5t-95 -65.5v-1q149 -54 149 -189q0 -102 -83 -165q-83 -62 -205 -62zM194 570q0 -50 42 -85q44 -33 103 -33
q63 0 104.5 33.5t41.5 84.5t-41.5 84.5t-104.5 33.5q-64 0 -104.5 -33t-40.5 -85zM175 223q0 -53 47 -89q48 -36 117 -36q68 0 117 35q49 36 49 90t-49 88q-48 36 -117 36q-71 0 -118 -35q-46 -34 -46 -89z" />
    <glyph glyph-name="nine" unicode="9" horiz-adv-x="686" 
d="M284 98q71 0 123 41q94 76 105 231h-2q-33 -47 -88 -73.5t-114 -26.5q-114 0 -188 71t-74 184q0 118 83 193q83 76 202 76q128 0 213 -85q88 -88 88 -289q0 -86 -20.5 -161.5t-61 -136.5t-109 -96.5t-157.5 -35.5q-124 0 -225 87l64 89q82 -68 161 -68zM333 377
q65 0 115 42q49 43 49 109q0 71 -45.5 112.5t-118.5 41.5q-71 0 -115.5 -41.5t-44.5 -109.5q0 -69 44 -111.5t116 -42.5z" />
    <glyph glyph-name="colon" unicode=":" horiz-adv-x="313" 
d="M69 454q0 37 26 62.5t62 25.5q37 0 62 -25.5t25 -62.5q0 -36 -25 -61t-62 -25q-36 0 -62 25.5t-26 60.5zM69 82q0 37 26 62.5t62 25.5q37 0 62 -25.5t25 -62.5q0 -36 -25.5 -61.5t-61.5 -25.5t-62 26t-26 61z" />
    <glyph glyph-name="semicolon" unicode=";" horiz-adv-x="317" 
d="M73 454q0 37 25.5 62.5t61.5 25.5q37 0 62.5 -25.5t25.5 -62.5q0 -35 -25.5 -60.5t-62.5 -25.5q-36 0 -61.5 25.5t-25.5 60.5zM134 -162l-54 48q67 46 99 121q-13 -6 -30 -6q-31 0 -54 23.5t-23 58.5q0 37 25.5 62t64.5 25t66 -32t27 -82v-5q0 -59 -33 -116.5t-88 -96.5z
" />
    <glyph glyph-name="less" unicode="&#x3c;" horiz-adv-x="663" 
d="M190 331l395 -174v-118l-547 248v88l547 246v-116z" />
    <glyph glyph-name="equal" unicode="=" horiz-adv-x="627" 
d="M72 450v111h483v-111h-483zM72 171v111h483v-111h-483z" />
    <glyph glyph-name="greater" unicode="&#x3e;" horiz-adv-x="663" 
d="M78 621l547 -246v-88l-547 -248v118l395 174l-395 174v116z" />
    <glyph glyph-name="question" unicode="?" horiz-adv-x="534" 
d="M266 794q99 0 163 -60q66 -59 66 -151q0 -61 -30 -103t-97 -100q-43 -37 -59.5 -63t-16.5 -63v-24h-115v45q0 52 19.5 90.5t64.5 77.5l27 23q78 69 78 124q0 40 -28.5 66t-72.5 26q-42 0 -77 -24.5t-53 -70.5l-103 57q26 68 87 109t147 41zM239 -7q-32 0 -55 22.5
t-23 55.5t23 56t55 23t55.5 -23t23.5 -56t-23 -55.5t-56 -22.5z" />
    <glyph glyph-name="at" unicode="@" horiz-adv-x="867" 
d="M624 119q-36 0 -67 16.5t-45 45.5q-21 -28 -54 -45t-64 -17q-70 0 -116 52q-47 53 -47 116q0 93 58 160q59 68 145 68q28 0 56 -15t40 -43l10 55h110l-42 -250q-10 -60 35 -60q43 0 81 51q39 53 39 125q0 118 -85 197t-218 79q-141 0 -241 -100t-100 -242
q-3 -86 37.5 -161t119 -121.5t178.5 -46.5q116 0 210 69l35 -54q-42 -36 -112 -58q-72 -23 -133 -23q-176 0 -289 113q-113 115 -113 282q0 170 120 288q121 119 287 119q158 0 264 -97q106 -96 106 -243q0 -115 -61 -188q-62 -72 -144 -72zM445 411q-42 0 -72 -35
q-29 -36 -28 -77q1 -31 21.5 -54.5t51.5 -23.5q39 0 68 35q29 37 29 81q0 33 -19.5 53.5t-50.5 20.5z" />
    <glyph glyph-name="A" unicode="A" horiz-adv-x="783" 
d="M0 0l319 783h145l317 -783h-128l-71 184h-384l-72 -184h-126zM390 665l-148 -372h297z" />
    <glyph glyph-name="B" unicode="B" horiz-adv-x="734" 
d="M100 0v783h299q115 0 183 -55q69 -56 69 -151q0 -24 -8 -54q-9 -31 -37.5 -64.5t-67.5 -50.5q80 -25 115 -79q34 -52 34 -110q0 -101 -72.5 -160t-205.5 -59h-309zM222 672v-220h154q73 0 112.5 30.5t39.5 81.5t-36 79.5t-109 28.5h-161zM222 344v-233h189q73 0 113 32
t40 86q0 53 -41 84t-120 31h-181z" />
    <glyph glyph-name="C" unicode="C" horiz-adv-x="834" 
d="M442 -9q-152 0 -271 103q-58 51 -90.5 128t-32.5 167q0 174 118 289q119 116 281 116q150 0 242 -79q85 -72 111 -156l-111 -51q-31 79 -93 125t-151 46q-107 0 -187 -80t-80 -206q0 -127 79 -207q80 -80 188 -80q81 0 149 47q69 48 98 125l112 -51q-30 -86 -116 -156
q-98 -80 -246 -80z" />
    <glyph glyph-name="D" unicode="D" horiz-adv-x="813" 
d="M766 391q0 -146 -99 -263q-49 -59 -132 -93.5t-185 -34.5h-250v783h248q174 0 278 -91q69 -59 104.5 -140.5t35.5 -160.5zM637 391q0 101 -68 184q-34 43 -92.5 68.5t-130.5 25.5h-123v-555h122q148 0 224 89q68 83 68 188z" />
    <glyph glyph-name="E" unicode="E" horiz-adv-x="663" 
d="M601 672h-378v-218h344v-111h-344v-231h382v-112h-505v783h501v-111z" />
    <glyph glyph-name="F" unicode="F" horiz-adv-x="642" 
d="M570 329h-347v-329h-123v783h499v-114h-376v-227h347v-113z" />
    <glyph glyph-name="G" unicode="G" horiz-adv-x="853" 
d="M800 562l-109 -50q-69 168 -245 168q-115 0 -193 -82q-77 -83 -77 -205q0 -124 76 -206q77 -83 193 -83q96 0 157 48t76 128h-281v112h414v-43q0 -153 -100 -256q-99 -102 -265 -102q-176 0 -287 113q-111 112 -111 286q0 173 118 288q119 116 281 116q133 0 227 -68
q93 -68 126 -164z" />
    <glyph glyph-name="H" unicode="H" horiz-adv-x="833" 
d="M100 0v783h123v-328h387v328h123v-783h-123v338h-387v-338h-123z" />
    <glyph glyph-name="I" unicode="I" horiz-adv-x="322" 
d="M100 0v783h123v-783h-123z" />
    <glyph glyph-name="J" unicode="J" horiz-adv-x="591" 
d="M258 -9q-79 0 -139 44t-94 126l102 57q43 -112 129 -112q57 0 88 34.5t31 91.5v551h124v-551q0 -106 -68 -174q-67 -67 -173 -67z" />
    <glyph glyph-name="K" unicode="K" horiz-adv-x="711" 
d="M100 783h123v-338l312 338h163l-350 -374l370 -409h-166l-329 370v-370h-123v783z" />
    <glyph glyph-name="L" unicode="L" horiz-adv-x="592" 
d="M223 114h353v-114h-476v783h123v-669z" />
    <glyph glyph-name="M" unicode="M" horiz-adv-x="1045" 
d="M823 0v571h-2l-254 -571h-91l-253 568h-2v-568h-121v783h157l265 -599h1l261 599h161v-783h-122z" />
    <glyph glyph-name="N" unicode="N" horiz-adv-x="853" 
d="M625 0l-404 603v-603h-121v783h145l386 -577v577h122v-783h-128z" />
    <glyph glyph-name="O" unicode="O" horiz-adv-x="900" 
d="M48 390q0 170 118 287t285 117q169 0 284 -115q117 -116 117 -286q0 -172 -118 -287t-286 -115t-284 113q-116 114 -116 286zM450 105q114 0 193 84q80 85 80 204q0 120 -80 203q-79 84 -193 84t-194 -84q-79 -82 -79 -203t79 -204q80 -84 194 -84z" />
    <glyph glyph-name="P" unicode="P" horiz-adv-x="683" 
d="M651 540q0 -107 -77 -179q-77 -71 -212 -71h-139v-290h-123v783h277q137 0 205 -71q69 -70 69 -172zM366 669h-143v-266h143q78 0 119 38t41 96q0 55 -37 93q-36 39 -123 39z" />
    <glyph glyph-name="Q" unicode="Q" horiz-adv-x="902" 
d="M861 73l-78 -90l-96 84q-106 -76 -239 -76q-168 0 -284 113q-116 114 -116 286q0 170 118 287t285 117q169 0 284 -115q117 -116 117 -286q0 -137 -81 -244zM450 105q78 0 145 42l-145 125l79 90l148 -131q46 73 46 162q0 120 -80 203q-79 84 -193 84t-194 -84
q-79 -82 -79 -203t79 -204q80 -84 194 -84z" />
    <glyph glyph-name="R" unicode="R" horiz-adv-x="719" 
d="M100 0v783h294q138 0 202 -69q65 -70 65 -172q0 -81 -43.5 -139.5t-122.5 -84.5l186 -318h-139l-170 297h-149v-297h-123zM223 669v-261h158q78 0 116.5 36.5t38.5 94.5q0 130 -155 130h-158z" />
    <glyph glyph-name="S" unicode="S" horiz-adv-x="641" 
d="M327 -9q-103 0 -179 49t-109 139l104 54q25 -63 73.5 -96.5t112.5 -33.5q61 0 99 29.5t38 77.5q0 42 -36 70t-121 55q-128 41 -184 91q-60 52 -60 143q0 95 75 159q76 66 185 66q96 0 162 -45t95 -121l-102 -55q-45 110 -158 110q-57 0 -94 -30t-37 -77q0 -43 35 -70
t110 -50q146 -44 201 -99q56 -54 56 -140q0 -91 -72 -159q-71 -67 -194 -67z" />
    <glyph glyph-name="T" unicode="T" horiz-adv-x="660" 
d="M20 669v114h620v-114h-249v-669h-123v669h-248z" />
    <glyph glyph-name="U" unicode="U" horiz-adv-x="791" 
d="M577 783h123v-479q0 -144 -79 -229q-78 -85 -227 -85q-150 0 -226 85q-77 86 -77 223v485h123v-480q0 -90 50 -143.5t132 -53.5q84 0 132.5 53t48.5 140v484z" />
    <glyph glyph-name="V" unicode="V" horiz-adv-x="773" 
d="M389 142l235 641h130l-296 -783h-142l-297 783h137z" />
    <glyph glyph-name="W" unicode="W" horiz-adv-x="1174" 
d="M331 174l188 609h137l189 -609l179 609h128l-238 -783h-140l-187 612h-1l-189 -612h-138l-236 783h132z" />
    <glyph glyph-name="X" unicode="X" horiz-adv-x="732" 
d="M2 0l291 403l-274 380h148l200 -285l201 285h145l-272 -379l288 -404h-146l-218 308l-219 -308h-144z" />
    <glyph glyph-name="Y" unicode="Y" horiz-adv-x="751" 
d="M20 783h142l214 -351l216 351h141l-296 -467v-316h-124v313z" />
    <glyph glyph-name="Z" unicode="Z" horiz-adv-x="665" 
d="M54 783h561v-105l-428 -568h437v-110h-586v106l427 567h-411v110z" />
    <glyph glyph-name="bracketleft" unicode="[" horiz-adv-x="428" 
d="M208 772v-802h184v-96h-296v993h296v-95h-184z" />
    <glyph glyph-name="backslash" unicode="\" horiz-adv-x="540" 
d="M30 815h120l357 -820h-119z" />
    <glyph glyph-name="bracketright" unicode="]" horiz-adv-x="428" 
d="M37 772v95h296v-993h-296v96h184v802h-184z" />
    <glyph glyph-name="asciicircum" unicode="^" horiz-adv-x="619" 
d="M264 783h92l216 -332h-123l-139 218l-138 -218h-125z" />
    <glyph glyph-name="underscore" unicode="_" horiz-adv-x="538" 
d="M0 -176v107h538v-107h-538z" />
    <glyph glyph-name="grave" unicode="`" horiz-adv-x="293" 
d="M22 797h146l103 -172h-104z" />
    <glyph glyph-name="a" unicode="a" horiz-adv-x="575" 
d="M385 362q0 34 -28 57t-77 23q-93 0 -133 -85l-91 52q63 136 227 136q151 0 200 -109q18 -40 18 -96v-340h-117v73q-49 -82 -157 -82q-77 0 -129 44q-51 43 -51 113v6q0 44 21 77.5t55 51t71 26t75 8.5h66q50 0 50 45zM384 216v17h-115q-37 0 -71 -20q-32 -20 -32 -54
q0 -33 23.5 -53t61.5 -20q61 0 97 35t36 95z" />
    <glyph glyph-name="b" unicode="b" horiz-adv-x="681" 
d="M637 269q0 -113 -75 -195t-190 -82q-46 0 -98 24t-78 66v-82h-116v814h119v-359q26 43 77 65q52 24 99 24q117 0 189 -84q73 -83 73 -191zM241 388q-44 -50 -44 -120t44 -120q45 -48 116 -48t115 48q45 50 45 120t-45 120q-43 49 -115 49q-71 0 -116 -49z" />
    <glyph glyph-name="c" unicode="c" horiz-adv-x="601" 
d="M322 -9q-119 0 -198 79q-80 80 -80 198q0 112 80 195q79 82 198 82q88 0 151.5 -43.5t88.5 -116.5l-102 -46q-35 98 -137 98q-65 0 -112 -47q-45 -46 -45 -120q0 -75 45 -123t113 -48q100 0 138 99l104 -46q-22 -64 -85 -113q-61 -48 -159 -48z" />
    <glyph glyph-name="d" unicode="d" horiz-adv-x="681" 
d="M43 268q0 109 73 192q74 84 193 84q44 0 94 -22q52 -21 79 -64v356h119v-814h-116v83q-29 -47 -83 -69q-53 -22 -96 -22q-113 0 -188 82t-75 194zM324 437q-71 0 -116 -49q-44 -50 -44 -120t44 -120q45 -48 116 -48q72 0 115 48q45 50 45 120t-45 120q-45 49 -115 49z
" />
    <glyph glyph-name="e" unicode="e" horiz-adv-x="615" 
d="M571 232h-405q1 -59 48 -100q46 -39 108 -39q100 0 144 83l86 -57q-33 -61 -94 -95t-134 -34q-120 0 -200 79q-80 80 -80 199q0 114 77 196q77 81 192 81q122 0 191 -76t69 -200q0 -19 -2 -37zM313 443q-55 0 -94 -33t-47 -88h280q-3 55 -42 88t-97 33z" />
    <glyph glyph-name="f" unicode="f" horiz-adv-x="404" 
d="M390 809v-102q-16 4 -43 4q-102 0 -102 -106v-71h142v-105h-142v-429h-120v429h-98v105h98v75q0 99 55.5 153.5t154.5 54.5q25 0 55 -8z" />
    <glyph glyph-name="g" unicode="g" horiz-adv-x="677" 
d="M303 -4q-113 0 -187 81q-73 80 -73 192q0 106 72 190q73 84 192 84q42 0 94 -23t80 -67v81h116v-527q0 -126 -77 -200t-202 -74q-195 0 -269 162l99 57q56 -113 168 -113q72 0 117 42.5t45 120.5v84q-28 -45 -81 -68q-51 -22 -94 -22zM480 271q0 69 -44 118
q-44 48 -115 48t-115 -48q-44 -47 -44 -118q0 -70 44 -120q45 -48 115 -48q71 0 114 48q45 49 45 120z" />
    <glyph glyph-name="h" unicode="h" horiz-adv-x="633" 
d="M559 0h-119v299q0 62 -30 97.5t-88 35.5q-56 0 -89.5 -37t-33.5 -98v-297h-119v814h119v-348q61 79 160 79q96 0 148 -58.5t52 -157.5v-329z" />
    <glyph glyph-name="i" unicode="i" horiz-adv-x="278" 
d="M84 652q-23 23 -23 55t23 55q23 24 55 24t55 -24q23 -23 23 -55t-23 -55t-55 -23t-55 23zM199 534v-534h-119v534h119z" />
    <glyph glyph-name="j" unicode="j" horiz-adv-x="286" 
d="M146 786q33 0 56.5 -23.5t23.5 -55.5t-23.5 -55t-56.5 -23q-32 0 -55 23t-23 55t23 55.5t55 23.5zM87 534h120v-597q0 -202 -194 -202q-27 0 -54 8v104q12 -4 30 -4q54 0 76 23.5t22 83.5v584z" />
    <glyph glyph-name="k" unicode="k" horiz-adv-x="580" 
d="M80 0v814h119v-490h1l207 210h162l-241 -242l254 -292h-157l-223 261h-3v-261h-119z" />
    <glyph glyph-name="l" unicode="l" horiz-adv-x="278" 
d="M80 0v814h119v-814h-119z" />
    <glyph glyph-name="m" unicode="m" horiz-adv-x="974" 
d="M549 0h-118v300q0 62 -29 97.5t-86 35.5q-54 0 -85.5 -37.5t-31.5 -98.5v-297h-119v534h116v-72q63 84 159 84q116 0 165 -88q42 46 85 67t101 21q94 0 144 -58.5t50 -157.5v-330h-119v301q0 132 -114 132q-54 0 -86 -37t-32 -98v-298z" />
    <glyph glyph-name="n" unicode="n" horiz-adv-x="633" 
d="M559 0h-119v299q0 62 -30 97.5t-88 35.5q-56 0 -89.5 -37t-33.5 -98v-297h-119v534h116v-72q62 83 163 83q96 0 148 -58.5t52 -157.5v-329z" />
    <glyph glyph-name="o" unicode="o" horiz-adv-x="650" 
d="M326 545q116 0 198 -79t82 -196q0 -118 -82 -199q-82 -80 -199 -80t-200 80q-82 79 -82 197q0 117 83 197t200 80zM209 388q-44 -49 -44 -118q0 -70 45 -121q45 -50 116 -50q72 0 115 49q44 50 44 120t-45 120q-43 49 -115 49q-71 0 -116 -49z" />
    <glyph glyph-name="p" unicode="p" horiz-adv-x="681" 
d="M637 269q0 -113 -75 -195t-190 -82q-40 0 -93 21q-52 22 -80 65v-341h-119v797h116v-83q29 48 82 71q51 22 97 22q117 0 189 -84q73 -83 73 -191zM241 388q-44 -50 -44 -120t44 -120q45 -48 116 -48t115 48q45 50 45 120t-45 120q-43 49 -115 49q-71 0 -116 -49z" />
    <glyph glyph-name="q" unicode="q" horiz-adv-x="681" 
d="M43 268q0 109 73 192q74 84 193 84q44 0 94 -22q52 -22 82 -67v79h116v-797h-119v343q-28 -44 -82 -67q-52 -21 -94 -21q-113 0 -188 82t-75 194zM324 437q-71 0 -116 -49q-44 -50 -44 -120t44 -120q45 -48 116 -48q72 0 115 48q45 50 45 120t-45 120q-45 49 -115 49z
" />
    <glyph glyph-name="r" unicode="r" horiz-adv-x="393" 
d="M372 536v-122q-15 3 -34 3q-68 0 -103.5 -38t-35.5 -108v-271h-119v534h116v-85q50 90 147 90q19 0 29 -3z" />
    <glyph glyph-name="s" unicode="s" horiz-adv-x="502" 
d="M253 -9q-159 0 -221 134l93 52q44 -86 128 -86q35 0 59.5 16.5t24.5 42.5q0 47 -110 70q-90 18 -133 64q-38 41 -38 97q0 72 58 118t136 46q144 0 200 -120l-92 -52q-36 72 -112 72q-29 0 -52 -15.5t-23 -36.5q0 -26 23 -41.5t76 -26.5q185 -41 185 -168q0 -73 -56 -120
q-55 -46 -146 -46z" />
    <glyph glyph-name="t" unicode="t" horiz-adv-x="416" 
d="M371 427h-131v-236q0 -47 22.5 -68t69.5 -21q21 0 38 4v-101q-30 -11 -64 -11q-88 0 -136.5 46t-48.5 132v255h-98v107h98v165h119v-165h131v-107z" />
    <glyph glyph-name="u" unicode="u" horiz-adv-x="633" 
d="M74 534h119v-299q0 -62 30 -97.5t88 -35.5q56 0 89.5 37t33.5 98v297h119v-534h-116v72q-62 -83 -163 -83q-95 0 -147.5 59.5t-52.5 157.5v328z" />
    <glyph glyph-name="v" unicode="v" horiz-adv-x="604" 
d="M17 534h129l157 -395l157 395h125l-223 -534h-119z" />
    <glyph glyph-name="w" unicode="w" horiz-adv-x="879" 
d="M736 534h122l-171 -534h-124l-123 375h-2l-124 -375h-122l-171 534h125l112 -377h1l121 377h120l122 -378h2z" />
    <glyph glyph-name="x" unicode="x" horiz-adv-x="570" 
d="M14 0l203 270l-196 264h137l128 -177l129 177h134l-195 -262l202 -272h-137l-135 186l-134 -186h-136z" />
    <glyph glyph-name="y" unicode="y" horiz-adv-x="612" 
d="M152 534l166 -350l154 350h129l-367 -797h-127l147 323l-238 474h136z" />
    <glyph glyph-name="z" unicode="z" horiz-adv-x="529" 
d="M51 534h431v-95l-294 -335h295v-104h-440v99l290 331h-282v104z" />
    <glyph glyph-name="braceleft" unicode="{" horiz-adv-x="450" 
d="M132 97l16 110q9 62 -22 88t-98 26h-7v97h7q66 0 97.5 27t22.5 89l-16 110q-18 119 38.5 171t187.5 52h55v-95h-48q-64 0 -92.5 -20t-29 -57.5t7.5 -92.5l12 -80q7 -49 -18 -94q-25 -44 -99 -57v-1q52 -9 80 -37q47 -44 38 -113l-13 -81q-8 -55 -7.5 -92.5t29 -57.5
t92.5 -20h48v-95h-55q-128 0 -186 49q-59 50 -40 174z" />
    <glyph glyph-name="bar" unicode="|" horiz-adv-x="304" 
d="M96 -116v1007h112v-1007h-112z" />
    <glyph glyph-name="braceright" unicode="}" horiz-adv-x="450" 
d="M302 207l16 -110q18 -124 -41 -174q-58 -49 -185 -49h-54v95h47q64 0 92.5 20t29 57.5t-7.5 92.5l-13 81q-4 29 2.5 57t36 56t80.5 37v1q-39 7 -66 24.5t-37.5 39t-15 45t0.5 42.5l12 80q8 55 7.5 92.5t-29 57.5t-92.5 20h-47v95h54q130 0 186.5 -52t39.5 -171l-16 -110
q-9 -62 22.5 -89t97.5 -27h8v-97h-8q-63 1 -95.5 -24t-24.5 -90z" />
    <glyph glyph-name="asciitilde" unicode="~" horiz-adv-x="635" 
d="M422 207q-44 0 -112 40q-70 41 -99 41q-43 0 -77 -46l-69 65q55 94 146 94q44 2 118.5 -40.5t92.5 -40.5q44 0 78 46l68 -65q-54 -94 -146 -94z" />
    <glyph glyph-name="exclamdown" unicode="&#xa1;" horiz-adv-x="295" 
d="M148 545q32 0 55 -22.5t23 -55.5t-23 -56t-55 -23q-33 0 -56 23t-23 56t23 55.5t56 22.5zM211 -126l-10 434h-108l-10 -434v-119h128v119z" />
    <glyph glyph-name="cent" unicode="&#xa2;" horiz-adv-x="601" 
d="M462 198l104 -46q-23 -62 -76.5 -106t-132.5 -53v-95h-75v96q-104 14 -171 90t-67 184q0 104 67 181q67 79 171 93v95h75v-94q75 -9 129.5 -51.5t75.5 -106.5l-102 -46q-30 81 -104 95v-332q74 13 106 96zM166 270q0 -62 32.5 -107t84.5 -59v328q-52 -13 -84.5 -57.5
t-32.5 -104.5z" />
    <glyph glyph-name="sterling" unicode="&#xa3;" horiz-adv-x="650" 
d="M538 171l83 -58q-23 -59 -71 -91.5t-111 -32.5q-48 0 -105 23q-54 24 -90 24q-56 0 -130 -41l-66 116q153 91 153 177q0 23 -11 51h-128v102h78q-37 70 -37 124q0 92 74 160q75 69 180 69q94 0 157 -45t87 -121l-105 -51q-37 106 -138 106q-56 0 -92.5 -34.5t-36.5 -92.5
q0 -41 41 -115h221v-102h-176q6 -21 6 -44q0 -93 -102 -158v-1q24 10 46 10q44 0 92 -22t84 -22q27 0 53 19t44 50z" />
    <glyph glyph-name="currency" unicode="&#xa4;" horiz-adv-x="671" 
d="M97 271q0 67 38 126h1l-86 88l74 73l88 -90q57 33 124 33q68 0 123 -33l89 89l73 -73l-85 -87q39 -55 39 -126q0 -60 -38 -125l-2 -3l87 -86l-73 -74l-89 91q-68 -34 -124 -34t-124 34l-89 -90l-73 74l87 86q-40 56 -40 127zM426 360q-36 36 -91 36t-91 -36
q-36 -34 -36 -90t36 -90q37 -35 91 -35t91 35q36 34 36 90t-36 90z" />
    <glyph glyph-name="yen" unicode="&#xa5;" horiz-adv-x="757" 
d="M440 300v-79h237v-91h-237v-130h-124v130h-235v91h235v79h-235v92h192l-236 391h142l200 -346l201 346h141l-240 -391h196v-92h-237z" />
    <glyph glyph-name="brokenbar" unicode="&#xa6;" horiz-adv-x="302" 
d="M94 891h114v-390h-114v390zM208 274v-390h-114v390h114z" />
    <glyph glyph-name="section" unicode="&#xa7;" horiz-adv-x="667" 
d="M342 90q32 0 61 15q30 15 30 46q0 42 -96 66l-107 27q-181 45 -181 147q0 50 31.5 83.5t87.5 48.5q-62 41 -62 103q0 78 69 123q71 45 158 45q167 0 230 -123l-91 -56q-42 78 -139 78q-34 0 -67 -15q-32 -15 -32 -45q0 -45 103 -69l100 -24q182 -44 182 -147
q0 -100 -119 -132q27 -16 44.5 -44.5t17.5 -58.5q0 -81 -67 -126q-67 -44 -153 -44q-103 0 -167 37t-100 111l92 55q56 -101 175 -101zM254 472q-37 0 -61 -17t-24 -43q0 -25 30 -43.5t99 -35.5q83 -20 115 -20q37 0 61.5 17.5t24.5 43.5q0 25 -30 43t-100 35
q-83 20 -115 20z" />
    <glyph glyph-name="dieresis" unicode="&#xa8;" horiz-adv-x="420" 
d="M99 771q31 0 53 -22.5t22 -52.5q2 -31 -22 -53t-53 -22t-53 22q-36 32 -16 81.5t69 46.5zM246 696q0 31 21.5 53t53.5 22q31 0 53 -22.5t22 -52.5q0 -31 -22 -53t-53 -22t-53 21.5t-22 53.5z" />
    <glyph glyph-name="copyright" unicode="&#xa9;" horiz-adv-x="896" 
d="M447 -9q-164 0 -281 117q-116 119 -116 284t116 284q117 118 281 118q166 0 281 -118q117 -117 117 -284q0 -166 -117 -284q-116 -117 -281 -117zM447 730q-138 0 -234 -99q-96 -97 -96 -239t96 -239q96 -98 234 -98q139 0 235 98q96 97 96 239t-96 239q-96 99 -235 99z
M455 145q-104 0 -177 71q-71 71 -71 176q0 100 71 174q72 73 177 73q79 0 136 -39.5t78 -103.5l-91 -41q-31 88 -122 88q-60 0 -100 -42q-40 -41 -40 -107q0 -67 40 -110t101 -43q89 0 123 88l92 -41q-19 -57 -75 -101q-55 -42 -142 -42z" />
    <glyph glyph-name="ordfeminine" unicode="&#xaa;" horiz-adv-x="557" 
d="M470 387h-93v48q-19 -25 -52.5 -39.5t-63.5 -14.5q-80 0 -134 58q-53 59 -53 135t52 134q53 59 137 59q72 0 114 -53v45h93v-372zM348 650q-28 31 -75 31t-75 -31q-29 -32 -29 -76q0 -45 29 -77q30 -31 76 -31q47 0 75 31q29 32 29 77q0 44 -30 76zM470 205h-391v84h391
v-84z" />
    <glyph glyph-name="guillemotleft" unicode="&#xab;" horiz-adv-x="635" 
d="M329 148l-69 -67l-224 220l224 221l69 -67l-156 -154zM580 148l-70 -67l-224 220l224 221l69 -67l-156 -154z" />
    <glyph glyph-name="logicalnot" unicode="&#xac;" horiz-adv-x="695" 
d="M619 558v-319h-113v209h-457v110h570z" />
    <glyph glyph-name="registered" unicode="&#xae;" horiz-adv-x="649" 
d="M324 258q-110 0 -189 78q-78 80 -78 190q0 111 78 189q79 79 189 79q111 0 189 -79q79 -78 79 -189t-79 -190q-78 -78 -189 -78zM324 744q-90 0 -151 -64q-62 -65 -62 -154t62 -154q61 -63 151 -63t152 63q63 64 63 154t-63 154q-61 64 -152 64zM283 373h-62v307h114
q52 0 79.5 -27.5t27.5 -70.5q0 -61 -53 -85l64 -124h-69l-56 110h-45v-110zM379 581q0 41 -49 41h-47v-82h47q25 0 37 12t12 29z" />
    <glyph glyph-name="overscore" unicode="&#xaf;" horiz-adv-x="386" 
d="M20 730h346v-95h-346v95z" />
    <glyph glyph-name="degree" unicode="&#xb0;" horiz-adv-x="453" 
d="M226 431q-75 0 -127 52t-52 128q0 73 53 126t126 53q74 0 127 -53t53 -126q0 -75 -53 -128q-52 -52 -127 -52zM226 693q-34 2 -57.5 -24t-23.5 -58t23 -59q17 -19 42 -22.5t47 5.5t37 29.5t14 46.5q0 32 -24.5 57t-57.5 25z" />
    <glyph glyph-name="plusminus" unicode="&#xb1;" 
d="M283 370h-213v109h213v177h113v-177h213v-109h-213v-181h-113v181zM71 24v107h537v-107h-537z" />
    <glyph glyph-name="uni00B2" unicode="&#xb2;" horiz-adv-x="465" 
d="M234 891q74 0 119 -41t45 -104q0 -44 -23.5 -78.5t-80.5 -81.5l-89 -71h195v-89h-339v83l174 141q64 52 64 91q0 26 -18 43t-50 17q-51 0 -75 -64l-89 37q17 54 61.5 85.5t105.5 31.5z" />
    <glyph glyph-name="uni00B3" unicode="&#xb3;" horiz-adv-x="441" 
d="M214 417q-62 0 -106 30t-62 82l83 37q24 -62 87 -62q33 0 54 15t21 39q0 54 -75 54h-53v88h49q70 0 70 53q0 52 -70 52q-56 0 -80 -61l-84 37q18 51 62 80.5t104 29.5q71 0 118 -37q48 -36 48 -94q0 -32 -18.5 -59.5t-49.5 -40.5v-1q76 -24 76 -104q0 -60 -51 -99
q-49 -39 -123 -39z" />
    <glyph glyph-name="acute" unicode="&#xb4;" horiz-adv-x="285" 
d="M120 625h-103l103 172h145z" />
    <glyph glyph-name="uni00B5" unicode="&#xb5;" horiz-adv-x="661" 
d="M90 534h119v-299q0 -62 30 -97.5t88 -35.5q57 0 90.5 37t33.5 98v297h119v-534h-116v72q-62 -81 -159 -81q-52 0 -89 25v-180h-116v698z" />
    <glyph glyph-name="paragraph" unicode="&#xb6;" horiz-adv-x="541" 
d="M312 0v360h-52q-92 0 -159 62q-65 63 -65 150t65 149q67 62 159 62h176v-783h-124z" />
    <glyph glyph-name="middot" unicode="&#xb7;" horiz-adv-x="302" 
d="M63 323q0 37 26 63t62 26q37 0 62 -26t25 -63q0 -36 -25.5 -61.5t-61.5 -25.5t-62 26t-26 61z" />
    <glyph glyph-name="cedilla" unicode="&#xb8;" horiz-adv-x="300" 
d="M172 0h82q26 -38 26 -86q0 -76 -54 -116q-53 -42 -130 -42q-48 0 -76 12v80q29 -8 66 -8q48 0 76.5 23.5t28.5 68.5q0 37 -19 68z" />
    <glyph glyph-name="uni00B9" unicode="&#xb9;" horiz-adv-x="347" 
d="M19 790l152 91h100v-455h-104v350l-103 -61z" />
    <glyph glyph-name="ordmasculine" unicode="&#xba;" horiz-adv-x="546" 
d="M273 381q-83 0 -141 55t-58 138q0 82 58 137q59 56 142 56q82 0 140 -55t58 -136q0 -84 -58 -139q-58 -56 -141 -56zM377 574q0 46 -29.5 76.5t-74.5 30.5t-74.5 -30t-29.5 -75q0 -46 30 -77.5t75 -31.5t74 30.5t29 76.5zM467 205h-388v84h388v-84z" />
    <glyph glyph-name="guillemotright" unicode="&#xbb;" horiz-adv-x="635" 
d="M125 522l225 -221l-224 -220l-70 67l156 152l-155 155zM376 522l224 -221l-224 -220l-69 67l156 152l-156 155z" />
    <glyph glyph-name="onequarter" unicode="&#xbc;" horiz-adv-x="959" 
d="M285 783v-455h-103v350l-104 -61l-45 74l152 92h100zM155 0l510 783h117l-509 -783h-118zM716 455h123v-274h77v-88h-77v-93h-97v93h-230v105zM742 351l-135 -170h135v170z" />
    <glyph glyph-name="onehalf" unicode="&#xbd;" horiz-adv-x="969" 
d="M284 783v-455h-103v350l-104 -61l-45 74l152 92h100zM155 0l510 783h117l-509 -783h-118zM748 465q74 0 119 -41t45 -104q0 -44 -23.5 -78.5t-80.5 -81.5l-89 -71h195v-89h-339v83l174 141q64 52 64 91q0 26 -18 43t-50 17q-51 0 -75 -64l-89 37q17 54 61.5 85.5
t105.5 31.5z" />
    <glyph glyph-name="threequarters" unicode="&#xbe;" horiz-adv-x="983" 
d="M211 319q-62 0 -106 30t-62 82l83 37q24 -62 87 -62q33 0 54 15t21 39q0 54 -75 54h-53v88h49q70 0 70 53q0 52 -70 52q-56 0 -80 -61l-84 37q18 51 62 80.5t104 29.5q71 0 118 -37q48 -36 48 -94q0 -32 -18.5 -59.5t-49.5 -40.5v-1q76 -24 76 -104q0 -60 -51 -99
q-50 -39 -123 -39zM185 0l510 783h117l-509 -783h-118zM746 455h123v-274h77v-88h-77v-93h-97v93h-230v105zM772 351l-135 -170h135v170z" />
    <glyph glyph-name="questiondown" unicode="&#xbf;" horiz-adv-x="528" 
d="M289 545q32 0 55 -22.5t23 -55.5t-23 -56t-55 -23t-55.5 23t-23.5 56t23 55.5t56 22.5zM262 -256q-98 0 -164 60q-65 59 -65 151q0 77 60 141q29 30 67 62q43 37 59.5 63t16.5 63v24h115v-45q0 -52 -19.5 -90.5t-64.5 -77.5l-27 -23q-78 -69 -78 -124q0 -40 28.5 -66
t72.5 -26q42 0 77 24.5t53 70.5l103 -57q-26 -68 -87 -109t-147 -41z" />
    <glyph glyph-name="Agrave" unicode="&#xc0;" horiz-adv-x="783" 
d="M198 1027h145l103 -172h-103zM0 0l319 783h145l317 -783h-128l-71 184h-384l-72 -184h-126zM390 665l-148 -372h297z" />
    <glyph glyph-name="Aacute" unicode="&#xc1;" horiz-adv-x="783" 
d="M442 854h-103l103 172h145zM0 0l319 783h145l317 -783h-128l-71 184h-384l-72 -184h-126zM390 665l-148 -372h297z" />
    <glyph glyph-name="Acircumflex" unicode="&#xc2;" horiz-adv-x="783" 
d="M434 1026l144 -172h-114l-74 92l-69 -92h-118l138 172h93zM0 0l319 783h145l317 -783h-128l-71 184h-384l-72 -184h-126zM390 665l-148 -372h297z" />
    <glyph glyph-name="Atilde" unicode="&#xc3;" horiz-adv-x="783" 
d="M317 922q-37 0 -39 -66h-81q-4 72 28 113.5t92 41.5q31 1 59 -17t49 -35.5t35 -16.5q38 0 39 66h82q3 -72 -29 -113.5t-92 -41.5q-30 -1 -58.5 17t-50 35.5t-34.5 16.5zM0 0l319 783h145l317 -783h-128l-71 184h-384l-72 -184h-126zM390 665l-148 -372h297z" />
    <glyph glyph-name="Adieresis" unicode="&#xc4;" horiz-adv-x="783" 
d="M277 1000q31 0 53 -22.5t22 -53.5t-22 -53t-53 -22t-52.5 22t-21.5 53t21 53.5t53 22.5zM435 924q0 31 21 53.5t53 22.5q48 2 68.5 -48t-15.5 -81q-32 -36 -81 -16t-46 69zM0 0l319 783h145l317 -783h-128l-71 184h-384l-72 -184h-126zM390 665l-148 -372h297z" />
    <glyph glyph-name="Aring" unicode="&#xc5;" horiz-adv-x="782" 
d="M198 184l-72 -184h-126l299 735q-53 41 -53 108q0 57 43 97q44 41 102 41q59 0 102 -41q43 -40 43 -97q0 -66 -52 -108l297 -735h-128l-71 184h-384zM391 908q-45 2 -63.5 -40.5t14.5 -71.5q30 -31 75 -13t42 60q0 25 -20.5 45t-47.5 20zM539 293l-149 372l-148 -372h297
z" />
    <glyph glyph-name="AE" unicode="&#xc6;" horiz-adv-x="1053" 
d="M414 783h577v-111h-374v-218h340v-111h-340v-231h378v-112h-500v184h-274l-99 -184h-134zM495 673h-11l-204 -380h215v380z" />
    <glyph glyph-name="Ccedilla" unicode="&#xc7;" horiz-adv-x="834" 
d="M692 278l112 -51q-26 -77 -105 -147q-88 -77 -218 -87q23 -38 23 -79q0 -76 -54 -116q-54 -42 -130 -42q-48 0 -77 12v80q29 -8 66 -8q48 0 76.5 23.5t28.5 68.5q0 28 -15 61q-141 17 -244 117q-50 50 -78.5 123t-28.5 156q0 174 118 289q119 116 281 116q150 0 242 -79
q85 -72 111 -156l-111 -51q-31 79 -93 125t-151 46q-107 0 -187 -80t-80 -206q0 -127 79 -207q80 -80 188 -80q81 0 149 47q69 48 98 125z" />
    <glyph glyph-name="Egrave" unicode="&#xc8;" horiz-adv-x="664" 
d="M194 1027h146l103 -172h-103zM223 454h344v-111h-344v-231h382v-112h-505v783h502v-111h-379v-218z" />
    <glyph glyph-name="Eacute" unicode="&#xc9;" horiz-adv-x="664" 
d="M396 854h-104l103 172h146zM602 672h-379v-218h344v-111h-344v-231h382v-112h-505v783h502v-111z" />
    <glyph glyph-name="Ecircumflex" unicode="&#xca;" horiz-adv-x="664" 
d="M304 1026h93l144 -172h-114l-74 92l-69 -92h-119zM223 454h344v-111h-344v-231h382v-112h-505v783h502v-111h-379v-218z" />
    <glyph glyph-name="Edieresis" unicode="&#xcb;" horiz-adv-x="663" 
d="M237 1000q31 0 53 -22.5t22 -53.5t-22 -53t-53 -22t-52.5 22t-21.5 53t21 53.5t53 22.5zM395 924q0 31 21 53.5t53 22.5q48 2 68.5 -48t-15.5 -81q-32 -36 -81 -16t-46 69zM601 672h-378v-218h344v-111h-344v-231h382v-112h-505v783h501v-111z" />
    <glyph glyph-name="Igrave" unicode="&#xcc;" horiz-adv-x="322" 
d="M-35 1027h146l102 -172h-103zM223 783v-783h-123v783h123z" />
    <glyph glyph-name="Iacute" unicode="&#xcd;" horiz-adv-x="322" 
d="M213 854h-104l103 172h146zM100 0v783h123v-783h-123z" />
    <glyph glyph-name="Icircumflex" unicode="&#xce;" horiz-adv-x="322" 
d="M112 1026h94l143 -172h-114l-73 92l-70 -92h-119zM223 783v-783h-123v783h123z" />
    <glyph glyph-name="Idieresis" unicode="&#xcf;" horiz-adv-x="322" 
d="M52 849q-32 0 -53.5 21.5t-21.5 53.5q0 31 21.5 53.5t53.5 22.5q31 0 53 -22.5t22 -53.5t-22 -53t-53 -22zM344 924q0 -32 -22 -53.5t-53 -21.5t-52.5 22t-21.5 53t21.5 53.5t52.5 22.5t53 -22.5t22 -53.5zM100 0v783h123v-783h-123z" />
    <glyph glyph-name="Eth" unicode="&#xd0;" horiz-adv-x="834" 
d="M15 454h106v329h248q174 0 278 -91q69 -59 104.5 -140.5t35.5 -160.5q0 -146 -99 -263q-49 -59 -132 -93.5t-185 -34.5h-250v343h-106v111zM417 343h-173v-229h122q148 0 224 89q68 83 68 188q0 101 -68 184q-34 43 -92.5 68.5t-130.5 25.5h-123v-215h173v-111z" />
    <glyph glyph-name="Ntilde" unicode="&#xd1;" horiz-adv-x="853" 
d="M358 922q-38 0 -39 -66h-81q-4 72 28 113.5t92 41.5q31 1 59 -17t49 -35.5t35 -16.5q37 0 39 66h82q3 -72 -29 -113.5t-92 -41.5q-30 -1 -58.5 17t-50 35.5t-34.5 16.5zM625 0l-404 603v-603h-121v783h145l386 -577v577h122v-783h-128z" />
    <glyph glyph-name="Ograve" unicode="&#xd2;" horiz-adv-x="900" 
d="M261 1027h146l102 -172h-103zM48 390q0 170 118 287t285 117q169 0 284 -115q117 -116 117 -286q0 -172 -118 -287t-286 -115t-284 113q-116 114 -116 286zM450 105q114 0 193 84q80 85 80 204q0 120 -80 203q-79 84 -193 84t-194 -84q-79 -82 -79 -203t79 -204
q80 -84 194 -84z" />
    <glyph glyph-name="Oacute" unicode="&#xd3;" horiz-adv-x="900" 
d="M500 854h-104l103 172h146zM48 390q0 170 118 287t285 117q169 0 284 -115q117 -116 117 -286q0 -172 -118 -287t-286 -115t-284 113q-116 114 -116 286zM450 105q114 0 193 84q80 85 80 204q0 120 -80 203q-79 84 -193 84t-194 -84q-79 -82 -79 -203t79 -204
q80 -84 194 -84z" />
    <glyph glyph-name="Ocircumflex" unicode="&#xd4;" horiz-adv-x="900" 
d="M400 1026h94l143 -172h-114l-73 92l-70 -92h-118zM48 390q0 170 118 287t285 117q169 0 284 -115q117 -116 117 -286q0 -172 -118 -287t-286 -115t-284 113q-116 114 -116 286zM450 105q114 0 193 84q80 85 80 204q0 120 -80 203q-79 84 -193 84t-194 -84
q-79 -82 -79 -203t79 -204q80 -84 194 -84z" />
    <glyph glyph-name="Otilde" unicode="&#xd5;" horiz-adv-x="900" 
d="M379 922q-37 0 -39 -66h-81q-4 72 28 113.5t92 41.5q31 1 59 -17t49 -35.5t35 -16.5q38 0 39 66h82q3 -72 -29 -113.5t-92 -41.5q-30 -1 -58.5 17t-50 35.5t-34.5 16.5zM48 390q0 170 118 287t285 117q169 0 284 -115q117 -116 117 -286q0 -172 -118 -287t-286 -115
t-284 113q-116 114 -116 286zM450 105q114 0 193 84q80 85 80 204q0 120 -80 203q-79 84 -193 84t-194 -84q-79 -82 -79 -203t79 -204q80 -84 194 -84z" />
    <glyph glyph-name="Odieresis" unicode="&#xd6;" horiz-adv-x="900" 
d="M336 849q-32 0 -53.5 21.5t-21.5 53.5q0 31 21.5 53.5t53.5 22.5q31 0 53 -22.5t22 -53.5t-22 -53t-53 -22zM567 849q-31 0 -52.5 22t-21.5 53t21.5 53.5t52.5 22.5t53.5 -22.5t22.5 -53.5t-22 -53t-54 -22zM48 390q0 170 118 287t285 117q169 0 284 -115
q117 -116 117 -286q0 -172 -118 -287t-286 -115t-284 113q-116 114 -116 286zM450 105q114 0 193 84q80 85 80 204q0 120 -80 203q-79 84 -193 84t-194 -84q-79 -82 -79 -203t79 -204q80 -84 194 -84z" />
    <glyph glyph-name="multiply" unicode="&#xd7;" horiz-adv-x="676" 
d="M261 344l-202 203l76 78l203 -205l203 205l76 -78l-202 -203l202 -202l-76 -79l-203 204l-203 -204l-76 79z" />
    <glyph glyph-name="Oslash" unicode="&#xd8;" horiz-adv-x="906" 
d="M791 820l68 -64l-97 -103q93 -111 93 -260q0 -172 -118 -287t-286 -115q-136 0 -242 77l-92 -94l-68 64l91 96q-89 109 -89 256q0 170 118 287q119 117 285 117q133 0 239 -77zM180 393q0 -95 48 -166l382 402q-70 51 -157 51q-115 0 -194 -84q-79 -82 -79 -203zM726 393
q0 94 -51 169l-384 -403q71 -54 162 -54q113 0 193 84q80 85 80 204z" />
    <glyph glyph-name="Ugrave" unicode="&#xd9;" horiz-adv-x="791" 
d="M210 1027h145l103 -172h-103zM577 783h123v-479q0 -144 -79 -229q-78 -85 -227 -85q-150 0 -226 85q-77 86 -77 223v485h123v-480q0 -90 50 -143.5t132 -53.5q84 0 132.5 53t48.5 140v484z" />
    <glyph glyph-name="Uacute" unicode="&#xda;" horiz-adv-x="792" 
d="M437 854h-103l103 172h145zM578 783h123v-479q0 -144 -79 -229q-78 -85 -227 -85q-151 0 -227 85q-77 86 -77 223v485h124v-480q0 -90 50 -143.5t132 -53.5q84 0 132.5 53t48.5 140v484z" />
    <glyph glyph-name="Ucircumflex" unicode="&#xdb;" horiz-adv-x="792" 
d="M347 1026h93l143 -172h-113l-74 92l-69 -92h-119zM578 783h123v-479q0 -144 -79 -229q-78 -85 -227 -85q-151 0 -227 85q-77 86 -77 223v485h124v-480q0 -90 50 -143.5t132 -53.5q84 0 132.5 53t48.5 140v484z" />
    <glyph glyph-name="Udieresis" unicode="&#xdc;" horiz-adv-x="791" 
d="M280 849q-32 0 -53.5 21.5t-21.5 53.5q0 31 21.5 53.5t53.5 22.5q31 0 52.5 -22.5t21.5 -53.5t-21.5 -53t-52.5 -22zM586 924q0 -32 -22 -53.5t-53 -21.5t-52.5 22t-21.5 53t21.5 53.5t52.5 22.5t53 -22.5t22 -53.5zM577 783h123v-479q0 -144 -79 -229q-78 -85 -227 -85
q-150 0 -226 85q-77 86 -77 223v485h123v-480q0 -90 50 -143.5t132 -53.5q84 0 132.5 53t48.5 140v484z" />
    <glyph glyph-name="Yacute" unicode="&#xdd;" horiz-adv-x="751" 
d="M418 854h-103l102 172h146zM20 783h142l215 -351l216 351h140l-295 -467v-316h-124v313z" />
    <glyph glyph-name="Thorn" unicode="&#xde;" horiz-adv-x="682" 
d="M222 784v-140h154q71 0 125.5 -20.5t86 -56t47 -77.5t15.5 -90q0 -108 -76 -178q-77 -71 -212 -71h-140v-151h-122v784h122zM222 530v-266h144q81 0 120 40t39 93q0 55 -36 94t-123 39h-144z" />
    <glyph glyph-name="germandbls" unicode="&#xdf;" horiz-adv-x="687" 
d="M654 161q0 -74 -55 -123q-54 -48 -139 -48q-144 0 -196 109l86 57q38 -66 100 -66q40 0 63.5 17t23.5 49q0 22 -23 42t-95 53q-115 52 -115 154q0 34 20.5 71t49.5 63q71 63 71 95q0 35 -29 55t-79 20q-63 0 -101 -44.5t-38 -117.5v-547h-118v547q0 134 74 202t188 68
q91 0 159 -44t68 -123q0 -40 -18.5 -72t-65.5 -78q-55 -55 -61 -67t-6 -26q0 -19 19 -32q22 -15 74 -42l14 -7q71 -37 100 -74t29 -91z" />
    <glyph glyph-name="agrave" unicode="&#xe0;" horiz-adv-x="575" 
d="M94 797h145l103 -172h-103zM385 362q0 34 -28 57t-77 23q-93 0 -133 -85l-91 52q63 136 227 136q151 0 200 -109q18 -40 18 -96v-340h-117v73q-49 -82 -157 -82q-77 0 -129 44q-51 43 -51 113v6q0 44 21 77.5t55 51t71 26t75 8.5h66q50 0 50 45zM384 216v17h-115
q-37 0 -71 -20q-32 -20 -32 -54q0 -33 23.5 -53t61.5 -20q61 0 97 35t36 95z" />
    <glyph glyph-name="aacute" unicode="&#xe1;" horiz-adv-x="575" 
d="M327 625h-103l103 172h145zM385 362q0 34 -28 57t-77 23q-93 0 -133 -85l-91 52q63 136 227 136q151 0 200 -109q18 -40 18 -96v-340h-117v73q-49 -82 -157 -82q-77 0 -129 44q-51 43 -51 113v6q0 44 21 77.5t55 51t71 26t75 8.5h66q50 0 50 45zM384 216v17h-115
q-37 0 -71 -20q-32 -20 -32 -54q0 -33 23.5 -53t61.5 -20q61 0 97 35t36 95z" />
    <glyph glyph-name="acircumflex" unicode="&#xe2;" horiz-adv-x="575" 
d="M232 797h93l144 -172h-114l-74 92l-69 -92h-118zM385 362q0 34 -28 57t-77 23q-93 0 -133 -85l-91 52q63 136 227 136q151 0 200 -109q18 -40 18 -96v-340h-117v73q-49 -82 -157 -82q-77 0 -129 44q-51 43 -51 113v6q0 44 21 77.5t55 51t71 26t75 8.5h66q50 0 50 45z
M384 216v17h-115q-37 0 -71 -20q-32 -20 -32 -54q0 -33 23.5 -53t61.5 -20q61 0 97 35t36 95z" />
    <glyph glyph-name="atilde" unicode="&#xe3;" horiz-adv-x="575" 
d="M208 693q-38 0 -39 -66h-81q-4 72 28 113.5t92 41.5q27 0 49.5 -11t35 -23.5t28 -23.5t30.5 -11q37 0 39 66h82q3 -72 -29 -113.5t-92 -41.5q-27 0 -49.5 11t-35 23.5t-28 23.5t-30.5 11zM385 362q0 34 -28 57t-77 23q-93 0 -133 -85l-91 52q63 136 227 136
q151 0 200 -109q18 -40 18 -96v-340h-117v73q-49 -82 -157 -82q-77 0 -129 44q-51 43 -51 113v6q0 44 21 77.5t55 51t71 26t75 8.5h66q50 0 50 45zM384 216v17h-115q-37 0 -71 -20q-32 -20 -32 -54q0 -33 23.5 -53t61.5 -20q61 0 97 35t36 95z" />
    <glyph glyph-name="adieresis" unicode="&#xe4;" horiz-adv-x="575" 
d="M171 621q-31 0 -52.5 22t-21.5 53q0 30 22 52.5t52 22.5q31 0 53.5 -22.5t22.5 -52.5q0 -31 -22 -53t-54 -22zM394 621q-32 0 -53.5 21.5t-21.5 53.5q0 31 21.5 53t53.5 22q30 0 52 -22.5t22 -52.5q0 -31 -21.5 -53t-52.5 -22zM385 362q0 34 -28 57t-77 23
q-93 0 -133 -85l-91 52q63 136 227 136q151 0 200 -109q18 -40 18 -96v-340h-117v73q-49 -82 -157 -82q-77 0 -129 44q-51 43 -51 113v6q0 44 21 77.5t55 51t71 26t75 8.5h66q50 0 50 45zM384 216v17h-115q-37 0 -71 -20q-32 -20 -32 -54q0 -33 23.5 -53t61.5 -20
q61 0 97 35t36 95z" />
    <glyph glyph-name="aring" unicode="&#xe5;" horiz-adv-x="575" 
d="M483 436q18 -40 18 -96v-340h-117v73q-49 -82 -157 -82q-77 0 -129 44q-51 43 -51 113v6q0 44 21 77.5t55 51t71 26t75 8.5h66q50 0 50 45q0 34 -28 57t-77 23q-93 0 -133 -85l-91 52q36 79 111 113q-30 37 -30 85q0 57 43 97q44 41 103 41t103 -41q43 -40 43 -97
q0 -49 -30 -85q58 -28 84 -86zM283 671q-46 0 -63.5 -39.5t14.5 -71.5q30 -31 75 -13t42 60q0 25 -20.5 44.5t-47.5 19.5zM384 216v17h-115q-37 0 -71 -20q-32 -20 -32 -54q0 -33 23.5 -53t61.5 -20q61 0 97 35t36 95z" />
    <glyph glyph-name="ae" unicode="&#xe6;" horiz-adv-x="951" 
d="M389 362q0 35 -28 57.5t-78 22.5q-96 0 -136 -85l-91 52q63 136 227 136q126 0 179 -77q74 77 189 77q121 0 189 -77q69 -76 69 -199q0 -28 -1 -37h-409q1 -59 50 -100q48 -39 109 -39q100 0 144 83l86 -57q-33 -61 -94 -95t-134 -34q-133 0 -215 97q-83 -96 -213 -96h-3
q-77 0 -130 44q-52 43 -52 113v6q0 44 21 77.5t55 51t71 26t75 8.5h76q44 0 44 45zM505 322h285q-3 56 -41.5 88.5t-99.5 32.5q-56 0 -96 -33t-48 -88zM387 216v17h-118q-37 0 -71 -20q-32 -20 -32 -54q0 -33 23.5 -53t61.5 -20q63 0 99.5 35t36.5 95z" />
    <glyph glyph-name="ccedilla" unicode="&#xe7;" horiz-adv-x="601" 
d="M462 198l104 -46q-22 -60 -72.5 -103.5t-124.5 -54.5q23 -38 23 -80q0 -76 -54 -116q-54 -42 -130 -42q-48 0 -77 12v80q29 -8 66 -8q48 0 76.5 23.5t28.5 68.5q0 27 -14 61q-105 12 -175 89q-69 78 -69 186q0 112 80 195q79 82 198 82q88 0 151.5 -43.5t88.5 -116.5
l-102 -46q-35 98 -137 98q-65 0 -112 -47q-45 -46 -45 -120q0 -75 45 -123t113 -48q100 0 138 99z" />
    <glyph glyph-name="egrave" unicode="&#xe8;" horiz-adv-x="615" 
d="M122 797h146l102 -172h-103zM571 232h-405q1 -59 48 -100q46 -39 108 -39q100 0 144 83l86 -57q-33 -61 -94 -95t-134 -34q-120 0 -200 79q-80 80 -80 199q0 114 77 196q77 81 192 81q122 0 191 -76t69 -200q0 -19 -2 -37zM313 443q-55 0 -94 -33t-47 -88h280
q-3 55 -42 88t-97 33z" />
    <glyph glyph-name="eacute" unicode="&#xe9;" horiz-adv-x="615" 
d="M362 625h-103l102 172h146zM571 232h-405q1 -59 48 -100q46 -39 108 -39q100 0 144 83l86 -57q-33 -61 -94 -95t-134 -34q-120 0 -200 79q-80 80 -80 199q0 114 77 196q77 81 192 81q122 0 191 -76t69 -200q0 -19 -2 -37zM313 443q-55 0 -94 -33t-47 -88h280
q-3 55 -42 88t-97 33z" />
    <glyph glyph-name="ecircumflex" unicode="&#xea;" horiz-adv-x="615" 
d="M260 797h94l143 -172h-114l-73 92l-70 -92h-118zM571 232h-405q1 -59 48 -100q46 -39 108 -39q100 0 144 83l86 -57q-33 -61 -94 -95t-134 -34q-120 0 -200 79q-80 80 -80 199q0 114 77 196q77 81 192 81q122 0 191 -76t69 -200q0 -19 -2 -37zM313 443q-55 0 -94 -33
t-47 -88h280q-3 55 -42 88t-97 33z" />
    <glyph glyph-name="edieresis" unicode="&#xeb;" horiz-adv-x="615" 
d="M200 771q31 0 53 -22.5t22 -52.5q2 -31 -22 -53t-53 -22t-53 22q-36 32 -16 81.5t69 46.5zM422 621q-32 0 -53.5 21.5t-21.5 53.5q0 31 21.5 53t53.5 22q31 0 53 -22.5t22 -52.5q0 -31 -22 -53t-53 -22zM571 232h-405q1 -59 48 -100q46 -39 108 -39q100 0 144 83l86 -57
q-33 -61 -94 -95t-134 -34q-120 0 -200 79q-80 80 -80 199q0 114 77 196q77 81 192 81q122 0 191 -76t69 -200q0 -19 -2 -37zM313 443q-55 0 -94 -33t-47 -88h280q-3 55 -42 88t-97 33z" />
    <glyph glyph-name="igrave" unicode="&#xec;" horiz-adv-x="279" 
d="M-58 793h146l102 -172h-103zM199 534v-534h-119v534h119z" />
    <glyph glyph-name="iacute" unicode="&#xed;" horiz-adv-x="279" 
d="M192 625h-104l103 172h146zM80 0v534h119v-534h-119z" />
    <glyph glyph-name="icircumflex" unicode="&#xee;" horiz-adv-x="279" 
d="M90 797h93l144 -172h-114l-74 92l-69 -92h-119zM199 534v-534h-119v534h119z" />
    <glyph glyph-name="idieresis" unicode="&#xef;" horiz-adv-x="278" 
d="M25 621q-31 0 -52.5 22t-21.5 53q0 30 22 52.5t52 22.5q31 0 53.5 -22.5t22.5 -52.5q0 -31 -22 -53t-54 -22zM248 621q-32 0 -53.5 21.5t-21.5 53.5q0 31 21.5 53t53.5 22q30 0 52 -22.5t22 -52.5q0 -31 -21.5 -53t-52.5 -22zM80 0v534h119v-534h-119z" />
    <glyph glyph-name="eth" unicode="&#xf0;" horiz-adv-x="655" 
d="M467 796l32 -73l-97 -43q201 -178 201 -382q0 -128 -78 -218q-77 -89 -207 -89q-116 0 -195 78q-79 79 -79 194q0 107 75 180q76 73 183 73q42 0 88 -19t76 -48h1q-32 88 -164 186l-149 -67l-31 73l107 46l-77 51l55 81q65 -39 126 -83zM323 97q71 0 115 47q45 48 45 116
q0 67 -47 112q-46 45 -117 45q-69 0 -112 -44.5t-43 -113.5q0 -67 45 -115q47 -47 114 -47z" />
    <glyph glyph-name="ntilde" unicode="&#xf1;" horiz-adv-x="633" 
d="M248 693q-38 0 -39 -66h-81q-4 72 28 113.5t92 41.5q27 0 49.5 -11t35 -23.5t28 -23.5t30.5 -11q37 0 39 66h82q3 -72 -29 -113.5t-92 -41.5q-27 0 -49.5 11t-35 23.5t-28 23.5t-30.5 11zM559 0h-119v299q0 62 -30 97.5t-88 35.5q-56 0 -89.5 -37t-33.5 -98v-297h-119
v534h116v-72q62 83 163 83q96 0 148 -58.5t52 -157.5v-329z" />
    <glyph glyph-name="ograve" unicode="&#xf2;" horiz-adv-x="650" 
d="M134 797h145l103 -172h-103zM326 -9q-117 0 -200 80t-83 197t83 197t201 80q114 0 197 -80t83 -195q0 -118 -82 -199q-82 -80 -199 -80zM210 149q45 -50 116 -50q72 0 115 49q44 50 44 120t-45 120q-43 49 -115 49q-71 0 -116 -49q-44 -49 -44 -118q0 -70 45 -121z" />
    <glyph glyph-name="oacute" unicode="&#xf3;" horiz-adv-x="650" 
d="M372 625h-103l102 172h146zM327 545q116 0 198 -79t82 -196q0 -118 -82 -199q-82 -80 -199 -80t-200 80t-83 197t83 197t201 80zM166 270q0 -70 45 -121q45 -50 116 -50t114 49q44 50 44 120t-45 120q-43 49 -114 49t-116 -48q-44 -49 -44 -119z" />
    <glyph glyph-name="ocircumflex" unicode="&#xf4;" horiz-adv-x="650" 
d="M276 797h93l144 -172h-114l-74 92l-69 -92h-118zM326 -9q-117 0 -200 80t-83 197t83 197t201 80q116 0 198 -79t82 -196q0 -118 -82 -199q-82 -80 -199 -80zM166 270q0 -70 45 -121q45 -50 116 -50t114 49q44 50 44 120t-45 120q-43 49 -114 49t-116 -48
q-44 -49 -44 -119z" />
    <glyph glyph-name="otilde" unicode="&#xf5;" horiz-adv-x="650" 
d="M254 693q-38 0 -39 -66h-81q-4 72 28 113.5t92 41.5q27 0 49.5 -11t35 -23.5t28 -23.5t30.5 -11q37 0 39 66h82q3 -72 -29 -113.5t-92 -41.5q-27 0 -49.5 11t-35 23.5t-28 23.5t-30.5 11zM327 545q116 0 198 -79t82 -196q0 -118 -82 -199q-82 -80 -199 -80t-200 80
t-83 197t83 197t201 80zM209 388q-44 -49 -44 -118q0 -70 45 -121q45 -50 116 -50q72 0 115 49q44 50 44 120t-45 120q-43 49 -115 49q-71 0 -116 -49z" />
    <glyph glyph-name="odieresis" unicode="&#xf6;" horiz-adv-x="650" 
d="M213 621q-31 0 -52.5 22t-21.5 53q0 30 22 52.5t52 22.5q31 0 53.5 -22.5t22.5 -52.5q0 -31 -22 -53t-54 -22zM436 621q-32 0 -53.5 21.5t-21.5 53.5q0 31 21.5 53t53.5 22q30 0 52 -22.5t22 -52.5q0 -31 -21.5 -53t-52.5 -22zM326 545q116 0 198 -79t82 -196
q0 -118 -82 -199q-82 -80 -199 -80t-200 80q-82 79 -82 197q0 117 83 197t200 80zM209 388q-44 -49 -44 -118q0 -70 45 -121q45 -50 116 -50q72 0 115 49q44 50 44 120t-45 120q-43 49 -115 49q-71 0 -116 -49z" />
    <glyph glyph-name="divide" unicode="&#xf7;" horiz-adv-x="597" 
d="M298 674q32 0 54 -22t22 -54t-22 -54t-54 -22q-31 0 -53 22.5t-22 53.5t22 53.5t53 22.5zM56 313v111h486v-111h-486zM298 216q32 0 54 -22t22 -54t-22 -54t-54 -22q-31 0 -53 22.5t-22 53.5t22 53.5t53 22.5z" />
    <glyph glyph-name="oslash" unicode="&#xf8;" horiz-adv-x="655" 
d="M550 554l60 -59l-58 -59q57 -74 57 -168q0 -119 -82 -198t-199 -79q-92 0 -163 50l-60 -60l-60 59l58 59q-57 73 -57 169q0 118 82 197q83 80 199 80q90 0 165 -51zM167 268q0 -48 19 -85l228 231q-37 22 -86 22q-71 0 -116 -49q-45 -48 -45 -119zM487 268q0 46 -18 84
l-227 -230q35 -23 85 -23q72 0 115 49q45 50 45 120z" />
    <glyph glyph-name="ugrave" unicode="&#xf9;" horiz-adv-x="633" 
d="M126 797h145l103 -172h-103zM74 534h119v-299q0 -62 30 -97.5t88 -35.5q56 0 89.5 37t33.5 98v297h119v-534h-116v72q-62 -83 -163 -83q-95 0 -147.5 59.5t-52.5 157.5v328z" />
    <glyph glyph-name="uacute" unicode="&#xfa;" horiz-adv-x="633" 
d="M356 625h-103l102 172h146zM74 534h119v-299q0 -62 30 -97.5t88 -35.5q56 0 89.5 37t33.5 98v297h119v-534h-116v72q-62 -83 -163 -83q-95 0 -147.5 59.5t-52.5 157.5v328z" />
    <glyph glyph-name="ucircumflex" unicode="&#xfb;" horiz-adv-x="633" 
d="M264 797h93l144 -172h-114l-74 92l-69 -92h-118zM74 534h119v-299q0 -62 30 -97.5t88 -35.5q56 0 89.5 37t33.5 98v297h119v-534h-116v72q-62 -83 -163 -83q-95 0 -147.5 59.5t-52.5 157.5v328z" />
    <glyph glyph-name="udieresis" unicode="&#xfc;" horiz-adv-x="633" 
d="M200 771q31 0 53 -22.5t22 -52.5q2 -31 -22 -53t-53 -22t-53 22q-36 32 -16 81.5t69 46.5zM422 621q-32 0 -53.5 21.5t-21.5 53.5q0 31 21.5 53t53.5 22q31 0 53 -22.5t22 -52.5q0 -31 -22 -53t-53 -22zM74 534h119v-299q0 -62 30 -97.5t88 -35.5q56 0 89.5 37t33.5 98
v297h119v-534h-116v72q-62 -83 -163 -83q-95 0 -147.5 59.5t-52.5 157.5v328z" />
    <glyph glyph-name="yacute" unicode="&#xfd;" horiz-adv-x="612" 
d="M356 625h-103l102 172h146zM152 534l166 -350l154 350h129l-366 -797h-128l147 323l-238 474h136z" />
    <glyph glyph-name="thorn" unicode="&#xfe;" horiz-adv-x="681" 
d="M637 269q0 -113 -75 -195t-190 -82q-40 0 -93 21q-52 22 -80 65v-341h-119v1077h116v-363q29 48 82 71q51 22 97 22q117 0 189 -84q73 -83 73 -191zM241 388q-44 -50 -44 -120t44 -120q45 -48 116 -48t115 48q45 50 45 120t-45 120q-43 49 -115 49q-71 0 -116 -49z" />
    <glyph glyph-name="ydieresis" unicode="&#xff;" horiz-adv-x="612" 
d="M200 771q31 0 53 -22.5t22 -52.5q2 -31 -22 -53t-53 -22t-53 22q-36 32 -16 81.5t69 46.5zM422 621q-32 0 -53.5 21.5t-21.5 53.5q0 31 21.5 53t53.5 22q31 0 53 -22.5t22 -52.5q0 -31 -22 -53t-53 -22zM152 534l166 -350l154 350h129l-367 -797h-127l147 323l-238 474
h136z" />
    <glyph glyph-name="Amacron" unicode="&#x100;" horiz-adv-x="783" 
d="M218 984h346v-95h-346v95zM0 0l319 783h145l317 -783h-128l-71 184h-384l-72 -184h-126zM390 665l-148 -372h297z" />
    <glyph glyph-name="amacron" unicode="&#x101;" horiz-adv-x="575" 
d="M104 730h346v-95h-346v95zM385 362q0 34 -28 57t-77 23q-93 0 -133 -85l-91 52q63 136 227 136q151 0 200 -109q18 -40 18 -96v-340h-117v73q-49 -82 -157 -82q-77 0 -129 44q-51 43 -51 113v6q0 44 21 77.5t55 51t71 26t75 8.5h66q50 0 50 45zM384 216v17h-115
q-37 0 -71 -20q-32 -20 -32 -54q0 -33 23.5 -53t61.5 -20q61 0 97 35t36 95z" />
    <glyph glyph-name="Abreve" unicode="&#x102;" horiz-adv-x="783" 
d="M392 853q-75 0 -125.5 45t-57.5 125h102q3 -41 24 -63t57 -22t57.5 22t24.5 63h100q-7 -78 -56.5 -124t-125.5 -46zM0 0l319 783h145l317 -783h-128l-71 184h-384l-72 -184h-126zM390 665l-148 -372h297z" />
    <glyph glyph-name="abreve" unicode="&#x103;" horiz-adv-x="575" 
d="M278 623q-75 0 -126 45t-58 125h103q3 -41 24 -63t57 -22q75 0 81 85h100q-6 -78 -55.5 -124t-125.5 -46zM385 362q0 34 -28 57t-77 23q-93 0 -133 -85l-91 52q63 136 227 136q151 0 200 -109q18 -40 18 -96v-340h-117v73q-49 -82 -157 -82q-77 0 -129 44q-51 43 -51 113
v6q0 44 21 77.5t55 51t71 26t75 8.5h66q50 0 50 45zM384 216v17h-115q-37 0 -71 -20q-32 -20 -32 -54q0 -33 23.5 -53t61.5 -20q61 0 97 35t36 95z" />
    <glyph glyph-name="Aogonek" unicode="&#x104;" horiz-adv-x="783" 
d="M775 -160h2v-82q-32 -2 -37 -2q-64 0 -104.5 29t-40.5 80q0 61 93 135h-35l-71 184h-384l-72 -184h-126l319 783h145l317 -783q-83 -63 -83 -106q0 -54 77 -54zM390 665l-148 -372h297z" />
    <glyph glyph-name="aogonek" unicode="&#x105;" horiz-adv-x="575" 
d="M501 340v-340q-82 -63 -82 -106q0 -54 77 -54h1v-82q-32 -2 -36 -2q-64 0 -105 29t-41 80q0 62 94 135h-25v73q-49 -82 -157 -82q-77 0 -129 44q-51 43 -51 113v6q0 44 21 77.5t55 51t71 26t75 8.5h66q50 0 50 45q0 34 -28 57t-77 23q-93 0 -133 -85l-91 52
q63 136 227 136q151 0 200 -109q18 -40 18 -96zM384 216v17h-115q-37 0 -71 -20q-32 -20 -32 -54q0 -33 23.5 -53t61.5 -20q61 0 97 35t36 95z" />
    <glyph glyph-name="Cacute" unicode="&#x106;" horiz-adv-x="834" 
d="M490 854h-104l103 172h146zM442 -9q-152 0 -271 103q-58 51 -90.5 128t-32.5 167q0 174 118 289q119 116 281 116q150 0 242 -79q85 -72 111 -156l-111 -51q-31 79 -93 125t-151 46q-107 0 -187 -80t-80 -206q0 -127 79 -207q80 -80 188 -80q81 0 149 47q69 48 98 125
l112 -51q-30 -86 -116 -156q-98 -80 -246 -80z" />
    <glyph glyph-name="cacute" unicode="&#x107;" horiz-adv-x="601" 
d="M366 625h-103l103 172h145zM322 -9q-119 0 -198 79q-80 80 -80 198q0 112 80 195q79 82 198 82q88 0 151.5 -43.5t88.5 -116.5l-102 -46q-35 98 -137 98q-65 0 -112 -47q-45 -46 -45 -120q0 -75 45 -123t113 -48q100 0 138 99l104 -46q-22 -64 -85 -113q-61 -48 -159 -48
z" />
    <glyph glyph-name="Ccircumflex" unicode="&#x108;" horiz-adv-x="834" 
d="M387 1026h94l143 -172h-113l-74 92l-70 -92h-118zM442 -9q-152 0 -271 103q-58 51 -90.5 128t-32.5 167q0 174 118 289q119 116 281 116q150 0 242 -79q85 -72 111 -156l-111 -51q-31 79 -93 125t-151 46q-107 0 -187 -80t-80 -206q0 -127 79 -207q80 -80 188 -80
q81 0 149 47q69 48 98 125l112 -51q-30 -86 -116 -156q-98 -80 -246 -80z" />
    <glyph glyph-name="ccircumflex" unicode="&#x109;" horiz-adv-x="601" 
d="M276 797h94l143 -172h-114l-73 92l-70 -92h-118zM322 -9q-119 0 -198 79q-80 80 -80 198q0 112 80 195q79 82 198 82q88 0 151.5 -43.5t88.5 -116.5l-102 -46q-35 98 -137 98q-65 0 -112 -47q-45 -46 -45 -120q0 -75 45 -123t113 -48q100 0 138 99l104 -46
q-22 -64 -85 -113q-61 -48 -159 -48z" />
    <glyph glyph-name="Cdotaccent" unicode="&#x10a;" horiz-adv-x="834" 
d="M436 849q-33 -2 -55.5 23t-22.5 56t22 56q25 23 56 23t56 -23.5t23 -55.5q0 -33 -23.5 -56t-55.5 -23zM442 -9q-152 0 -271 103q-58 51 -90.5 128t-32.5 167q0 174 118 289q119 116 281 116q150 0 242 -79q85 -72 111 -156l-111 -51q-31 79 -93 125t-151 46
q-107 0 -187 -80t-80 -206q0 -127 79 -207q80 -80 188 -80q81 0 149 47q69 48 98 125l112 -51q-30 -86 -116 -156q-98 -80 -246 -80z" />
    <glyph glyph-name="cdotaccent" unicode="&#x10b;" horiz-adv-x="601" 
d="M324 621q-33 -2 -55.5 23t-22.5 56t22 56q25 23 56 23t56 -23.5t23 -55.5q0 -33 -23.5 -56t-55.5 -23zM322 -9q-119 0 -198 79q-80 80 -80 198q0 112 80 195q79 82 198 82q88 0 151.5 -43.5t88.5 -116.5l-102 -46q-35 98 -137 98q-65 0 -112 -47q-45 -46 -45 -120
q0 -75 45 -123t113 -48q100 0 138 99l104 -46q-22 -64 -85 -113q-61 -48 -159 -48z" />
    <glyph glyph-name="Ccaron" unicode="&#x10c;" horiz-adv-x="834" 
d="M369 1027l70 -92l73 92h114l-143 -172h-94l-138 172h118zM442 -9q-152 0 -271 103q-58 51 -90.5 128t-32.5 167q0 174 118 289q119 116 281 116q150 0 242 -79q85 -72 111 -156l-111 -51q-31 79 -93 125t-151 46q-107 0 -187 -80t-80 -206q0 -127 79 -207q80 -80 188 -80
q81 0 149 47q69 48 98 125l112 -51q-30 -86 -116 -156q-98 -80 -246 -80z" />
    <glyph glyph-name="ccaron" unicode="&#x10d;" horiz-adv-x="601" 
d="M255 797l70 -92l73 92h114l-143 -172h-94l-138 172h118zM322 -9q-119 0 -198 79q-80 80 -80 198q0 112 80 195q79 82 198 82q88 0 151.5 -43.5t88.5 -116.5l-102 -46q-35 98 -137 98q-65 0 -112 -47q-45 -46 -45 -120q0 -75 45 -123t113 -48q100 0 138 99l104 -46
q-22 -64 -85 -113q-61 -48 -159 -48z" />
    <glyph glyph-name="Dcaron" unicode="&#x10e;" horiz-adv-x="815" 
d="M285 1027l69 -92l74 92h114l-144 -172h-93l-138 172h118zM768 391q0 -146 -99 -263q-49 -59 -132 -93.5t-185 -34.5h-252v783h250q174 0 278 -91q69 -59 104.5 -140.5t35.5 -160.5zM641 391q0 101 -68 184q-34 43 -92.5 68.5t-130.5 25.5h-124v-555h123q148 0 224 89
q68 83 68 188z" />
    <glyph glyph-name="dcaron" unicode="&#x10f;" horiz-adv-x="700" 
d="M757 581h-90l15 234h133zM43 268q0 109 73 192q74 84 193 84q44 0 94 -22q52 -21 79 -64v356h119v-814h-116v83q-29 -47 -83 -69q-53 -22 -96 -22q-113 0 -188 82t-75 194zM324 437q-71 0 -116 -49q-44 -50 -44 -120t44 -120q45 -48 116 -48q72 0 115 48q45 50 45 120
t-45 120q-45 49 -115 49z" />
    <glyph glyph-name="Dcroat" unicode="&#x110;" horiz-adv-x="834" 
d="M15 454h106v329h248q174 0 278 -91q69 -59 104.5 -140.5t35.5 -160.5q0 -146 -99 -263q-49 -59 -132 -93.5t-185 -34.5h-250v343h-106v111zM417 343h-173v-229h122q148 0 224 89q68 83 68 188q0 101 -68 184q-34 43 -92.5 68.5t-130.5 25.5h-123v-215h173v-111z" />
    <glyph glyph-name="dslash" unicode="&#x111;" horiz-adv-x="681" 
d="M601 0h-117v83q-27 -47 -81 -69q-53 -22 -97 -22q-113 0 -188 82t-75 194q0 109 73 192q74 84 193 84q44 0 94 -22q52 -21 79 -64v170h-167v87h167v99h119v-99h70v-87h-70v-628zM323 437q-70 0 -115 -49q-44 -50 -44 -120t44 -120q45 -48 116 -48q72 0 115 48
q45 50 45 120t-45 120q-45 49 -116 49z" />
    <glyph glyph-name="Emacron" unicode="&#x112;" horiz-adv-x="664" 
d="M179 984h347v-95h-347v95zM602 674h-379v-218h344v-111h-344v-231h382v-112h-505v783h502v-111z" />
    <glyph glyph-name="emacron" unicode="&#x113;" horiz-adv-x="615" 
d="M140 730h346v-95h-346v95zM571 232h-405q1 -59 48 -100q46 -39 108 -39q100 0 144 83l86 -57q-33 -61 -94 -95t-134 -34q-120 0 -200 79q-80 80 -80 199q0 114 77 196q77 81 192 81q122 0 191 -76t69 -200q0 -19 -2 -37zM313 443q-55 0 -94 -33t-47 -88h280q-3 55 -42 88
t-97 33z" />
    <glyph glyph-name="Edotaccent" unicode="&#x116;" horiz-adv-x="664" 
d="M357 849q-33 -2 -55.5 23t-22.5 56t22 56q25 23 56 23t56 -23.5t23 -55.5q0 -33 -23.5 -56t-55.5 -23zM602 672h-379v-218h344v-111h-344v-231h382v-112h-505v783h502v-111z" />
    <glyph glyph-name="edotaccent" unicode="&#x117;" horiz-adv-x="615" 
d="M315 621q-33 0 -56 23t-23 56q0 32 23 55.5t56 23.5t56 -23.5t23 -55.5q0 -33 -23.5 -56t-55.5 -23zM571 232h-405q1 -59 48 -100q46 -39 108 -39q100 0 144 83l86 -57q-33 -61 -94 -95t-134 -34q-120 0 -200 79q-80 80 -80 199q0 114 77 196q77 81 192 81q122 0 191 -76
t69 -200q0 -19 -2 -37zM313 443q-55 0 -94 -33t-47 -88h280q-3 55 -42 88t-97 33z" />
    <glyph glyph-name="Eogonek" unicode="&#x118;" horiz-adv-x="663" 
d="M600 -160h1v-82q-32 -2 -37 -2q-64 0 -104.5 29t-40.5 80q0 62 94 135h-413v783h501v-111h-378v-218h344v-111h-344v-231h382v-112q-83 -63 -83 -106q0 -54 78 -54z" />
    <glyph glyph-name="eogonek" unicode="&#x119;" horiz-adv-x="615" 
d="M573 269q0 -19 -2 -37h-405q1 -59 48 -100q46 -39 108 -39q100 0 144 83l86 -57q-21 -39 -66 -77l-57 -46q-43 -35 -61 -57t-18 -45q0 -54 78 -54h2v-82q-34 -2 -37 -2q-64 0 -105 29t-41 80q0 59 82 125h-5q-120 0 -200 79q-80 80 -80 199q0 114 77 196q77 81 192 81
q122 0 191 -76t69 -200zM172 322h280q-3 55 -42 88t-97 33q-55 0 -94 -33t-47 -88z" />
    <glyph glyph-name="Ecaron" unicode="&#x11a;" horiz-adv-x="664" 
d="M288 1027l69 -92l74 92h114l-144 -172h-93l-138 172h118zM602 672h-379v-218h344v-111h-344v-231h382v-112h-505v783h502v-111z" />
    <glyph glyph-name="ecaron" unicode="&#x11b;" horiz-adv-x="615" 
d="M245 797l69 -92l74 92h113l-143 -172h-93l-139 172h119zM571 232h-405q1 -59 48 -100q46 -39 108 -39q100 0 144 83l86 -57q-33 -61 -94 -95t-134 -34q-120 0 -200 79q-80 80 -80 199q0 114 77 196q77 81 192 81q122 0 191 -76t69 -200q0 -19 -2 -37zM313 443
q-55 0 -94 -33t-47 -88h280q-3 55 -42 88t-97 33z" />
    <glyph glyph-name="Gcircumflex" unicode="&#x11c;" horiz-adv-x="854" 
d="M400 1026h94l143 -172h-114l-73 92l-70 -92h-118zM800 562l-109 -50q-69 168 -245 168q-115 0 -193 -82q-77 -83 -77 -205q0 -124 76 -206q77 -83 193 -83q96 0 157 48t76 128h-281v112h414v-43q0 -153 -100 -256q-99 -102 -265 -102q-176 0 -287 113q-111 112 -111 286
q0 173 118 288q119 116 281 116q133 0 227 -68q93 -68 126 -164z" />
    <glyph glyph-name="gcircumflex" unicode="&#x11d;" horiz-adv-x="677" 
d="M271 797h93l144 -172h-114l-74 92l-69 -92h-119zM303 -4q-113 0 -187 81q-73 80 -73 192q0 106 72 190q73 84 192 84q42 0 94 -23t80 -67v81h116v-527q0 -126 -77 -200t-202 -74q-195 0 -269 162l99 57q56 -113 168 -113q72 0 117 42.5t45 120.5v84q-28 -45 -81 -68
q-51 -22 -94 -22zM480 271q0 69 -44 118q-44 48 -115 48t-115 -48q-44 -47 -44 -118q0 -70 44 -120q45 -48 115 -48q71 0 114 48q45 49 45 120z" />
    <glyph glyph-name="Gbreve" unicode="&#x11e;" horiz-adv-x="854" 
d="M450 853q-75 0 -125.5 45t-56.5 125h101q3 -41 24 -63t57 -22t57.5 22t24.5 63h100q-7 -78 -56.5 -124t-125.5 -46zM800 562l-109 -50q-69 168 -245 168q-115 0 -193 -82q-77 -83 -77 -205q0 -124 76 -206q77 -83 193 -83q96 0 157 48t76 128h-281v112h414v-43
q0 -153 -100 -256q-99 -102 -265 -102q-176 0 -287 113q-111 112 -111 286q0 173 118 288q119 116 281 116q133 0 227 -68q93 -68 126 -164z" />
    <glyph glyph-name="gbreve" unicode="&#x11f;" horiz-adv-x="677" 
d="M321 623q-75 0 -126 45t-57 125h102q3 -41 24 -63t57 -22q75 0 81 85h100q-6 -78 -55.5 -124t-125.5 -46zM303 -4q-113 0 -187 81q-73 80 -73 192q0 106 72 190q73 84 192 84q42 0 94 -23t80 -67v81h116v-527q0 -126 -77 -200t-202 -74q-195 0 -269 162l99 57
q56 -113 168 -113q72 0 117 42.5t45 120.5v84q-28 -45 -81 -68q-51 -22 -94 -22zM480 271q0 69 -44 118q-44 48 -115 48t-115 -48q-44 -47 -44 -118q0 -70 44 -120q45 -48 115 -48q71 0 114 48q45 49 45 120z" />
    <glyph glyph-name="Gdotaccent" unicode="&#x120;" horiz-adv-x="853" 
d="M448 849q-32 0 -55 23t-23 56t22.5 56t55.5 23t56 -23t23 -56t-23 -56t-56 -23zM800 562l-109 -50q-69 168 -245 168q-115 0 -193 -82q-77 -83 -77 -205q0 -124 76 -206q77 -83 193 -83q96 0 157 48t76 128h-281v112h414v-43q0 -153 -100 -256q-99 -102 -265 -102
q-176 0 -287 113q-111 112 -111 286q0 173 118 288q119 116 281 116q133 0 227 -68q93 -68 126 -164z" />
    <glyph glyph-name="gdotaccent" unicode="&#x121;" horiz-adv-x="677" 
d="M320 621q-33 -2 -55.5 23t-22.5 56t22 56q25 23 56 23t56 -23.5t23 -55.5q0 -33 -23.5 -56t-55.5 -23zM303 -4q-113 0 -187 81q-73 80 -73 192q0 106 72 190q73 84 192 84q42 0 94 -23t80 -67v81h116v-527q0 -126 -77 -200t-202 -74q-195 0 -269 162l99 57
q56 -113 168 -113q72 0 117 42.5t45 120.5v84q-28 -45 -81 -68q-51 -22 -94 -22zM480 271q0 69 -44 118q-44 48 -115 48t-115 -48q-44 -47 -44 -118q0 -70 44 -120q45 -48 115 -48q71 0 114 48q45 49 45 120z" />
    <glyph glyph-name="Gcommaaccent" unicode="&#x122;" horiz-adv-x="853" 
d="M800 562l-109 -50q-69 168 -245 168q-115 0 -193 -82q-77 -83 -77 -205q0 -124 76 -206q77 -83 193 -83q96 0 157 48t76 128h-281v112h414v-43q0 -153 -100 -256q-99 -102 -265 -102q-176 0 -287 113q-111 112 -111 286q0 173 118 288q119 116 281 116q133 0 227 -68
q93 -68 126 -164zM416 -326l-42 38q50 36 77 94q-8 -4 -23 -4q-25 0 -42.5 18t-17.5 45q0 29 19.5 48.5t49.5 19.5t51.5 -25.5t21.5 -63.5v-3q0 -47 -25.5 -92t-68.5 -75z" />
    <glyph glyph-name="gcommaaccent" unicode="&#x123;" horiz-adv-x="677" 
d="M344 875l42 -38q-51 -35 -77 -94q13 5 23 5q25 0 42.5 -18.5t17.5 -45.5q0 -29 -19.5 -48.5t-50.5 -19.5t-51.5 25t-20.5 64v4q0 47 25.5 91t68.5 75zM303 -4q-113 0 -187 81q-73 80 -73 192q0 106 72 190q73 84 192 84q42 0 94 -23t80 -67v81h116v-527q0 -126 -77 -200
t-202 -74q-195 0 -269 162l99 57q56 -113 168 -113q72 0 117 42.5t45 120.5v84q-28 -45 -81 -68q-51 -22 -94 -22zM480 271q0 69 -44 118q-44 48 -115 48t-115 -48q-44 -47 -44 -118q0 -70 44 -120q45 -48 115 -48q71 0 114 48q45 49 45 120z" />
    <glyph glyph-name="Hbar" unicode="&#x126;" horiz-adv-x="841" 
d="M104 0v577h-78v94h78v112h123v-112h387v112h123v-112h79v-94h-79v-577h-123v338h-387v-338h-123zM227 577v-122h387v122h-387z" />
    <glyph glyph-name="hbar" unicode="&#x127;" horiz-adv-x="633" 
d="M199 715h166v-87h-166v-162q61 79 160 79q96 0 148 -58.5t52 -157.5v-329h-119v299q0 62 -30 97.5t-88 35.5q-56 0 -89.5 -37t-33.5 -98v-297h-119v628h-71v87h71v99h119v-99z" />
    <glyph glyph-name="Itilde" unicode="&#x128;" horiz-adv-x="322" 
d="M89 922q-37 0 -39 -66h-81q-4 72 28 113.5t92 41.5q31 1 59 -17t49 -35.5t35 -16.5q38 0 39 66h82q3 -72 -29 -113.5t-92 -41.5q-30 -1 -58.5 17t-50 35.5t-34.5 16.5zM100 0v783h123v-783h-123z" />
    <glyph glyph-name="itilde" unicode="&#x129;" horiz-adv-x="278" 
d="M67 693q-37 0 -39 -66h-81q-4 72 28 113.5t92 41.5q27 0 49.5 -11t35 -23.5t28 -23.5t30.5 -11q38 0 39 66h82q3 -72 -29 -113.5t-92 -41.5q-27 0 -49.5 11t-35 23.5t-28 23.5t-30.5 11zM80 0v534h119v-534h-119z" />
    <glyph glyph-name="Imacron" unicode="&#x12a;" horiz-adv-x="323" 
d="M3 984h317v-95h-317v95zM100 0v783h124v-783h-124z" />
    <glyph glyph-name="imacron" unicode="&#x12b;" horiz-adv-x="278" 
d="M-17 730h312v-95h-312v95zM80 0v534h119v-534h-119z" />
    <glyph glyph-name="Ibreve" unicode="&#x12c;" horiz-adv-x="322" 
d="M162 853q-75 0 -125.5 45t-57.5 125h102q5 -85 81 -85q36 0 57 22t24 63h100q-7 -78 -56 -124t-125 -46zM100 0v783h123v-783h-123z" />
    <glyph glyph-name="ibreve" unicode="&#x12d;" horiz-adv-x="278" 
d="M140 623q-76 0 -126.5 45t-56.5 125h102q5 -85 81 -85q75 0 81 85h100q-7 -78 -56 -124t-125 -46zM80 0v534h119v-534h-119z" />
    <glyph glyph-name="Iogonek" unicode="&#x12e;" horiz-adv-x="322" 
d="M140 -106q0 -54 77 -54h2v-82q-32 -2 -37 -2q-64 0 -104.5 29t-40.5 80q0 61 93 135h-30v783h123v-783q-83 -62 -83 -106z" />
    <glyph glyph-name="iogonek" unicode="&#x12f;" horiz-adv-x="278" 
d="M194 652q-23 -23 -55 -23t-55 23t-23 55t23 55q23 24 55 24t55 -24q23 -23 23 -55t-23 -55zM80 534h119v-534q-83 -62 -83 -106q0 -54 77 -54h1v-82q-30 -2 -36 -2q-64 0 -105 29t-41 80q0 62 94 135h-26v534z" />
    <glyph glyph-name="Idot" unicode="&#x130;" horiz-adv-x="322" 
d="M161 849q-33 -2 -55.5 23t-22.5 56t22 56q25 23 56 23t56 -23.5t23 -55.5q0 -33 -23.5 -56t-55.5 -23zM100 0v783h123v-783h-123z" />
    <glyph glyph-name="dotlessi" unicode="&#x131;" horiz-adv-x="278" 
d="M80 0v534h119v-534h-119z" />
    <glyph glyph-name="IJ" unicode="&#x132;" horiz-adv-x="913" 
d="M100 0v783h123v-783h-123zM580 -9q-79 0 -139 44t-94 126l102 57q43 -112 129 -112q57 0 88 34.5t31 91.5v551h124v-551q0 -106 -68 -174q-67 -67 -173 -67z" />
    <glyph glyph-name="ij" unicode="&#x133;" horiz-adv-x="564" 
d="M84 652q-23 23 -23 55t23 55q23 24 55 24t55 -24q23 -23 23 -55t-23 -55t-55 -23t-55 23zM424 786q33 0 56.5 -23.5t23.5 -55.5t-23.5 -55t-56.5 -23q-32 0 -55 23t-23 55t23 55.5t55 23.5zM199 534v-534h-119v534h119zM365 534h120v-597q0 -202 -194 -202q-27 0 -54 8
v104q12 -4 30 -4q54 0 76 23.5t22 83.5v584z" />
    <glyph glyph-name="Kcommaaccent" unicode="&#x136;" horiz-adv-x="711" 
d="M100 783h123v-338l312 338h163l-350 -374l370 -409h-166l-329 370v-370h-123v783zM346 -326l-42 38q50 36 77 94q-8 -4 -23 -4q-25 0 -42.5 18t-17.5 45q0 29 19.5 48.5t49.5 19.5t51.5 -25.5t21.5 -63.5v-3q0 -47 -25.5 -92t-68.5 -75z" />
    <glyph glyph-name="kcommaaccent" unicode="&#x137;" horiz-adv-x="580" 
d="M80 0v814h119v-490h1l207 210h162l-241 -242l254 -292h-157l-223 261h-3v-261h-119zM277 -326l-42 38q50 36 77 94q-8 -4 -23 -4q-25 0 -42.5 18t-17.5 45q0 29 19.5 48.5t49.5 19.5t51.5 -25.5t21.5 -63.5v-3q0 -47 -25.5 -92t-68.5 -75z" />
    <glyph glyph-name="Lacute" unicode="&#x139;" horiz-adv-x="592" 
d="M219 854h-103l103 172h145zM223 114h353v-114h-476v783h123v-669z" />
    <glyph glyph-name="lacute" unicode="&#x13a;" horiz-adv-x="278" 
d="M191 883h-103l103 172h145zM80 0v814h119v-814h-119z" />
    <glyph glyph-name="Lcommaaccent" unicode="&#x13b;" horiz-adv-x="592" 
d="M223 114h353v-114h-476v783h123v-669zM308 -326l-42 38q50 36 77 94q-8 -4 -23 -4q-25 0 -42.5 18t-17.5 45q0 29 19.5 48.5t49.5 19.5t51.5 -25.5t21.5 -63.5v-3q0 -47 -25.5 -92t-68.5 -75z" />
    <glyph glyph-name="lcommaaccent" unicode="&#x13c;" horiz-adv-x="278" 
d="M80 0v814h119v-814h-119zM71 -356v47q40 5 63 29t23 59q-11 -8 -32 -8q-28 0 -46 18t-18 46q0 29 20.5 48t50.5 19q36 0 57.5 -26t21.5 -65q0 -69 -36.5 -113t-103.5 -54z" />
    <glyph glyph-name="Lcaron" unicode="&#x13d;" horiz-adv-x="606" 
d="M518 571h-90l14 234h134zM223 114h353v-114h-476v783h123v-669z" />
    <glyph glyph-name="lcaron" unicode="&#x13e;" horiz-adv-x="298" 
d="M354 581h-90l15 234h134zM80 0v814h119v-814h-119z" />
    <glyph glyph-name="Ldot" unicode="&#x13f;" horiz-adv-x="606" 
d="M223 114h353v-114h-476v783h123v-669zM419 388q0 33 23 56t55 23q33 0 56 -23t23 -56q0 -32 -23 -55t-56 -23q-32 0 -55 23t-23 55z" />
    <glyph glyph-name="ldot" unicode="&#x140;" horiz-adv-x="421" 
d="M80 0v814h119v-814h-119zM270 378q0 33 23 56.5t55 23.5t55 -23.5t23 -56.5q0 -32 -23 -55t-55 -23t-55 23t-23 55z" />
    <glyph glyph-name="Lslash" unicode="&#x141;" horiz-adv-x="619" 
d="M22 384l103 46v353h123v-298l223 100v-118l-223 -100v-253h354v-114h-477v312l-103 -46v118z" />
    <glyph glyph-name="lslash" unicode="&#x142;" horiz-adv-x="397" 
d="M142 390v424h119v-355l102 60v-121l-102 -59v-339h-119v269l-102 -60v122z" />
    <glyph glyph-name="Nacute" unicode="&#x143;" horiz-adv-x="853" 
d="M481 854h-103l103 172h145zM625 0l-404 603v-603h-121v783h145l386 -577v577h122v-783h-128z" />
    <glyph glyph-name="nacute" unicode="&#x144;" horiz-adv-x="633" 
d="M372 625h-103l103 172h145zM560 0h-120v299q0 62 -29.5 97.5t-87.5 35.5q-57 0 -90.5 -37t-33.5 -98v-297h-119v534h116v-72q63 83 163 83q96 0 148.5 -59t52.5 -157v-329z" />
    <glyph glyph-name="Ncommaaccent" unicode="&#x145;" horiz-adv-x="853" 
d="M625 0l-404 603v-603h-121v783h145l386 -577v577h122v-783h-128zM372 -356v47q39 5 62 29t24 59q-13 -8 -33 -8q-28 0 -46 18t-18 46q0 29 20.5 48t50.5 19q36 0 58 -26t22 -65q0 -69 -37 -113t-103 -54z" />
    <glyph glyph-name="ncommaaccent" unicode="&#x146;" horiz-adv-x="633" 
d="M559 0h-119v299q0 62 -30 97.5t-88 35.5q-56 0 -89.5 -37t-33.5 -98v-297h-119v534h116v-72q62 83 163 83q96 0 148 -58.5t52 -157.5v-329zM296 -326l-42 38q50 36 77 94q-8 -4 -23 -4q-25 0 -42.5 18t-17.5 45q0 29 19.5 48.5t49.5 19.5t51.5 -25.5t21.5 -63.5v-3
q0 -47 -25.5 -92t-68.5 -75z" />
    <glyph glyph-name="Ncaron" unicode="&#x147;" horiz-adv-x="853" 
d="M361 1027l69 -92l74 92h114l-144 -172h-93l-138 172h118zM625 0l-404 603v-603h-121v783h145l386 -577v577h122v-783h-128z" />
    <glyph glyph-name="ncaron" unicode="&#x148;" horiz-adv-x="633" 
d="M255 797l70 -92l73 92h114l-143 -172h-94l-138 172h118zM560 0h-120v299q0 62 -29.5 97.5t-87.5 35.5q-57 0 -90.5 -37t-33.5 -98v-297h-119v534h116v-72q63 83 163 83q96 0 148.5 -59t52.5 -157v-329z" />
    <glyph glyph-name="Eng" unicode="&#x14a;" horiz-adv-x="853" 
d="M221 603v-603h-121v783h145l387 -578v578h121v-840q0 -101 -49.5 -154.5t-144.5 -53.5q-27 0 -54 8v104q12 -4 30 -4q54 0 75.5 23.5t21.5 83.5v41z" />
    <glyph glyph-name="eng" unicode="&#x14b;" horiz-adv-x="633" 
d="M559 329v-387q0 -100 -49.5 -153.5t-144.5 -53.5q-27 0 -54 8v104q12 -4 30 -4q54 0 76.5 24t22.5 83v349q0 62 -30 97.5t-88 35.5q-56 0 -89.5 -37t-33.5 -98v-297h-119v534h116v-72q62 83 163 83q96 0 148 -58.5t52 -157.5z" />
    <glyph glyph-name="Omacron" unicode="&#x14c;" horiz-adv-x="900" 
d="M277 984h347v-95h-347v95zM48 390q0 170 118 287t285 117q169 0 284 -115q117 -116 117 -286q0 -172 -118 -287t-286 -115t-284 113q-116 114 -116 286zM450 105q114 0 193 84q80 85 80 204q0 120 -80 203q-79 84 -193 84t-194 -84q-79 -82 -79 -203t79 -204
q80 -84 194 -84z" />
    <glyph glyph-name="omacron" unicode="&#x14d;" horiz-adv-x="650" 
d="M152 730h347v-95h-347v95zM327 545q116 0 198 -79t82 -196q0 -118 -82 -199q-82 -80 -199 -80t-200 80t-83 197t83 197t201 80zM166 270q0 -70 45 -121q45 -50 116 -50t114 49q44 50 44 120t-45 120q-43 49 -114 49t-116 -48q-44 -49 -44 -119z" />
    <glyph glyph-name="Ohungarumlaut" unicode="&#x150;" horiz-adv-x="900" 
d="M404 854h-98l98 172h140zM602 854h-99l98 172h141zM48 390q0 170 118 287t285 117q169 0 284 -115q117 -116 117 -286q0 -172 -118 -287t-286 -115t-284 113q-116 114 -116 286zM450 105q114 0 193 84q80 85 80 204q0 120 -80 203q-79 84 -193 84t-194 -84
q-79 -82 -79 -203t79 -204q80 -84 194 -84z" />
    <glyph glyph-name="ohungarumlaut" unicode="&#x151;" horiz-adv-x="650" 
d="M271 625h-98l98 172h140zM468 625h-98l97 172h141zM326 545q116 0 198 -79t82 -196q0 -118 -82 -199q-82 -80 -199 -80t-200 80q-82 79 -82 197q0 117 83 197t200 80zM209 388q-44 -49 -44 -118q0 -70 45 -121q45 -50 116 -50q72 0 115 49q44 50 44 120t-45 120
q-43 49 -115 49q-71 0 -116 -49z" />
    <glyph glyph-name="OE" unicode="&#x152;" horiz-adv-x="1283" 
d="M722 0v116h-3q-45 -59 -120 -92t-157 -33q-164 0 -280 114q-114 114 -114 285q0 170 117 287t282 117q80 0 153.5 -33.5t118.5 -92.5h3v115h499v-111h-379v-218h345v-111h-345v-231h383v-112h-503zM177 392q0 -119 78 -203q79 -84 194 -84t195 84q81 84 81 203
q0 120 -81 204q-80 84 -195 84t-194 -84q-78 -82 -78 -204z" />
    <glyph glyph-name="oe" unicode="&#x153;" horiz-adv-x="1055" 
d="M1011 232h-406q1 -59 49 -100q46 -39 108 -39q100 0 144 83l86 -57q-33 -61 -94 -95t-134 -34q-138 0 -220 106q-81 -105 -219 -105q-118 0 -200 79t-82 198q0 118 82 197q83 80 200 80q65 0 122 -28t96 -77q77 105 209 105q123 0 192 -76t69 -200q0 -3 -2 -37zM753 443
q-55 0 -94.5 -33.5t-47.5 -87.5h281q-3 55 -42 88t-97 33zM325 99q70 0 115 49q45 50 45 120q0 71 -45 119q-43 49 -115 49q-71 0 -116 -49q-44 -49 -44 -119t44 -120q45 -49 116 -49z" />
    <glyph glyph-name="Racute" unicode="&#x154;" horiz-adv-x="719" 
d="M394 854h-103l102 172h146zM100 0v783h294q138 0 202 -69q65 -70 65 -172q0 -81 -43.5 -139.5t-122.5 -84.5l186 -318h-139l-170 297h-149v-297h-123zM223 669v-261h158q78 0 116.5 36.5t38.5 94.5q0 130 -155 130h-158z" />
    <glyph glyph-name="racute" unicode="&#x155;" horiz-adv-x="393" 
d="M278 625h-103l102 172h146zM372 536v-122q-15 3 -34 3q-68 0 -103.5 -38t-35.5 -108v-271h-119v534h116v-85q50 90 147 90q19 0 29 -3z" />
    <glyph glyph-name="Rcommaaccent" unicode="&#x156;" horiz-adv-x="719" 
d="M100 0v783h294q138 0 202 -69q65 -70 65 -172q0 -81 -43.5 -139.5t-122.5 -84.5l186 -318h-139l-170 297h-149v-297h-123zM223 669v-261h158q78 0 116.5 36.5t38.5 94.5q0 130 -155 130h-158zM335 -326l-42 38q50 36 77 94q-8 -4 -23 -4q-25 0 -42.5 18t-17.5 45
q0 29 19.5 48.5t49.5 19.5t51.5 -25.5t21.5 -63.5v-3q0 -47 -25.5 -92t-68.5 -75z" />
    <glyph glyph-name="rcommaaccent" unicode="&#x157;" horiz-adv-x="393" 
d="M372 536v-122q-15 3 -34 3q-68 0 -103.5 -38t-35.5 -108v-271h-119v534h116v-85q50 90 147 90q19 0 29 -3zM114 -326l-42 38q50 36 77 94q-8 -4 -23 -4q-25 0 -42.5 18t-17.5 45q0 29 19.5 48.5t49.5 19.5t51.5 -25.5t21.5 -63.5v-3q0 -47 -25.5 -92t-68.5 -75z" />
    <glyph glyph-name="Rcaron" unicode="&#x158;" horiz-adv-x="719" 
d="M284 1027l69 -92l74 92h114l-144 -172h-93l-138 172h118zM100 0v783h294q138 0 202 -69q65 -70 65 -172q0 -81 -43.5 -139.5t-122.5 -84.5l186 -318h-139l-170 297h-149v-297h-123zM223 669v-261h158q78 0 116.5 36.5t38.5 94.5q0 130 -155 130h-158z" />
    <glyph glyph-name="rcaron" unicode="&#x159;" horiz-adv-x="393" 
d="M157 797l70 -92l73 92h114l-143 -172h-94l-139 172h119zM372 536v-122q-15 3 -34 3q-68 0 -103.5 -38t-35.5 -108v-271h-119v534h116v-85q50 90 147 90q19 0 29 -3z" />
    <glyph glyph-name="Sacute" unicode="&#x15a;" horiz-adv-x="641" 
d="M374 854h-103l103 172h145zM327 -9q-103 0 -179 49t-109 139l104 54q25 -63 73.5 -96.5t112.5 -33.5q61 0 99 29.5t38 77.5q0 42 -36 70t-121 55q-128 41 -184 91q-60 52 -60 143q0 95 75 159q76 66 185 66q96 0 162 -45t95 -121l-102 -55q-45 110 -158 110
q-57 0 -94 -30t-37 -77q0 -43 35 -70t110 -50q146 -44 201 -99q56 -54 56 -140q0 -91 -72 -159q-71 -67 -194 -67z" />
    <glyph glyph-name="sacute" unicode="&#x15b;" horiz-adv-x="502" 
d="M297 625h-103l102 172h146zM253 -9q-159 0 -221 134l93 52q44 -86 128 -86q35 0 59.5 16.5t24.5 42.5q0 47 -110 70q-90 18 -133 64q-38 41 -38 97q0 72 58 118t136 46q144 0 200 -120l-92 -52q-36 72 -112 72q-29 0 -52 -15.5t-23 -36.5q0 -26 23 -41.5t76 -26.5
q185 -41 185 -168q0 -73 -56 -120q-55 -46 -146 -46z" />
    <glyph glyph-name="Scircumflex" unicode="&#x15c;" horiz-adv-x="642" 
d="M277 1026h94l143 -172h-114l-73 92l-70 -92h-118zM327 -9q-103 0 -179 49t-109 139l104 54q25 -63 73.5 -96.5t112.5 -33.5q61 0 99 29.5t38 77.5q0 42 -36 70t-121 55q-128 41 -184 91q-60 52 -60 143q0 95 75 159q76 66 185 66q96 0 162 -45t95 -121l-102 -55
q-45 110 -158 110q-57 0 -94 -30t-37 -77q0 -43 35 -70t110 -50q146 -44 201 -99q56 -54 56 -140q0 -91 -72 -159q-71 -67 -194 -67z" />
    <glyph glyph-name="scircumflex" unicode="&#x15d;" horiz-adv-x="502" 
d="M205 797h93l144 -172h-114l-74 92l-69 -92h-119zM253 -9q-159 0 -221 134l93 52q44 -86 128 -86q35 0 59.5 16.5t24.5 42.5q0 47 -110 70q-90 18 -133 64q-38 41 -38 97q0 72 58 118t136 46q144 0 200 -120l-92 -52q-36 72 -112 72q-29 0 -52 -15.5t-23 -36.5
q0 -26 23 -41.5t76 -26.5q185 -41 185 -168q0 -73 -56 -120q-55 -46 -146 -46z" />
    <glyph glyph-name="Scedilla" unicode="&#x15e;" horiz-adv-x="641" 
d="M593 217q0 -81 -59 -146q-58 -65 -162 -78q22 -34 22 -79q0 -76 -54 -116q-54 -42 -130 -42q-46 0 -77 12v80q30 -8 66 -8q48 0 76.5 23.5t28.5 68.5q0 31 -14 61q-90 8 -155.5 56.5t-95.5 129.5l104 54q25 -63 73.5 -96.5t112.5 -33.5q61 0 99 29.5t38 77.5q0 42 -36 70
t-121 55q-128 41 -184 91q-60 52 -60 143q0 95 75 159q76 66 185 66q96 0 162 -45t95 -121l-102 -55q-45 110 -158 110q-57 0 -94 -30t-37 -77q0 -43 35 -70t110 -50q146 -44 201 -99q56 -54 56 -140z" />
    <glyph glyph-name="scedilla" unicode="&#x15f;" horiz-adv-x="502" 
d="M455 157q0 -61 -41 -105t-109 -56q23 -38 23 -82q0 -76 -54 -116q-54 -42 -130 -42q-46 0 -77 12v80q30 -8 66 -8q48 0 76.5 23.5t28.5 68.5q0 33 -15 60q-136 12 -191 133l93 52q44 -86 128 -86q35 0 59.5 16.5t24.5 42.5q0 47 -110 70q-90 18 -133 64q-38 41 -38 97
q0 72 58 118t136 46q144 0 200 -120l-92 -52q-36 72 -112 72q-29 0 -52 -15.5t-23 -36.5q0 -26 23 -41.5t76 -26.5q185 -41 185 -168z" />
    <glyph glyph-name="Scaron" unicode="&#x160;" horiz-adv-x="641" 
d="M255 1027l69 -92l74 92h114l-144 -172h-93l-138 172h118zM327 -9q-103 0 -179 49t-109 139l104 54q25 -63 73.5 -96.5t112.5 -33.5q61 0 99 29.5t38 77.5q0 42 -36 70t-121 55q-128 41 -184 91q-60 52 -60 143q0 95 75 159q76 66 185 66q96 0 162 -45t95 -121l-102 -55
q-45 110 -158 110q-57 0 -94 -30t-37 -77q0 -43 35 -70t110 -50q146 -44 201 -99q56 -54 56 -140q0 -91 -72 -159q-71 -67 -194 -67z" />
    <glyph glyph-name="scaron" unicode="&#x161;" horiz-adv-x="502" 
d="M185 797l69 -92l74 92h114l-144 -172h-93l-138 172h118zM253 -9q-159 0 -221 134l93 52q44 -86 128 -86q35 0 59.5 16.5t24.5 42.5q0 47 -110 70q-90 18 -133 64q-38 41 -38 97q0 72 58 118t136 46q144 0 200 -120l-92 -52q-36 72 -112 72q-29 0 -52 -15.5t-23 -36.5
q0 -26 23 -41.5t76 -26.5q185 -41 185 -168q0 -73 -56 -120q-55 -46 -146 -46z" />
    <glyph glyph-name="uni0162" unicode="&#x162;" horiz-adv-x="660" 
d="M640 669h-249v-669q27 -38 27 -86q0 -76 -54 -116q-54 -42 -131 -42q-45 0 -76 12v80q29 -8 66 -8q48 0 76.5 23.5t28.5 68.5q0 35 -18 68h-42v669h-248v114h620v-114z" />
    <glyph glyph-name="uni0163" unicode="&#x163;" horiz-adv-x="416" 
d="M371 427h-131v-236q0 -47 22.5 -68t69.5 -21q21 0 38 4v-101q-30 -11 -64 -11h-6q23 -37 23 -80q0 -76 -54 -116q-54 -42 -130 -42q-26 0 -49 5v82q18 -3 38 -3q49 0 77 23.5t28 68.5q0 62 -47 95q-65 45 -65 145v255h-98v107h98v165h119v-165h131v-107z" />
    <glyph glyph-name="Tcaron" unicode="&#x164;" horiz-adv-x="660" 
d="M261 1027l69 -92l74 92h114l-144 -172h-93l-138 172h118zM20 669v114h621v-114h-249v-669h-123v669h-249z" />
    <glyph glyph-name="tcaron" unicode="&#x165;" horiz-adv-x="426" 
d="M406 586h-90l15 229h134zM371 427h-131v-236q0 -47 22.5 -68t69.5 -21q21 0 38 4v-101q-30 -11 -64 -11q-88 0 -136.5 46t-48.5 132v255h-98v107h98v165h119v-165h131v-107z" />
    <glyph glyph-name="Tbar" unicode="&#x166;" horiz-adv-x="672" 
d="M141 444h133v225h-248v114h620v-114h-249v-225h133v-106h-133v-338h-123v338h-133v106z" />
    <glyph glyph-name="tbar" unicode="&#x167;" horiz-adv-x="416" 
d="M371 427h-131v-92h122v-104h-122v-40q0 -47 22.5 -68t69.5 -21q21 0 38 4v-101q-30 -11 -64 -11q-88 0 -136.5 46t-48.5 132v59h-93v104h93v92h-98v107h98v165h119v-165h131v-107z" />
    <glyph glyph-name="Utilde" unicode="&#x168;" horiz-adv-x="791" 
d="M500 1012h76v-11q0 -133 -104 -133q-32 0 -76 24q-43 25 -65 25q-31 0 -33 -48h-83v11q0 134 106 134q29 0 76 -24t66 -24q33 0 37 46zM577 783h123v-479q0 -144 -79 -229q-78 -85 -227 -85q-150 0 -226 85q-77 86 -77 223v485h123v-480q0 -90 50 -143.5t132 -53.5
q84 0 132.5 53t48.5 140v484z" />
    <glyph glyph-name="utilde" unicode="&#x169;" horiz-adv-x="633" 
d="M246 693q-38 0 -39 -66h-81q-4 72 28 113.5t92 41.5q27 0 49.5 -11t35 -23.5t28 -23.5t30.5 -11q37 0 39 66h82q3 -72 -29 -113.5t-92 -41.5q-27 0 -49.5 11t-35 23.5t-28 23.5t-30.5 11zM74 534h119v-299q0 -62 30 -97.5t88 -35.5q56 0 89.5 37t33.5 98v297h119v-534
h-116v72q-62 -83 -163 -83q-95 0 -147.5 59.5t-52.5 157.5v328z" />
    <glyph glyph-name="Umacron" unicode="&#x16a;" horiz-adv-x="792" 
d="M223 984h346v-95h-346v95zM578 783h123v-479q0 -144 -79 -229t-227 -85q-151 0 -227 85q-77 86 -77 223v485h123v-480q0 -90 50.5 -143.5t132.5 -53.5q84 0 132.5 53t48.5 140v484z" />
    <glyph glyph-name="umacron" unicode="&#x16b;" horiz-adv-x="633" 
d="M141 730h346v-95h-346v95zM74 534h119v-299q0 -62 30 -97.5t88 -35.5q56 0 89.5 37t33.5 98v297h119v-534h-116v72q-62 -83 -163 -83q-95 0 -147.5 59.5t-52.5 157.5v328z" />
    <glyph glyph-name="Uring" unicode="&#x16e;" horiz-adv-x="791" 
d="M395 851q-60 0 -103 40q-42 41 -42 99q0 57 43 97q44 41 102 41q60 0 103 -41q43 -40 43 -97q0 -59 -43 -99q-41 -40 -103 -40zM396 1054q-46 0 -63.5 -40t14.5 -71q30 -31 75 -13t42 60q0 25 -20.5 44.5t-47.5 19.5zM577 783h123v-479q0 -144 -79 -229q-78 -85 -227 -85
q-150 0 -226 85q-77 86 -77 223v485h123v-480q0 -90 50 -143.5t132 -53.5q84 0 132.5 53t48.5 140v484z" />
    <glyph glyph-name="uring" unicode="&#x16f;" horiz-adv-x="633" 
d="M313 603q-59 0 -102 40t-43 99q0 57 43 97q44 41 102 41q60 0 103 -41q43 -40 43 -97q0 -59 -43 -99q-41 -40 -103 -40zM314 806q-45 2 -62.5 -40t13.5 -71q30 -31 75 -13t42 60q0 25 -20.5 44.5t-47.5 19.5zM74 534h119v-299q0 -62 30 -97.5t88 -35.5q56 0 89.5 37
t33.5 98v297h119v-534h-116v72q-62 -83 -163 -83q-95 0 -147.5 59.5t-52.5 157.5v328z" />
    <glyph glyph-name="Uhungarumlaut" unicode="&#x170;" horiz-adv-x="791" 
d="M342 854h-98l98 172h140zM540 854h-99l98 172h141zM577 783h123v-479q0 -144 -79 -229q-78 -85 -227 -85q-150 0 -226 85q-77 86 -77 223v485h123v-480q0 -90 50 -143.5t132 -53.5q84 0 132.5 53t48.5 140v484z" />
    <glyph glyph-name="uhungarumlaut" unicode="&#x171;" horiz-adv-x="633" 
d="M260 625h-98l98 172h140zM458 625h-99l98 172h141zM74 534h119v-299q0 -62 30 -97.5t88 -35.5q56 0 89.5 37t33.5 98v297h119v-534h-116v72q-62 -83 -163 -83q-95 0 -147.5 59.5t-52.5 157.5v328z" />
    <glyph glyph-name="Uogonek" unicode="&#x172;" horiz-adv-x="791" 
d="M423 -9q-2 0 -13.5 -0.5t-15.5 -0.5q-150 0 -226 85q-77 86 -77 223v485h123v-480q0 -90 50 -143.5t132 -53.5q84 0 132.5 53t48.5 140v484h123v-483q0 -164 -113 -254l-63 -50q-42 -34 -60 -56.5t-18 -45.5q0 -54 77 -54h2v-82q-32 -2 -37 -2q-63 0 -104 29.5t-41 79.5
q0 60 80 126z" />
    <glyph glyph-name="uogonek" unicode="&#x173;" horiz-adv-x="633" 
d="M547 -160h2v-82q-32 -2 -37 -2q-64 0 -105 29t-41 80q0 62 94 135h-23v72q-62 -83 -163 -83q-96 0 -148 58.5t-52 157.5v329h119v-299q0 -62 30 -97.5t88 -35.5q56 0 89.5 37t33.5 98v297h119v-534q-83 -62 -83 -106q0 -54 77 -54z" />
    <glyph glyph-name="Wcircumflex" unicode="&#x174;" horiz-adv-x="1174" 
d="M539 1026h93l143 -172h-113l-74 92l-69 -92h-119zM331 174l188 609h137l189 -609l179 609h128l-238 -783h-140l-187 612h-1l-189 -612h-138l-236 783h132z" />
    <glyph glyph-name="wcircumflex" unicode="&#x175;" horiz-adv-x="879" 
d="M391 797h93l143 -172h-113l-74 92l-69 -92h-119zM736 534h122l-171 -534h-124l-123 375h-2l-124 -375h-122l-171 534h125l112 -377h1l121 377h120l122 -378h2z" />
    <glyph glyph-name="Ycircumflex" unicode="&#x176;" horiz-adv-x="751" 
d="M327 1026h93l144 -172h-114l-74 92l-69 -92h-118zM20 783h142l214 -351l216 351h141l-296 -467v-316h-124v313z" />
    <glyph glyph-name="ycircumflex" unicode="&#x177;" horiz-adv-x="612" 
d="M262 797h93l144 -172h-114l-73 92l-70 -92h-118zM152 534l166 -350l154 350h129l-367 -797h-127l147 323l-238 474h136z" />
    <glyph glyph-name="Ydieresis" unicode="&#x178;" horiz-adv-x="751" 
d="M340 924q0 -32 -22 -53.5t-53 -21.5t-52.5 22t-21.5 53t21.5 53t52.5 22t53 -22t22 -53zM487 999q31 0 53 -22t22 -53t-22 -53t-53 -22t-52.5 22t-21.5 53t21 53t53 22zM314 0v313l-294 470h142l215 -351l216 351h140l-295 -467v-316h-124z" />
    <glyph glyph-name="Zacute" unicode="&#x179;" horiz-adv-x="666" 
d="M364 854h-103l103 172h145zM54 783h562v-105l-428 -568h437v-110h-587v106l428 567h-412v110z" />
    <glyph glyph-name="zacute" unicode="&#x17a;" horiz-adv-x="528" 
d="M315 625h-103l102 172h146zM50 534h431v-95l-293 -335h294v-104h-439v99l290 331h-283v104z" />
    <glyph glyph-name="Zdotaccent" unicode="&#x17b;" horiz-adv-x="665" 
d="M331 849q-33 -2 -56 23t-23 56t23 56q25 23 56 23t56 -23.5t23 -55.5q0 -33 -23.5 -56t-55.5 -23zM54 783h561v-105l-428 -568h437v-110h-586v106l427 567h-411v110z" />
    <glyph glyph-name="zdotaccent" unicode="&#x17c;" horiz-adv-x="529" 
d="M263 621q-33 -2 -55.5 23t-22.5 56t22 56q25 23 56 23t56 -23.5t23 -55.5q0 -33 -23.5 -56t-55.5 -23zM51 534h431v-95l-294 -335h295v-104h-440v99l290 331h-282v104z" />
    <glyph glyph-name="Zcaron" unicode="&#x17d;" horiz-adv-x="665" 
d="M262 1027l69 -92l74 92h114l-144 -172h-93l-138 172h118zM55 783h560v-105l-428 -568h437v-110h-586v106l428 567h-411v110z" />
    <glyph glyph-name="zcaron" unicode="&#x17e;" horiz-adv-x="529" 
d="M194 797l69 -92l74 92h114l-144 -172h-93l-138 172h118zM51 534h431v-95l-294 -335h295v-104h-440v99l290 331h-282v104z" />
    <glyph glyph-name="florin" unicode="&#x192;" horiz-adv-x="600" 
d="M536 680q-46 0 -78.5 -29t-41.5 -76l-8 -41h129v-105h-150l-49 -250q-7 -36 -21.5 -67t-39.5 -59.5t-67 -45t-96 -16.5q-40 0 -65 7v104q35 -5 51 -5q47 0 79.5 29t41.5 77l45 226h-108v105h129l13 64q13 73 61 126q52 62 160 62q39 0 64 -6l1 -105q-33 5 -50 5z" />
    <glyph glyph-name="uni01B5" unicode="&#x1b5;" horiz-adv-x="668" 
d="M56 451h243l168 222h-411v110h561v-105l-174 -227h174v-105h-251l-177 -236h436v-110h-585v106l180 240h-164v105z" />
    <glyph glyph-name="uni01B6" unicode="&#x1b6;" horiz-adv-x="530" 
d="M51 311h178l104 119h-282v104h431v-95l-113 -128h113v-84h-186l-108 -123h295v-104h-440v99l112 128h-104v84z" />
    <glyph glyph-name="uni01CD" unicode="&#x1cd;" horiz-adv-x="783" 
d="M322 1027l70 -92l73 92h114l-143 -172h-94l-138 172h118zM0 0l319 783h145l317 -783h-128l-71 184h-384l-72 -184h-126zM390 665l-148 -372h297z" />
    <glyph glyph-name="uni01CE" unicode="&#x1ce;" horiz-adv-x="575" 
d="M208 797l69 -92l74 92h114l-144 -172h-93l-139 172h119zM385 362q0 34 -28 57t-77 23q-93 0 -133 -85l-91 52q63 136 227 136q151 0 200 -109q18 -40 18 -96v-340h-117v73q-49 -82 -157 -82q-77 0 -129 44q-51 43 -51 113v6q0 44 21 77.5t55 51t71 26t75 8.5h66
q50 0 50 45zM384 216v17h-115q-37 0 -71 -20q-32 -20 -32 -54q0 -33 23.5 -53t61.5 -20q61 0 97 35t36 95z" />
    <glyph glyph-name="uni01CF" unicode="&#x1cf;" horiz-adv-x="323" 
d="M92 1027l69 -92l75 92h114l-144 -172h-94l-138 172h118zM100 0v783h124v-783h-124z" />
    <glyph glyph-name="uni01D0" unicode="&#x1d0;" horiz-adv-x="278" 
d="M70 797l69 -92l74 92h114l-144 -172h-93l-139 172h119zM80 0v534h119v-534h-119z" />
    <glyph glyph-name="uni01D1" unicode="&#x1d1;" horiz-adv-x="900" 
d="M381 1027l69 -92l74 92h114l-144 -172h-93l-138 172h118zM48 390q0 170 118 287t285 117q169 0 284 -115q117 -116 117 -286q0 -172 -118 -287t-286 -115t-284 113q-116 114 -116 286zM450 105q114 0 193 84q80 85 80 204q0 120 -80 203q-79 84 -193 84t-194 -84
q-79 -82 -79 -203t79 -204q80 -84 194 -84z" />
    <glyph glyph-name="uni01D2" unicode="&#x1d2;" horiz-adv-x="650" 
d="M256 797l69 -92l74 92h114l-144 -172h-93l-138 172h118zM326 545q116 0 198 -79t82 -196q0 -118 -82 -199q-82 -80 -199 -80t-200 80q-82 79 -82 197q0 117 83 197t200 80zM209 388q-44 -49 -44 -118q0 -70 45 -121q45 -50 116 -50q72 0 115 49q44 50 44 120t-45 120
q-43 49 -115 49q-71 0 -116 -49z" />
    <glyph glyph-name="uni01D3" unicode="&#x1d3;" horiz-adv-x="791" 
d="M326 1027l70 -92l73 92h114l-144 -172h-93l-138 172h118zM577 783h123v-479q0 -144 -79 -229q-78 -85 -227 -85q-150 0 -226 85q-77 86 -77 223v485h123v-480q0 -90 50 -143.5t132 -53.5q84 0 132.5 53t48.5 140v484z" />
    <glyph glyph-name="uni01D4" unicode="&#x1d4;" horiz-adv-x="633" 
d="M244 797l69 -92l74 92h114l-144 -172h-93l-138 172h118zM74 534h119v-299q0 -62 30 -97.5t88 -35.5q56 0 89.5 37t33.5 98v297h119v-534h-116v72q-62 -83 -163 -83q-95 0 -147.5 59.5t-52.5 157.5v328z" />
    <glyph glyph-name="uni01D5" unicode="&#x1d5;" horiz-adv-x="791" 
d="M222 1083h347v-95h-347v95zM280 955q31 0 53 -22t22 -53t-22 -53t-53 -22t-52.5 22t-21.5 53t21 53t53 22zM512 805q-32 0 -53.5 21.5t-21.5 53.5q0 31 21.5 53t53.5 22q31 0 52.5 -22t21.5 -53t-21.5 -53t-52.5 -22zM577 783h123v-479q0 -144 -79 -229q-78 -85 -227 -85
q-150 0 -226 85q-77 86 -77 223v485h123v-480q0 -90 50 -143.5t132 -53.5q84 0 132.5 53t48.5 140v484z" />
    <glyph glyph-name="uni01D6" unicode="&#x1d6;" horiz-adv-x="633" 
d="M140 869h347v-95h-347v95zM202 586q-31 0 -52.5 22t-21.5 53t21.5 53t52.5 22t53 -22t22 -53t-21.5 -53t-53.5 -22zM424 736q31 0 53 -22t22 -53t-22 -53t-53 -22t-52.5 22t-21.5 53t21 53t53 22zM74 534h119v-299q0 -62 30 -97.5t88 -35.5q56 0 89.5 37t33.5 98v297h119
v-534h-116v72q-62 -83 -163 -83q-95 0 -147.5 59.5t-52.5 157.5v328z" />
    <glyph glyph-name="uni01D7" unicode="&#x1d7;" horiz-adv-x="791" 
d="M445 968h-103l97 162h143zM354 880q0 -32 -22 -53.5t-53 -21.5t-52.5 22t-21.5 53t21.5 53t52.5 22t53 -22t22 -53zM511 955q31 0 53 -22t22 -53t-22 -53t-53 -22t-52.5 22t-21.5 53t21 53t53 22zM577 783h123v-479q0 -144 -79 -229q-78 -85 -227 -85q-150 0 -226 85
q-77 86 -77 223v485h123v-480q0 -90 50 -143.5t132 -53.5q84 0 132.5 53t48.5 140v484z" />
    <glyph glyph-name="uni01D8" unicode="&#x1d8;" horiz-adv-x="633" 
d="M363 759h-103l102 172h146zM202 586q-31 0 -52.5 22t-21.5 53t21.5 53t52.5 22t53 -22t22 -53t-21.5 -53t-53.5 -22zM424 736q31 0 53 -22t22 -53t-22 -53t-53 -22t-52.5 22t-21.5 53t21 53t53 22zM74 534h119v-299q0 -62 30 -97.5t88 -35.5q56 0 89.5 37t33.5 98v297
h119v-534h-116v72q-62 -83 -163 -83q-95 0 -147.5 59.5t-52.5 157.5v328z" />
    <glyph glyph-name="uni01D9" unicode="&#x1d9;" horiz-adv-x="791" 
d="M326 1131l70 -87l73 87h114l-144 -162h-93l-138 162h118zM280 955q31 0 53 -22t22 -53t-22 -53t-53 -22t-52.5 22t-21.5 53t21 53t53 22zM512 805q-32 0 -53.5 21.5t-21.5 53.5q0 31 21.5 53t53.5 22q31 0 52.5 -22t21.5 -53t-21.5 -53t-52.5 -22zM577 783h123v-479
q0 -144 -79 -229q-78 -85 -227 -85q-150 0 -226 85q-77 86 -77 223v485h123v-480q0 -90 50 -143.5t132 -53.5q84 0 132.5 53t48.5 140v484z" />
    <glyph glyph-name="uni01DA" unicode="&#x1da;" horiz-adv-x="633" 
d="M313 840l74 92h114l-144 -172h-93l-138 172h118zM200 736q31 0 53 -22t22 -53t-22 -53t-53 -22t-53 22t-22 53t21.5 53t53.5 22zM422 586q-32 0 -53.5 22t-21.5 53t21.5 53t53.5 22q31 0 53 -22t22 -53t-22 -53t-53 -22zM74 534h119v-299q0 -62 30 -97.5t88 -35.5
q56 0 89.5 37t33.5 98v297h119v-534h-116v72q-62 -83 -163 -83q-95 0 -147.5 59.5t-52.5 157.5v328z" />
    <glyph glyph-name="uni01DB" unicode="&#x1db;" horiz-adv-x="791" 
d="M213 1130h143l97 -162h-103zM354 880q0 -32 -22 -53.5t-53 -21.5t-52.5 22t-21.5 53t21.5 53t52.5 22t53 -22t22 -53zM511 955q31 0 53 -22t22 -53t-22 -53t-53 -22t-52.5 22t-21.5 53t21 53t53 22zM577 783h123v-479q0 -144 -79 -229q-78 -85 -227 -85q-150 0 -226 85
q-77 86 -77 223v485h123v-480q0 -90 50 -143.5t132 -53.5q84 0 132.5 53t48.5 140v484z" />
    <glyph glyph-name="uni01DC" unicode="&#x1dc;" horiz-adv-x="633" 
d="M123 931h146l102 -172h-103zM202 586q-31 0 -52.5 22t-21.5 53t21.5 53t52.5 22t53 -22t22 -53t-21.5 -53t-53.5 -22zM424 736q31 0 53 -22t22 -53t-22 -53t-53 -22t-52.5 22t-21.5 53t21 53t53 22zM74 534h119v-299q0 -62 30 -97.5t88 -35.5q56 0 89.5 37t33.5 98v297
h119v-534h-116v72q-62 -83 -163 -83q-95 0 -147.5 59.5t-52.5 157.5v328z" />
    <glyph glyph-name="Gcaron" unicode="&#x1e6;" horiz-adv-x="854" 
d="M380 1027l70 -92l73 92h114l-143 -172h-94l-138 172h118zM800 562l-109 -50q-69 168 -245 168q-115 0 -193 -82q-77 -83 -77 -205q0 -124 76 -206q77 -83 193 -83q96 0 157 48t76 128h-281v112h414v-43q0 -153 -100 -256q-99 -102 -265 -102q-176 0 -287 113
q-111 112 -111 286q0 173 118 288q119 116 281 116q133 0 227 -68q93 -68 126 -164z" />
    <glyph glyph-name="gcaron" unicode="&#x1e7;" horiz-adv-x="677" 
d="M251 797l69 -92l74 92h114l-144 -172h-93l-139 172h119zM303 -4q-113 0 -187 81q-73 80 -73 192q0 106 72 190q73 84 192 84q42 0 94 -23t80 -67v81h116v-527q0 -126 -77 -200t-202 -74q-195 0 -269 162l99 57q56 -113 168 -113q72 0 117 42.5t45 120.5v84
q-28 -45 -81 -68q-51 -22 -94 -22zM480 271q0 69 -44 118q-44 48 -115 48t-115 -48q-44 -47 -44 -118q0 -70 44 -120q45 -48 115 -48q71 0 114 48q45 49 45 120z" />
    <glyph glyph-name="uni01E8" unicode="&#x1e8;" horiz-adv-x="711" 
d="M306 1027l69 -92l74 92h113l-143 -172h-93l-139 172h119zM223 783v-338l313 338h162l-350 -374l371 -409h-167l-329 370v-370h-123v783h123z" />
    <glyph glyph-name="uni01E9" unicode="&#x1e9;" horiz-adv-x="581" 
d="M80 0v814h120v-490h1l207 210h162l-241 -242l254 -292h-157l-223 261h-3v-261h-120zM368 797l69 -92l74 92h114l-144 -172h-93l-138 172h118z" />
    <glyph glyph-name="uni01F4" unicode="&#x1f4;" horiz-adv-x="853" 
d="M500 854h-103l103 172h146zM800 562l-109 -50q-69 168 -245 168q-115 0 -193 -82q-77 -83 -77 -205q0 -124 76 -206q77 -83 193 -83q96 0 157 48t76 128h-281v112h414v-43q0 -153 -100 -256q-99 -102 -265 -102q-176 0 -287 113q-111 112 -111 286q0 173 118 288
q119 116 281 116q133 0 227 -68q93 -68 126 -164z" />
    <glyph glyph-name="uni01F5" unicode="&#x1f5;" horiz-adv-x="677" 
d="M368 625h-104l103 172h146zM303 -4q-113 0 -187 81q-73 80 -73 192q0 106 72 190q73 84 192 84q42 0 94 -23t80 -67v81h116v-527q0 -126 -77 -200t-202 -74q-195 0 -269 162l99 57q56 -113 168 -113q72 0 117 42.5t45 120.5v84q-28 -45 -81 -68q-51 -22 -94 -22zM480 271
q0 69 -44 118q-44 48 -115 48t-115 -48q-44 -47 -44 -118q0 -70 44 -120q45 -48 115 -48q71 0 114 48q45 49 45 120z" />
    <glyph glyph-name="Aringacute" unicode="&#x1fa;" horiz-adv-x="782" 
d="M493 1080h146l-131 -155q28 -35 28 -82q0 -66 -52 -108l297 -735h-128l-71 184h-384l-72 -184h-126l299 735q-53 41 -53 108q0 57 43 97q44 41 102 41q15 0 40 -5zM391 908q-45 2 -63.5 -40.5t14.5 -71.5q30 -31 75 -13t42 60q0 25 -20.5 45t-47.5 20zM242 293h297
l-149 372z" />
    <glyph glyph-name="aringacute" unicode="&#x1fb;" horiz-adv-x="575" 
d="M398 522q59 -28 85 -86q18 -40 18 -96v-340h-117v73q-49 -82 -157 -82q-77 0 -129 44q-51 43 -51 113v6q0 44 21 77.5t55 51t71 26t75 8.5h66q50 0 50 45q0 34 -28 57t-77 23q-93 0 -133 -85l-91 52q37 78 112 113q-31 37 -31 85q0 57 43 97q44 41 103 41q22 0 43 -6
l59 100h146l-129 -152q27 -37 27 -80q0 -50 -31 -85zM283 671q-46 0 -63.5 -39.5t14.5 -71.5q30 -31 75 -13t42 60q0 25 -20.5 44.5t-47.5 19.5zM384 216v17h-115q-37 0 -71 -20q-32 -20 -32 -54q0 -33 23.5 -53t61.5 -20q61 0 97 35t36 95z" />
    <glyph glyph-name="AEacute" unicode="&#x1fc;" horiz-adv-x="1053" 
d="M625 854h-103l103 172h145zM414 783h577v-111h-374v-218h340v-111h-340v-231h378v-112h-500v184h-274l-99 -184h-134zM495 673h-11l-204 -380h215v380z" />
    <glyph glyph-name="aeacute" unicode="&#x1fd;" horiz-adv-x="951" 
d="M521 625h-103l103 172h146zM909 269q0 -28 -1 -37h-409q1 -59 50 -100q49 -39 110 -39q111 0 140 89l102 -30q-22 -75 -91 -119q-67 -43 -150 -43q-133 0 -215 97q-83 -96 -213 -96h-3q-77 0 -130 44q-52 43 -52 113v6q0 44 21 77.5t55 51t71 26t75 8.5h76q44 0 44 45
q0 35 -28.5 58t-77.5 23q-50 0 -83 -24.5t-39 -63.5l-106 24q5 38 38 80q35 44 86 66q45 20 107 20q123 0 176 -77q74 77 189 77q121 0 189 -77q69 -76 69 -199zM505 322h285q-3 56 -41.5 88.5t-99.5 32.5q-56 0 -96 -33t-48 -88zM387 216v17h-118q-37 0 -71 -20
q-32 -20 -32 -54q0 -33 23.5 -53t61.5 -20q63 0 99.5 35t36.5 95z" />
    <glyph glyph-name="Oslashacute" unicode="&#x1fe;" horiz-adv-x="906" 
d="M503 854h-103l103 172h145zM791 820l68 -64l-97 -103q93 -111 93 -260q0 -172 -118 -287t-286 -115q-136 0 -242 77l-92 -94l-68 64l91 96q-89 109 -89 256q0 170 118 287q119 117 285 117q133 0 239 -77zM180 393q0 -95 48 -166l382 402q-70 51 -157 51q-115 0 -194 -84
q-79 -82 -79 -203zM726 393q0 94 -51 169l-384 -403q71 -54 162 -54q113 0 193 84q80 85 80 204z" />
    <glyph glyph-name="oslashacute" unicode="&#x1ff;" horiz-adv-x="655" 
d="M373 625h-103l102 172h146zM550 554l60 -59l-58 -59q57 -74 57 -168q0 -119 -82 -198t-199 -79q-92 0 -163 50l-60 -60l-60 59l58 59q-57 73 -57 169q0 118 82 197q83 80 199 80q90 0 165 -51zM167 268q0 -48 19 -85l228 231q-37 22 -86 22q-71 0 -116 -49
q-45 -48 -45 -119zM487 268q0 46 -18 84l-227 -230q35 -23 85 -23q72 0 115 49q45 50 45 120z" />
    <glyph glyph-name="Scommaaccent" unicode="&#x218;" horiz-adv-x="641" 
d="M327 -9q-103 0 -179 49t-109 139l104 54q25 -63 73.5 -96.5t112.5 -33.5q61 0 99 29.5t38 77.5q0 42 -36 70t-121 55q-128 41 -184 91q-60 52 -60 143q0 95 75 159q76 66 185 66q96 0 162 -45t95 -121l-102 -55q-45 110 -158 110q-57 0 -94 -30t-37 -77q0 -43 35 -70
t110 -50q146 -44 201 -99q56 -54 56 -140q0 -91 -72 -159q-71 -67 -194 -67zM303 -326l-42 38q50 36 77 94q-8 -4 -23 -4q-25 0 -42.5 18t-17.5 45q0 29 19.5 48.5t49.5 19.5t51.5 -25.5t21.5 -63.5v-3q0 -47 -25.5 -92t-68.5 -75z" />
    <glyph glyph-name="scommaaccent" unicode="&#x219;" horiz-adv-x="503" 
d="M253 -9q-159 0 -221 134l93 52q44 -86 128 -86q35 0 59.5 16.5t24.5 42.5q0 47 -110 70q-90 18 -133 64q-38 41 -38 97q0 72 58 118t136 46q144 0 200 -120l-92 -52q-36 72 -112 72q-29 0 -52 -15.5t-23 -36.5q0 -26 23 -41.5t76 -26.5q185 -41 185 -168q0 -73 -56 -120
q-55 -46 -146 -46zM228 -326l-42 38q50 36 77 94q-8 -4 -23 -4q-25 0 -42.5 18t-17.5 45q0 29 19.5 48.5t49.5 19.5t51.5 -25.5t21.5 -63.5v-3q0 -47 -25.5 -92t-68.5 -75z" />
    <glyph glyph-name="uni021A" unicode="&#x21a;" horiz-adv-x="660" 
d="M20 669v114h620v-114h-249v-669h-123v669h-248zM302 -326l-42 38q50 36 77 94q-8 -4 -23 -4q-25 0 -42.5 18t-17.5 45q0 29 19.5 48.5t49.5 19.5t51.5 -25.5t21.5 -63.5v-3q0 -47 -25.5 -92t-68.5 -75z" />
    <glyph glyph-name="uni021B" unicode="&#x21b;" horiz-adv-x="416" 
d="M371 427h-131v-236q0 -47 22.5 -68t69.5 -21q21 0 38 4v-101q-30 -11 -64 -11q-88 0 -136.5 46t-48.5 132v255h-98v107h98v165h119v-165h131v-107zM206 -326l-42 38q50 36 77 94q-8 -4 -23 -4q-25 0 -42.5 18t-17.5 45q0 29 19.5 48.5t49.5 19.5t51.5 -25.5t21.5 -63.5
v-3q0 -47 -25.5 -92t-68.5 -75z" />
    <glyph glyph-name="uni0237" unicode="&#x237;" horiz-adv-x="286" 
d="M87 534h120v-597q0 -202 -194 -202q-27 0 -54 8v104q12 -4 30 -4q54 0 76 23.5t22 83.5v584z" />
    <glyph glyph-name="circumflex" unicode="&#x2c6;" horiz-adv-x="415" 
d="M159 797h93l143 -172h-113l-74 92l-69 -92h-119z" />
    <glyph glyph-name="breve" unicode="&#x2d8;" horiz-adv-x="404" 
d="M202 623q-75 0 -125 45t-57 125h101q3 -41 24 -63t57 -22t57.5 22t24.5 63h100q-7 -79 -56 -124.5t-126 -45.5z" />
    <glyph glyph-name="dotaccent" unicode="&#x2d9;" horiz-adv-x="198" 
d="M99 621q-33 -2 -56 23t-23 56t23 56q25 23 56 23t56 -23.5t23 -55.5q0 -33 -23.5 -56t-55.5 -23z" />
    <glyph glyph-name="tilde" unicode="&#x2dc;" horiz-adv-x="400" 
d="M128 693q-38 0 -39 -66h-81q-4 72 28 113.5t92 41.5q27 0 49.5 -11t35 -23.5t28 -23.5t30.5 -11q37 0 39 66h82q3 -72 -29 -113.5t-92 -41.5q-27 0 -49.5 11t-35 23.5t-28 23.5t-30.5 11z" />
    <glyph glyph-name="hungarumlaut" unicode="&#x2dd;" horiz-adv-x="476" 
d="M118 625h-98l98 172h141zM316 625h-99l98 172h141z" />
    <glyph glyph-name="gravecomb" unicode="&#x300;" horiz-adv-x="0" 
d="M-124 797h145l103 -172h-103z" />
    <glyph glyph-name="acutecomb" unicode="&#x301;" horiz-adv-x="0" 
d="M-21 625h-103l103 172h145z" />
    <glyph glyph-name="uni0302" unicode="&#x302;" horiz-adv-x="0" 
d="M-49 797h93l143 -172h-113l-74 92l-69 -92h-119z" />
    <glyph glyph-name="tildecomb" unicode="&#x303;" horiz-adv-x="0" 
d="M-72 693q-38 0 -39 -66h-81q-4 72 28 113.5t92 41.5q27 0 49.5 -11t35 -23.5t28 -23.5t30.5 -11q37 0 39 66h82q3 -72 -29 -113.5t-92 -41.5q-27 0 -49.5 11t-35 23.5t-28 23.5t-30.5 11z" />
    <glyph glyph-name="uni0304" unicode="&#x304;" horiz-adv-x="0" 
d="M-173 730h346v-95h-346v95z" />
    <glyph glyph-name="uni0306" unicode="&#x306;" horiz-adv-x="0" 
d="M0 623q-75 0 -125 45t-57 125h101q3 -41 24 -63t57 -22t57.5 22t24.5 63h100q-7 -79 -56 -124.5t-126 -45.5z" />
    <glyph glyph-name="uni0307" unicode="&#x307;" horiz-adv-x="0" 
d="M0 621q-33 -2 -56 23t-23 56t23 56q25 23 56 23t56 -23.5t23 -55.5q0 -33 -23.5 -56t-55.5 -23z" />
    <glyph glyph-name="uni0308" unicode="&#x308;" horiz-adv-x="0" 
d="M-111 771q31 0 53 -22.5t22 -52.5q2 -31 -22 -53t-53 -22t-53 22q-36 32 -16 81.5t69 46.5zM36 696q0 31 21.5 53t53.5 22q31 0 53 -22.5t22 -52.5q0 -31 -22 -53t-53 -22t-53 21.5t-22 53.5z" />
    <glyph glyph-name="uni030A" unicode="&#x30a;" horiz-adv-x="0" 
d="M-146 742q0 56 44 97t102 41q59 0 103 -41q43 -40 43 -97q0 -59 -43 -99t-103 -40t-103 40t-43 99zM0 806q-46 0 -63.5 -40t14.5 -71q30 -31 75 -13t42 60q0 25 -20.5 44.5t-47.5 19.5z" />
    <glyph glyph-name="uni030B" unicode="&#x30b;" horiz-adv-x="0" 
d="M-120 625h-98l98 172h141zM78 625h-99l98 172h141z" />
    <glyph glyph-name="uni030C" unicode="&#x30c;" horiz-adv-x="0" 
d="M-69 797l69 -92l74 92h113l-143 -172h-93l-139 172h119z" />
    <glyph glyph-name="uni0312" unicode="&#x312;" horiz-adv-x="0" 
d="M22 875l42 -38q-51 -35 -77 -94q13 5 23 5q25 0 42.5 -18.5t17.5 -45.5q0 -29 -19.5 -48.5t-50.5 -19.5t-51.5 25t-20.5 64v4q0 47 25.5 91t68.5 75z" />
    <glyph glyph-name="uni0326" unicode="&#x326;" horiz-adv-x="0" 
d="M-22 -326l-42 38q50 36 77 94q-8 -4 -23 -4q-25 0 -42.5 18t-17.5 45q0 29 19.5 48.5t49.5 19.5t51.5 -25.5t21.5 -63.5v-3q0 -47 -25.5 -92t-68.5 -75z" />
    <glyph glyph-name="uni0327" unicode="&#x327;" horiz-adv-x="0" 
d="M22 0h82q26 -38 26 -86q0 -76 -54 -116q-53 -42 -130 -42q-48 0 -76 12v80q29 -8 66 -8q48 0 76.5 23.5t28.5 68.5q0 37 -19 68z" />
    <glyph glyph-name="uni0328" unicode="&#x328;" horiz-adv-x="0" 
d="M0 0h93q-83 -63 -83 -106q0 -54 77 -54h2v-82q-32 -2 -37 -2q-64 0 -104.5 29t-40.5 80q0 61 93 135z" />
    <glyph glyph-name="Theta" unicode="&#x398;" horiz-adv-x="900" 
d="M48 390q0 170 118 287t285 117q169 0 284 -115q117 -116 117 -286q0 -172 -118 -287t-286 -115t-284 113q-116 114 -116 286zM450 105q114 0 193 84q80 85 80 204q0 120 -80 203q-79 84 -193 84q-116 0 -195 -84q-79 -82 -79 -203t79 -204q79 -84 195 -84zM242 454h416
v-111h-416v111z" />
    <glyph glyph-name="uni03A9" unicode="&#x3a9;" horiz-adv-x="875" 
d="M187 431q0 -92 55 -159q55 -65 148 -85v-187h-328v106h217v24q-99 41 -160 123t-61 184q0 156 112 256q113 101 268 101q156 0 268 -101q111 -101 111 -255q0 -102 -62 -185q-61 -83 -159 -123v-24h216v-106h-327v187q92 20 147 85q56 68 56 159q0 107 -72 177
q-72 72 -179 72q-106 0 -178 -72q-72 -70 -72 -177z" />
    <glyph glyph-name="theta" unicode="&#x3b8;" horiz-adv-x="726" 
d="M362 -9q-140 -1 -228.5 120.5t-85.5 291.5q0 171 87 293q87 121 229 121t228 -120q86 -121 86 -292t-87 -293q-87 -121 -229 -121zM171 458h385q-11 107 -60 179t-134 72q-84 0 -133 -72q-49 -70 -58 -179zM557 354h-387q9 -108 59 -182q49 -73 135 -73q85 0 135 74
q51 75 58 181z" />
    <glyph glyph-name="pi" unicode="&#x3c0;" horiz-adv-x="710" 
d="M660 428h-116v-256q0 -20 3.5 -33t19 -24.5t43.5 -11.5q17 0 50 5v-101q-39 -12 -86 -12q-75 0 -112 41.5t-37 113.5v278h-170v-428h-118v428h-116v106h639v-106z" />
    <glyph glyph-name="uni0401" unicode="&#x401;" horiz-adv-x="663" 
d="M237 1000q31 0 53 -22.5t22 -53.5t-22 -53t-53 -22t-52.5 22t-21.5 53t21 53.5t53 22.5zM395 924q0 31 21 53.5t53 22.5q48 2 68.5 -48t-15.5 -81q-32 -36 -81 -16t-46 69zM601 672h-378v-218h344v-111h-344v-231h382v-112h-505v783h501v-111z" />
    <glyph glyph-name="uni0402" unicode="&#x402;" horiz-adv-x="842" 
d="M551 -12q-45 0 -90 12v118q29 -10 62 -10q75 0 119 36.5t44 108.5q0 66 -43 102t-120 36q-117 0 -199 -74v-317h-123v670h-180v113h623v-113h-320v-232q109 74 227 74q119 0 189 -70q72 -69 72 -188q0 -127 -70 -196.5t-191 -69.5z" />
    <glyph glyph-name="uni0403" unicode="&#x403;" horiz-adv-x="591" 
d="M370 854h-103l103 172h145zM571 783v-114h-348v-669h-123v783h471z" />
    <glyph glyph-name="uni0404" unicode="&#x404;" horiz-adv-x="834" 
d="M442 -9q-152 0 -271 103q-58 51 -90.5 128t-32.5 167q0 174 118 289q119 116 281 116q150 0 242 -79q85 -71 111 -155l-110 -51q-30 79 -93 125t-152 46q-94 0 -169 -63q-75 -61 -93 -164h342v-109h-344q15 -108 91 -173q77 -66 173 -66q81 0 149 47q69 48 99 125
l111 -51q-31 -86 -116 -155q-98 -80 -246 -80z" />
    <glyph glyph-name="uni0405" unicode="&#x405;" horiz-adv-x="641" 
d="M327 -9q-103 0 -179 49t-109 139l104 54q25 -63 73.5 -96.5t112.5 -33.5q61 0 99 29.5t38 77.5q0 42 -36 70t-121 55q-128 41 -184 91q-60 52 -60 143q0 95 75 159q76 66 185 66q96 0 162 -45t95 -121l-102 -55q-45 110 -158 110q-57 0 -94 -30t-37 -77q0 -43 35 -70
t110 -50q146 -44 201 -99q56 -54 56 -140q0 -91 -72 -159q-71 -67 -194 -67z" />
    <glyph glyph-name="uni0406" unicode="&#x406;" horiz-adv-x="322" 
d="M100 0v783h123v-783h-123z" />
    <glyph glyph-name="uni0407" unicode="&#x407;" horiz-adv-x="322" 
d="M52 849q-32 0 -53.5 21.5t-21.5 53.5q0 31 21.5 53.5t53.5 22.5q31 0 53 -22.5t22 -53.5t-22 -53t-53 -22zM344 924q0 -32 -22 -53.5t-53 -21.5t-52.5 22t-21.5 53t21.5 53.5t52.5 22.5t53 -22.5t22 -53.5zM100 0v783h123v-783h-123z" />
    <glyph glyph-name="uni0408" unicode="&#x408;" horiz-adv-x="591" 
d="M258 -9q-79 0 -139 44t-94 126l102 57q43 -112 129 -112q57 0 88 34.5t31 91.5v551h124v-551q0 -106 -68 -174q-67 -67 -173 -67z" />
    <glyph glyph-name="uni0409" unicode="&#x409;" horiz-adv-x="1223" 
d="M607 671h-276l-41 -370l-6 -44q-1 -16 -11 -53q-6 -27 -19 -59q-27 -69 -76 -104q-60 -45 -147 -44l-9 1v110q125 0 149 224l50 451h509v-305h183q54 0 101.5 -12.5t88.5 -39t65 -73.5t24 -109q0 -104 -72 -175q-70 -69 -208 -69h-305v671zM730 369v-257h178
q162 0 162 133q0 57 -41 90.5t-123 33.5h-176z" />
    <glyph glyph-name="uni040A" unicode="&#x40a;" horiz-adv-x="1226" 
d="M732 783v-316h188q53 0 99.5 -12t87 -37.5t64.5 -71.5t24 -108q0 -105 -70 -172q-71 -66 -209 -66h-307v356h-387v-356h-122v783h122v-316h387v316h123zM732 359v-247h184q157 0 157 129q0 57 -41 87.5t-119 30.5h-181z" />
    <glyph glyph-name="uni040B" unicode="&#x40b;" horiz-adv-x="862" 
d="M812 0h-123v224q0 79 -40.5 121.5t-120.5 42.5q-119 0 -204 -77v-311h-122v670h-181v113h623v-113h-320v-235q109 73 227 73q119 0 189 -64q72 -63 72 -178v-266z" />
    <glyph glyph-name="uni040C" unicode="&#x40c;" horiz-adv-x="711" 
d="M422 854h-103l103 172h145zM100 783h123v-338l312 338h163l-350 -374l370 -409h-166l-329 370v-370h-123v783z" />
    <glyph glyph-name="uni040E" unicode="&#x40e;" horiz-adv-x="708" 
d="M363 851q-72 0 -122.5 42.5t-59.5 121.5l81 15q15 -47 37.5 -69t63.5 -22q40 0 63 22.5t38 68.5l80 -15q-11 -80 -59.5 -122t-121.5 -42zM4 783h137l234 -436l208 436h133l-308 -624q-42 -88 -96.5 -128t-128.5 -40q-94 0 -166 51l66 98q50 -36 95 -36q54 0 87 41
q20 24 46 78z" />
    <glyph glyph-name="uni040F" unicode="&#x40f;" horiz-adv-x="827" 
d="M352 -165v165h-252v783h123v-671h381v671h124v-783h-253v-165h-123z" />
    <glyph glyph-name="uni0410" unicode="&#x410;" horiz-adv-x="783" 
d="M0 0l319 783h145l317 -783h-128l-71 184h-384l-72 -184h-126zM390 665l-148 -372h297z" />
    <glyph glyph-name="uni0411" unicode="&#x411;" horiz-adv-x="727" 
d="M223 671v-203h183q54 0 102 -12t89 -37.5t65 -72t24 -108.5q0 -104 -71 -172q-71 -66 -213 -66h-302v783h537v-112h-414zM223 359v-247h167q89 0 131 31.5t42 97.5q0 118 -163 118h-177z" />
    <glyph glyph-name="uni0412" unicode="&#x412;" horiz-adv-x="734" 
d="M100 0v783h299q115 0 183 -55q69 -56 69 -151q0 -24 -8 -54q-9 -31 -37.5 -64.5t-67.5 -50.5q80 -25 115 -79q34 -52 34 -110q0 -101 -72.5 -160t-205.5 -59h-309zM222 672v-220h154q73 0 112.5 30.5t39.5 81.5t-36 79.5t-109 28.5h-161zM222 344v-233h189q73 0 113 32
t40 86q0 53 -41 84t-120 31h-181z" />
    <glyph glyph-name="uni0413" unicode="&#x413;" horiz-adv-x="591" 
d="M571 783v-114h-348v-669h-123v783h471z" />
    <glyph glyph-name="uni0414" unicode="&#x414;" horiz-adv-x="824" 
d="M654 -165v165h-516v-165h-123v276h4q40 0 72.5 28t51.5 74q35 85 43 156l49 414h459v-672h83v-276h-123zM571 673h-226l-37 -311q-9 -70 -36 -141q-25 -67 -70 -109h369v561z" />
    <glyph glyph-name="uni0415" unicode="&#x415;" horiz-adv-x="663" 
d="M601 672h-378v-218h344v-111h-344v-231h382v-112h-505v783h501v-111z" />
    <glyph glyph-name="uni0416" unicode="&#x416;" horiz-adv-x="1056" 
d="M891 783h154l-315 -383l325 -400h-157l-303 380h-6v-380h-123v380h-5l-304 -380h-156l324 400l-315 383h155l297 -367h4v367h123v-367h5z" />
    <glyph glyph-name="uni0417" unicode="&#x417;" horiz-adv-x="644" 
d="M591 220q0 -97 -80 -163q-79 -66 -200 -66q-205 0 -276 177l106 52q53 -117 172 -117q64 0 108 35q43 36 43 84q0 50 -42 85q-41 36 -107 36h-104v111h97q63 0 101 34q40 34 40 83q0 50 -37 80.5t-104 30.5q-107 0 -155 -114l-107 49q28 81 97 129t167 48q123 0 193 -61
q71 -60 71 -149q0 -122 -118 -179v-1q135 -52 135 -184z" />
    <glyph glyph-name="uni0418" unicode="&#x418;" horiz-adv-x="848" 
d="M232 0h-132v783h121v-587l382 587h145v-783h-122v608z" />
    <glyph glyph-name="uni0419" unicode="&#x419;" horiz-adv-x="848" 
d="M425 851q-73 0 -123 42.5t-59 121.5l81 15q15 -47 37.5 -69t63.5 -22q40 0 63 22.5t38 68.5l80 -15q-11 -80 -59.5 -122t-121.5 -42zM232 0h-132v783h121v-587l382 587h145v-783h-122v608z" />
    <glyph glyph-name="uni041A" unicode="&#x41a;" horiz-adv-x="711" 
d="M100 783h123v-338l312 338h163l-350 -374l370 -409h-166l-329 370v-370h-123v783z" />
    <glyph glyph-name="uni041B" unicode="&#x41b;" horiz-adv-x="835" 
d="M613 671h-282l-41 -370q-13 -125 -64 -209q-57 -95 -190 -95q-11 0 -14 1v110q62 0 99 53q16 24 26 55q16 47 24 116l50 451h515v-783h-123v671z" />
    <glyph glyph-name="uni041C" unicode="&#x41c;" horiz-adv-x="1045" 
d="M823 0v571h-2l-254 -571h-91l-253 568h-2v-568h-121v783h157l265 -599h1l261 599h161v-783h-122z" />
    <glyph glyph-name="uni041D" unicode="&#x41d;" horiz-adv-x="833" 
d="M100 0v783h123v-328h387v328h123v-783h-123v338h-387v-338h-123z" />
    <glyph glyph-name="uni041E" unicode="&#x41e;" horiz-adv-x="900" 
d="M48 390q0 170 118 287t285 117q169 0 284 -115q117 -116 117 -286q0 -172 -118 -287t-286 -115t-284 113q-116 114 -116 286zM450 105q114 0 193 84q80 85 80 204q0 120 -80 203q-79 84 -193 84t-194 -84q-79 -82 -79 -203t79 -204q80 -84 194 -84z" />
    <glyph glyph-name="uni041F" unicode="&#x41f;" horiz-adv-x="824" 
d="M100 0v783h625v-783h-123v671h-379v-671h-123z" />
    <glyph glyph-name="uni0420" unicode="&#x420;" horiz-adv-x="682" 
d="M651 540q0 -107 -77 -179q-77 -71 -212 -71h-139v-290h-123v783h277q137 0 205 -71q69 -70 69 -172zM366 669h-143v-266h143q78 0 119 38t41 96q0 55 -37 93q-36 39 -123 39z" />
    <glyph glyph-name="uni0421" unicode="&#x421;" horiz-adv-x="834" 
d="M442 -9q-152 0 -271 103q-58 51 -90.5 128t-32.5 167q0 174 118 289q119 116 281 116q150 0 242 -79q85 -72 111 -156l-111 -51q-31 79 -93 125t-151 46q-107 0 -187 -80t-80 -206q0 -127 79 -207q80 -80 188 -80q81 0 149 47q69 48 98 125l112 -51q-30 -86 -116 -156
q-98 -80 -246 -80z" />
    <glyph glyph-name="uni0422" unicode="&#x422;" horiz-adv-x="659" 
d="M19 669v114h621v-114h-249v-669h-123v669h-249z" />
    <glyph glyph-name="uni0423" unicode="&#x423;" horiz-adv-x="708" 
d="M4 783h137l234 -436l208 436h133l-308 -624q-42 -88 -96.5 -128t-128.5 -40q-94 0 -166 51l66 98q50 -36 95 -36q54 0 87 41q20 24 46 78z" />
    <glyph glyph-name="uni0424" unicode="&#x424;" horiz-adv-x="971" 
d="M424 808h123v-73q166 0 274 -90q108 -89 108 -246q0 -154 -106 -245q-107 -92 -276 -92v-86h-123v86q-170 0 -276 93t-106 246q0 155 108 244q108 90 274 90v73zM168 399q0 -97 63 -161t193 -64v449q-126 0 -191 -65t-65 -159zM803 399q0 94 -65 159t-191 65v-449
q130 0 193 64t63 161z" />
    <glyph glyph-name="uni0425" unicode="&#x425;" horiz-adv-x="732" 
d="M2 0l291 403l-274 380h148l200 -285l201 285h145l-272 -379l288 -404h-146l-218 308l-219 -308h-144z" />
    <glyph glyph-name="uni0426" unicode="&#x426;" horiz-adv-x="856" 
d="M100 0v783h123v-671h381v671h124v-671h82v-277h-123v165h-587z" />
    <glyph glyph-name="uni0427" unicode="&#x427;" horiz-adv-x="761" 
d="M661 0h-123v320q-133 -67 -225 -67q-123 0 -190 65.5t-67 185.5v279h123v-245q0 -84 37.5 -126.5t121.5 -42.5q51 0 105.5 19.5t94.5 46.5v348h123v-783z" />
    <glyph glyph-name="uni0428" unicode="&#x428;" horiz-adv-x="1217" 
d="M547 112v671h123v-671h325v671h123v-783h-1018v783h122v-671h325z" />
    <glyph glyph-name="uni0429" unicode="&#x429;" horiz-adv-x="1248" 
d="M547 113v670h123v-670h325v670h124v-670h82v-278h-123v165h-978v783h122v-670h325z" />
    <glyph glyph-name="uni042A" unicode="&#x42a;" horiz-adv-x="811" 
d="M316 783v-305h184q54 0 101.5 -12.5t88.5 -39t65 -73.5t24 -109q0 -104 -72 -175q-71 -69 -209 -69h-304v671h-176v112h298zM316 369v-257h179q162 0 162 133q0 57 -40.5 90.5t-122.5 33.5h-178z" />
    <glyph glyph-name="uni042B" unicode="&#x42b;" horiz-adv-x="1007" 
d="M685 244q0 -104 -72 -175q-71 -69 -209 -69h-304v783h122v-305h183q111 0 190 -52q90 -56 90 -182zM778 0v783h130v-783h-130zM563 245q0 57 -41 90.5t-123 33.5h-177v-257h178q85 0 124 36t39 97z" />
    <glyph glyph-name="uni042C" unicode="&#x42c;" horiz-adv-x="716" 
d="M685 244q0 -104 -72 -175q-71 -69 -209 -69h-304v783h122v-305h183q111 0 190 -52q90 -56 90 -182zM563 245q0 57 -41 90.5t-123 33.5h-177v-257h178q85 0 124 36t39 97z" />
    <glyph glyph-name="uni042D" unicode="&#x42d;" horiz-adv-x="834" 
d="M394 794q159 0 272 -104q56 -50 88 -126.5t32 -167.5q0 -174 -117 -290q-116 -115 -280 -115q-73 0 -136.5 21.5t-106.5 57t-71 75.5t-41 81l112 52q29 -78 92 -124.5t153 -46.5q95 0 171 65q75 64 90 172h-343v109h341q-18 103 -91 164q-71 61 -168 61q-81 0 -149 -47
q-67 -46 -99 -125l-113 52q38 98 131 166q94 70 233 70z" />
    <glyph glyph-name="uni042E" unicode="&#x42e;" horiz-adv-x="1160" 
d="M223 783v-333h116q19 148 127 247q107 97 259 97q167 0 276 -115q110 -115 110 -286q0 -173 -112 -288q-111 -114 -277 -114q-152 0 -259 96q-106 97 -124 249h-116v-336h-123v783h123zM466 393q0 -117 72 -203q73 -85 185 -85q114 0 186 83q73 83 73 205q0 118 -74 203
q-74 84 -185 84t-185 -84q-72 -84 -72 -203z" />
    <glyph glyph-name="uni042F" unicode="&#x42f;" horiz-adv-x="719" 
d="M175 0h-135l173 322q-75 27 -114.5 85t-39.5 137q0 100 65 170q64 69 201 69h295v-783h-123v297h-164zM497 408v261h-158q-155 0 -155 -132q0 -56 39 -92.5t116 -36.5h158z" />
    <glyph glyph-name="uni0430" unicode="&#x430;" horiz-adv-x="575" 
d="M385 362q0 34 -28 57t-77 23q-93 0 -133 -85l-91 52q63 136 227 136q151 0 200 -109q18 -40 18 -96v-340h-117v73q-49 -82 -157 -82q-77 0 -129 44q-51 43 -51 113v6q0 44 21 77.5t55 51t71 26t75 8.5h66q50 0 50 45zM384 216v17h-115q-37 0 -71 -20q-32 -20 -32 -54
q0 -33 23.5 -53t61.5 -20q61 0 97 35t36 95z" />
    <glyph glyph-name="uni0431" unicode="&#x431;" horiz-adv-x="663" 
d="M565 805l21 -100l-188 -41q-141 -30 -188 -92q-41 -55 -48 -144l4 -1q25 43 80 77t120 34q102 0 177 -76q76 -76 76 -190q0 -126 -78 -204q-79 -77 -199 -77q-126 0 -203 81q-77 82 -77 240q0 36 2 84q6 97 30 159q32 83 92 129q72 57 191 82zM184 270q0 -76 45 -124
q47 -47 113 -47q68 0 112 47q45 48 45 124q0 77 -47 122t-110 45q-62 0 -111 -47q-47 -47 -47 -120z" />
    <glyph glyph-name="uni0432" unicode="&#x432;" horiz-adv-x="609" 
d="M80 0v534h283q80 0 129 -35.5t49 -98.5q0 -83 -86 -121q45 -8 76 -45q32 -38 32 -89q0 -74 -57 -110q-58 -35 -138 -35h-288zM197 438v-123h140q59 -1 76 41q15 36 -12 63q-22 22 -61 19h-143zM197 229v-131h154q42 0 66 17.5t24 50.5q0 30 -26 46.5t-69 16.5h-149z" />
    <glyph glyph-name="uni0433" unicode="&#x433;" horiz-adv-x="475" 
d="M455 534v-107h-256v-427h-119v534h375z" />
    <glyph glyph-name="uni0434" unicode="&#x434;" horiz-adv-x="694" 
d="M27 -165v270h2q37 0 66 32q44 49 57 146l31 251h397v-427h68v-272h-117v165h-387v-165h-117zM460 427h-171l-20 -155q-15 -114 -79 -165h270v320z" />
    <glyph glyph-name="uni0435" unicode="&#x435;" horiz-adv-x="615" 
d="M571 232h-405q1 -59 48 -100q46 -39 108 -39q100 0 144 83l86 -57q-33 -61 -94 -95t-134 -34q-120 0 -200 79q-80 80 -80 199q0 114 77 196q77 81 192 81q122 0 191 -76t69 -200q0 -19 -2 -37zM313 443q-55 0 -94 -33t-47 -88h280q-3 55 -42 88t-97 33z" />
    <glyph glyph-name="uni0436" unicode="&#x436;" horiz-adv-x="871" 
d="M702 534h152l-220 -260l226 -274h-152l-208 259h-5v-259h-119v259h-5l-207 -259h-153l226 274l-220 260h152l201 -246h6v246h119v-246h6z" />
    <glyph glyph-name="uni0437" unicode="&#x437;" horiz-adv-x="513" 
d="M257 -11q-79 0 -138 35t-89 101l95 51q38 -83 129 -83q39 0 64.5 19t25.5 47q0 66 -89 66h-69v90h68q39 0 60 17.5t21 47.5q0 27 -22.5 44.5t-60.5 17.5q-85 0 -125 -85l-93 50q31 66 89 102t134 36q90 0 144 -42t54 -111q0 -37 -21 -67t-60 -46v-1q91 -36 91 -126
q0 -75 -57 -119t-151 -44z" />
    <glyph glyph-name="uni0438" unicode="&#x438;" horiz-adv-x="644" 
d="M80 0v534h116v-357l253 357h115v-534h-116v356l-253 -356h-115z" />
    <glyph glyph-name="uni0439" unicode="&#x439;" horiz-adv-x="644" 
d="M141 786l80 15q15 -47 38 -69t64 -22q40 0 63 22.5t38 68.5l79 -15q-11 -80 -59.5 -122t-120.5 -42q-73 0 -123 42.5t-59 121.5zM80 0v534h116v-357l253 357h115v-534h-116v356l-253 -356h-115z" />
    <glyph glyph-name="uni043A" unicode="&#x43a;" horiz-adv-x="586" 
d="M80 534h119v-225h5l212 225h158l-244 -256l261 -278h-161l-226 247h-5v-247h-119v534z" />
    <glyph glyph-name="uni043B" unicode="&#x43b;" horiz-adv-x="654" 
d="M455 427h-181l-26 -217q-12 -90 -51 -146q-49 -69 -166 -69h-3v107q88 0 103 124l37 308h407v-534h-120v427z" />
    <glyph glyph-name="uni043C" unicode="&#x43c;" horiz-adv-x="810" 
d="M80 534h168l158 -383l155 383h169v-534h-117v401l-163 -401h-88l-166 399v-399h-116v534z" />
    <glyph glyph-name="uni043D" unicode="&#x43d;" horiz-adv-x="640" 
d="M80 0v534h119v-212h242v212h119v-534h-119v218h-242v-218h-119z" />
    <glyph glyph-name="uni043E" unicode="&#x43e;" horiz-adv-x="650" 
d="M326 545q116 0 198 -79t82 -196q0 -118 -82 -199q-82 -80 -199 -80t-200 80q-82 79 -82 197q0 117 83 197t200 80zM209 388q-44 -49 -44 -118q0 -70 45 -121q45 -50 116 -50q72 0 115 49q44 50 44 120t-45 120q-43 49 -115 49q-71 0 -116 -49z" />
    <glyph glyph-name="uni043F" unicode="&#x43f;" horiz-adv-x="636" 
d="M80 0v534h476v-534h-119v427h-238v-427h-119z" />
    <glyph glyph-name="uni0440" unicode="&#x440;" horiz-adv-x="681" 
d="M637 269q0 -113 -75 -195t-190 -82q-40 0 -93 21q-52 22 -80 65v-341h-119v797h116v-83q29 48 82 71q51 22 97 22q117 0 189 -84q73 -83 73 -191zM241 388q-44 -50 -44 -120t44 -120q45 -48 116 -48t115 48q45 50 45 120t-45 120q-43 49 -115 49q-71 0 -116 -49z" />
    <glyph glyph-name="uni0441" unicode="&#x441;" horiz-adv-x="601" 
d="M322 -9q-119 0 -198 79q-80 80 -80 198q0 112 80 195q79 82 198 82q88 0 151.5 -43.5t88.5 -116.5l-102 -46q-35 98 -137 98q-65 0 -112 -47q-45 -46 -45 -120q0 -75 45 -123t113 -48q100 0 138 99l104 -46q-22 -64 -85 -113q-61 -48 -159 -48z" />
    <glyph glyph-name="uni0442" unicode="&#x442;" horiz-adv-x="509" 
d="M21 427v107h467v-107h-174v-427h-120v427h-173z" />
    <glyph glyph-name="uni0443" unicode="&#x443;" horiz-adv-x="612" 
d="M152 534l166 -350l154 350h129l-367 -797h-127l147 323l-238 474h136z" />
    <glyph glyph-name="uni0444" unicode="&#x444;" horiz-adv-x="887" 
d="M503 -244h-119v285q-52 -46 -121 -46q-105 0 -161 78q-55 77 -55 195q0 115 56 194q57 79 161 79q34 0 68 -14.5t52 -34.5v291h119v-291q18 20 52 34.5t68 14.5q105 0 160 -79q56 -79 56 -195q0 -117 -55 -194q-54 -78 -160 -78q-69 0 -121 46v-285zM297 437
q-62 0 -95.5 -46.5t-33.5 -125.5q0 -168 129 -168q46 0 87 35v268q-40 37 -87 37zM591 437q-48 0 -88 -37v-268q41 -35 87 -35q129 0 129 170q0 78 -33 124t-95 46z" />
    <glyph glyph-name="uni0445" unicode="&#x445;" horiz-adv-x="570" 
d="M14 0l203 270l-196 264h137l128 -177l129 177h134l-195 -262l202 -272h-137l-135 186l-134 -186h-136z" />
    <glyph glyph-name="uni0446" unicode="&#x446;" horiz-adv-x="670" 
d="M80 0v534h119v-427h238v427h119v-427h68v-271h-117v164h-427z" />
    <glyph glyph-name="uni0447" unicode="&#x447;" horiz-adv-x="590" 
d="M511 0h-120v193q-88 -41 -154 -41q-87 0 -139 45.5t-52 130.5v206h120v-187q0 -41 24.5 -64.5t66.5 -23.5q69 0 134 38v237h120v-534z" />
    <glyph glyph-name="uni0448" unicode="&#x448;" horiz-adv-x="927" 
d="M404 107v427h118v-427h206v427h120v-534h-768v534h119v-427h205z" />
    <glyph glyph-name="uni0449" unicode="&#x449;" horiz-adv-x="961" 
d="M404 107v427h118v-427h206v427h119v-427h69v-272h-113v165h-723v534h119v-427h205z" />
    <glyph glyph-name="uni044A" unicode="&#x44a;" horiz-adv-x="684" 
d="M654 184q0 -85 -55 -134.5t-155 -49.5h-268v428h-155v106h274v-176h141q101 0 159.5 -44.5t58.5 -129.5zM534 185q0 39 -29 59.5t-78 20.5h-132v-165h134q49 0 77 21.5t28 63.5z" />
    <glyph glyph-name="uni044B" unicode="&#x44b;" horiz-adv-x="866" 
d="M557 184q0 -85 -54.5 -134.5t-154.5 -49.5h-268v534h119v-176h140q101 0 159.5 -44.5t58.5 -129.5zM667 0v534h119v-534h-119zM437 185q0 39 -29 59.5t-78 20.5h-131v-165h133q105 0 105 85z" />
    <glyph glyph-name="uni044C" unicode="&#x44c;" horiz-adv-x="587" 
d="M557 184q0 -85 -54.5 -134.5t-154.5 -49.5h-268v534h119v-176h140q101 0 159.5 -44.5t58.5 -129.5zM437 185q0 39 -29 59.5t-78 20.5h-131v-165h133q105 0 105 85z" />
    <glyph glyph-name="uni044D" unicode="&#x44d;" horiz-adv-x="601" 
d="M285 545q121 0 196 -79q76 -79 76 -195q0 -121 -78 -201q-76 -79 -199 -79q-96 0 -160 47q-63 49 -85 112l102 45q38 -98 142 -98q60 0 101.5 36.5t52.5 96.5h-208v92h205q-13 53 -53 85t-94 32q-104 0 -144 -97l-100 44q25 71 91.5 115t154.5 44z" />
    <glyph glyph-name="uni044E" unicode="&#x44e;" horiz-adv-x="872" 
d="M198 534v-216h91q16 97 91 163q73 64 177 64q117 0 193 -79q77 -80 77 -198t-78 -198q-76 -79 -195 -79q-102 0 -175 63q-72 63 -89 164h-92v-218h-118v534h118zM406 268q0 -71 41 -121q42 -48 110 -48t108.5 47.5t40.5 121.5q0 70 -42 120q-40 49 -109 49
q-68 0 -108.5 -47.5t-40.5 -121.5z" />
    <glyph glyph-name="uni044F" unicode="&#x44f;" horiz-adv-x="614" 
d="M175 0h-142l150 197q-128 41 -128 163q0 78 55 126t156 48h268v-534h-119v176h-110zM415 271v163h-136q-44 0 -74 -19.5t-30 -60.5q0 -37 27 -60t79 -23h134z" />
    <glyph glyph-name="uni0451" unicode="&#x451;" horiz-adv-x="615" 
d="M200 771q31 0 53 -22.5t22 -52.5q2 -31 -22 -53t-53 -22t-53 22q-36 32 -16 81.5t69 46.5zM422 621q-32 0 -53.5 21.5t-21.5 53.5q0 31 21.5 53t53.5 22q31 0 53 -22.5t22 -52.5q0 -31 -22 -53t-53 -22zM571 232h-405q1 -59 48 -100q46 -39 108 -39q100 0 144 83l86 -57
q-33 -61 -94 -95t-134 -34q-120 0 -200 79q-80 80 -80 199q0 114 77 196q77 81 192 81q122 0 191 -76t69 -200q0 -19 -2 -37zM313 443q-55 0 -94 -33t-47 -88h280q-3 55 -42 88t-97 33z" />
    <glyph glyph-name="uni0452" unicode="&#x452;" horiz-adv-x="619" 
d="M561 329v-363q0 -112 -55 -171t-160 -59q-28 0 -60 9v100q17 -5 37 -5q64 0 91 29t27 100v330q0 62 -30 97.5t-88 35.5q-56 0 -90 -38t-34 -98v-296h-119v628h-71v87h71v99h119v-99h166v-87h-166v-163q63 80 161 80q96 0 148.5 -59t52.5 -157z" />
    <glyph glyph-name="uni0453" unicode="&#x453;" horiz-adv-x="475" 
d="M305 625h-103l103 172h145zM456 534v-107h-257v-427h-119v534h376z" />
    <glyph glyph-name="uni0454" unicode="&#x454;" horiz-adv-x="600" 
d="M464 195l101 -45q-22 -63 -85 -112q-62 -47 -158 -47q-119 0 -198 79q-80 80 -80 198q0 112 80 195q79 82 198 82q88 0 152 -43t88 -116l-100 -44q-37 97 -139 97q-55 0 -97 -32t-55 -85h205v-92h-208q11 -59 54 -96t102 -37q99 0 140 98z" />
    <glyph glyph-name="uni0455" unicode="&#x455;" horiz-adv-x="502" 
d="M253 -9q-159 0 -221 134l93 52q44 -86 128 -86q35 0 59.5 16.5t24.5 42.5q0 47 -110 70q-90 18 -133 64q-38 41 -38 97q0 72 58 118t136 46q144 0 200 -120l-92 -52q-36 72 -112 72q-29 0 -52 -15.5t-23 -36.5q0 -26 23 -41.5t76 -26.5q185 -41 185 -168q0 -73 -56 -120
q-55 -46 -146 -46z" />
    <glyph glyph-name="uni0456" unicode="&#x456;" horiz-adv-x="278" 
d="M84 652q-23 23 -23 55t23 55q23 24 55 24t55 -24q23 -23 23 -55t-23 -55t-55 -23t-55 23zM199 534v-534h-119v534h119z" />
    <glyph glyph-name="uni0457" unicode="&#x457;" horiz-adv-x="278" 
d="M25 621q-31 0 -52.5 22t-21.5 53q0 30 22 52.5t52 22.5q31 0 53.5 -22.5t22.5 -52.5q0 -31 -22 -53t-54 -22zM248 621q-32 0 -53.5 21.5t-21.5 53.5q0 31 21.5 53t53.5 22q30 0 52 -22.5t22 -52.5q0 -31 -21.5 -53t-52.5 -22zM80 0v534h119v-534h-119z" />
    <glyph glyph-name="uni0458" unicode="&#x458;" horiz-adv-x="286" 
d="M146 786q33 0 56.5 -23.5t23.5 -55.5t-23.5 -55t-56.5 -23q-32 0 -55 23t-23 55t23 55.5t55 23.5zM87 534h120v-597q0 -202 -194 -202q-27 0 -54 8v104q12 -4 30 -4q54 0 76 23.5t22 83.5v584z" />
    <glyph glyph-name="uni0459" unicode="&#x459;" horiz-adv-x="962" 
d="M933 184q0 -85 -55 -134.5t-155 -49.5h-268v427h-182l-26 -217q-10 -87 -50 -145q-49 -70 -166 -70h-3v107q87 0 102 124l37 308h407v-176h140q101 0 160 -44.5t59 -129.5zM813 185q0 39 -29 59.5t-78 20.5h-132v-165h134q49 0 77 21.5t28 63.5z" />
    <glyph glyph-name="uni045A" unicode="&#x45a;" horiz-adv-x="947" 
d="M199 0h-119v534h119v-185h241v185h119v-185h140q102 0 160 -42.5t58 -127.5q0 -83 -54.5 -131t-154.5 -48h-268v255h-241v-255zM559 257v-157h133q106 0 106 82q0 75 -108 75h-131z" />
    <glyph glyph-name="uni045B" unicode="&#x45b;" horiz-adv-x="633" 
d="M199 715h166v-87h-166v-162q61 79 160 79q96 0 148 -58.5t52 -157.5v-329h-119v299q0 62 -30 97.5t-88 35.5q-56 0 -89.5 -37t-33.5 -98v-297h-119v628h-71v87h71v99h119v-99z" />
    <glyph glyph-name="uni045C" unicode="&#x45c;" horiz-adv-x="586" 
d="M348 625h-103l102 172h146zM204 309l212 225h158l-244 -256l261 -278h-161l-226 247h-5v-247h-119v534h119v-225h5z" />
    <glyph glyph-name="uni045E" unicode="&#x45e;" horiz-adv-x="612" 
d="M314 622q-72 0 -122.5 42.5t-59.5 121.5l80 15q16 -47 38.5 -69t63.5 -22q40 0 63 22.5t38 68.5l80 -15q-11 -79 -60 -121.5t-121 -42.5zM152 534l166 -350l154 350h129l-367 -797h-127l147 323l-238 474h136z" />
    <glyph glyph-name="uni045F" unicode="&#x45f;" horiz-adv-x="636" 
d="M80 0v534h119v-427h238v427h119v-534h-179v-164h-116v164h-181z" />
    <glyph glyph-name="uni0490" unicode="&#x490;" horiz-adv-x="591" 
d="M100 783h349v162h123v-276h-349v-669h-123v783z" />
    <glyph glyph-name="uni0491" unicode="&#x491;" horiz-adv-x="475" 
d="M344 534v159h111v-266h-257v-427h-118v534h264z" />
    <glyph glyph-name="uni0496" unicode="&#x496;" horiz-adv-x="1077" 
d="M932 0h-34l-303 380h-6v-380h-123v380h-5l-304 -380h-156l324 400l-315 383h155l297 -367h4v367h123v-367h5l297 367h154l-315 -383l233 -287h92v-278h-123v165z" />
    <glyph glyph-name="uni0497" unicode="&#x497;" horiz-adv-x="892" 
d="M748 0h-40l-208 259h-5v-259h-119v259h-5l-207 -259h-153l226 274l-220 260h152l201 -246h6v246h119v-246h6l201 246h152l-220 -260l138 -167h89v-272h-113v165z" />
    <glyph glyph-name="uni0498" unicode="&#x498;" horiz-adv-x="644" 
d="M591 220q0 -85 -61 -146q-62 -62 -160 -78v-161h-122v161q-155 26 -213 172l106 52q53 -117 172 -117q64 0 108 35q43 36 43 84q0 50 -42 85q-41 36 -107 36h-104v111h97q63 0 101 34q40 34 40 83q0 50 -37 80.5t-104 30.5q-107 0 -155 -114l-107 49q28 81 97 129t167 48
q123 0 193 -61q71 -60 71 -149q0 -122 -118 -179v-1q135 -52 135 -184z" />
    <glyph glyph-name="uni0499" unicode="&#x499;" horiz-adv-x="513" 
d="M465 152q0 -62 -41 -104t-111 -54v-159h-112v159q-123 22 -171 131l95 51q38 -83 129 -83q39 0 64.5 19t25.5 47q0 66 -89 66h-69v90h68q39 0 60 17.5t21 47.5q0 27 -22.5 44.5t-60.5 17.5q-85 0 -125 -85l-93 50q31 66 89 102t134 36q90 0 144 -42t54 -111
q0 -37 -21 -67t-60 -46v-1q91 -36 91 -126z" />
    <glyph glyph-name="uni049A" unicode="&#x49a;" horiz-adv-x="735" 
d="M596 0h-44l-329 370v-370h-123v783h123v-338l312 338h163l-350 -374l268 -296h103v-278h-123v165z" />
    <glyph glyph-name="uni049B" unicode="&#x49b;" horiz-adv-x="609" 
d="M479 0h-49l-226 247h-5v-247h-119v534h119v-225h5l212 225h158l-244 -256l161 -171h100v-272h-112v165z" />
    <glyph glyph-name="uni04A2" unicode="&#x4a2;" horiz-adv-x="863" 
d="M693 0h-83v338h-387v-338h-123v783h123v-328h387v328h123v-670h83v-278h-123v165z" />
    <glyph glyph-name="uni04A3" unicode="&#x4a3;" horiz-adv-x="674" 
d="M516 0h-75v218h-242v-218h-119v534h119v-212h242v212h119v-427h68v-272h-113z" />
    <glyph glyph-name="uni04AA" unicode="&#x4aa;" horiz-adv-x="834" 
d="M692 278l112 -51q-16 -49 -55 -97q-37 -46 -105 -87q-67 -39 -149 -49v-159h-123v162q-136 24 -231 128q-93 105 -93 264q0 174 118 289q119 116 281 116q150 0 242 -79q85 -72 111 -156l-111 -51q-31 79 -93 125t-151 46q-107 0 -187 -80t-80 -206q0 -127 79 -207
q80 -80 188 -80q81 0 149 47q69 48 98 125z" />
    <glyph glyph-name="uni04AB" unicode="&#x4ab;" horiz-adv-x="601" 
d="M462 198l104 -46q-20 -58 -69 -101t-120 -55v-161h-113v162q-98 20 -159 94t-61 177q0 112 80 195q79 82 198 82q88 0 151.5 -43.5t88.5 -116.5l-102 -46q-35 98 -137 98q-65 0 -112 -47q-45 -46 -45 -120q0 -75 45 -123t113 -48q100 0 138 99z" />
    <glyph glyph-name="uni04AC" unicode="&#x4ac;" horiz-adv-x="663" 
d="M350 0h-82v669h-249v114h621v-114h-249v-556h82v-278h-123v165z" />
    <glyph glyph-name="uni04AD" unicode="&#x4ad;" horiz-adv-x="514" 
d="M270 0h-76v427h-173v107h467v-107h-174v-320h68v-272h-112v165z" />
    <glyph glyph-name="uni04B2" unicode="&#x4b2;" horiz-adv-x="752" 
d="M607 0h-24l-218 308l-219 -308h-144l291 403l-274 380h148l200 -285l201 285h145l-272 -379l208 -291h80v-278h-122v165z" />
    <glyph glyph-name="uni04B3" unicode="&#x4b3;" horiz-adv-x="589" 
d="M443 0h-24l-135 186l-134 -186h-136l203 270l-196 264h137l128 -177l129 177h134l-195 -262l122 -165h80v-272h-113v165z" />
    <glyph glyph-name="uni04B6" unicode="&#x4b6;" horiz-adv-x="792" 
d="M622 0h-84v320q-133 -67 -225 -67q-123 0 -190 65.5t-67 185.5v279h123v-245q0 -84 37.5 -126.5t121.5 -42.5q51 0 105.5 19.5t94.5 46.5v348h125v-671h82v-277h-123v165z" />
    <glyph glyph-name="uni04B7" unicode="&#x4b7;" horiz-adv-x="625" 
d="M466 0h-75v193q-88 -41 -154 -41q-87 0 -139 45.5t-52 130.5v206h120v-187q0 -41 24.5 -64.5t66.5 -23.5q69 0 134 38v237h120v-427h68v-272h-113v165z" />
    <glyph glyph-name="uni04C0" unicode="&#x4c0;" horiz-adv-x="322" 
d="M100 0v783h123v-783h-123z" />
    <glyph glyph-name="uni04C1" unicode="&#x4c1;" horiz-adv-x="1056" 
d="M527 851q-72 0 -122.5 42.5t-59.5 121.5l81 15q15 -47 37.5 -69t63.5 -22q40 0 63 22.5t38 68.5l80 -15q-11 -80 -59.5 -122t-121.5 -42zM891 783h154l-315 -383l325 -400h-157l-303 380h-6v-380h-123v380h-5l-304 -380h-156l324 400l-315 383h155l297 -367h4v367h123
v-367h5z" />
    <glyph glyph-name="uni04C2" unicode="&#x4c2;" horiz-adv-x="871" 
d="M254 786l81 15q15 -47 38 -69t64 -22q40 0 62.5 22t38.5 69l79 -15q-11 -80 -59.5 -122t-120.5 -42q-73 0 -123.5 42.5t-59.5 121.5zM702 534h152l-220 -260l226 -274h-152l-208 259h-5v-259h-119v259h-5l-207 -259h-153l226 274l-220 260h152l201 -246h6v246h119v-246h6
z" />
    <glyph glyph-name="uni04CF" unicode="&#x4cf;" horiz-adv-x="278" 
d="M80 0v534h119v-534h-119z" />
    <glyph glyph-name="uni04D0" unicode="&#x4d0;" horiz-adv-x="783" 
d="M209 1015l81 15q15 -47 38 -69t64 -22q40 0 63 22.5t38 68.5l79 -15q-11 -80 -59.5 -122t-120.5 -42q-73 0 -123.5 42.5t-59.5 121.5zM0 0l319 783h145l317 -783h-128l-71 184h-384l-72 -184h-126zM390 665l-148 -372h297z" />
    <glyph glyph-name="uni04D1" unicode="&#x4d1;" horiz-adv-x="575" 
d="M95 786l80 15q15 -47 38 -69t64 -22q40 0 63 22.5t38 68.5l80 -15q-11 -79 -60 -121.5t-121 -42.5q-73 0 -123 42.5t-59 121.5zM385 362q0 34 -28 57t-77 23q-93 0 -133 -85l-91 52q63 136 227 136q151 0 200 -109q18 -40 18 -96v-340h-117v73q-49 -82 -157 -82
q-77 0 -129 44q-51 43 -51 113v6q0 44 21 77.5t55 51t71 26t75 8.5h66q50 0 50 45zM384 216v17h-115q-37 0 -71 -20q-32 -20 -32 -54q0 -33 23.5 -53t61.5 -20q61 0 97 35t36 95z" />
    <glyph glyph-name="uni04D2" unicode="&#x4d2;" horiz-adv-x="783" 
d="M277 1000q31 0 53 -22.5t22 -53.5t-22 -53t-53 -22t-52.5 22t-21.5 53t21 53.5t53 22.5zM435 924q0 31 21 53.5t53 22.5q48 2 68.5 -48t-15.5 -81q-32 -36 -81 -16t-46 69zM0 0l319 783h145l317 -783h-128l-71 184h-384l-72 -184h-126zM390 665l-148 -372h297z" />
    <glyph glyph-name="uni04D3" unicode="&#x4d3;" horiz-adv-x="575" 
d="M171 621q-31 0 -52.5 22t-21.5 53q0 30 22 52.5t52 22.5q31 0 53.5 -22.5t22.5 -52.5q0 -31 -22 -53t-54 -22zM394 621q-32 0 -53.5 21.5t-21.5 53.5q0 31 21.5 53t53.5 22q30 0 52 -22.5t22 -52.5q0 -31 -21.5 -53t-52.5 -22zM385 362q0 34 -28 57t-77 23
q-93 0 -133 -85l-91 52q63 136 227 136q151 0 200 -109q18 -40 18 -96v-340h-117v73q-49 -82 -157 -82q-77 0 -129 44q-51 43 -51 113v6q0 44 21 77.5t55 51t71 26t75 8.5h66q50 0 50 45zM384 216v17h-115q-37 0 -71 -20q-32 -20 -32 -54q0 -33 23.5 -53t61.5 -20
q61 0 97 35t36 95z" />
    <glyph glyph-name="uni04D4" unicode="&#x4d4;" horiz-adv-x="1053" 
d="M414 783h577v-111h-374v-218h340v-111h-340v-231h378v-112h-500v184h-274l-99 -184h-134zM495 673h-11l-204 -380h215v380z" />
    <glyph glyph-name="uni04D5" unicode="&#x4d5;" horiz-adv-x="951" 
d="M389 362q0 35 -28 57.5t-78 22.5q-96 0 -136 -85l-91 52q63 136 227 136q126 0 179 -77q74 77 189 77q121 0 189 -77q69 -76 69 -199q0 -28 -1 -37h-409q1 -59 50 -100q48 -39 109 -39q100 0 144 83l86 -57q-33 -61 -94 -95t-134 -34q-133 0 -215 97q-83 -96 -213 -96h-3
q-77 0 -130 44q-52 43 -52 113v6q0 44 21 77.5t55 51t71 26t75 8.5h76q44 0 44 45zM505 322h285q-3 56 -41.5 88.5t-99.5 32.5q-56 0 -96 -33t-48 -88zM387 216v17h-118q-37 0 -71 -20q-32 -20 -32 -54q0 -33 23.5 -53t61.5 -20q63 0 99.5 35t36.5 95z" />
    <glyph glyph-name="uni04D6" unicode="&#x4d6;" horiz-adv-x="663" 
d="M168 1015l81 15q15 -47 38 -69t64 -22q40 0 63 22.5t38 68.5l79 -15q-11 -80 -59.5 -122t-120.5 -42q-73 0 -123.5 42.5t-59.5 121.5zM601 672h-378v-218h344v-111h-344v-231h382v-112h-505v783h501v-111z" />
    <glyph glyph-name="uni04D7" unicode="&#x4d7;" horiz-adv-x="615" 
d="M130 786l80 15q16 -47 38.5 -69t63.5 -22q40 0 63 22.5t38 68.5l80 -15q-11 -79 -60 -121.5t-121 -42.5q-73 0 -123 42.5t-59 121.5zM571 232h-405q1 -59 48 -100q46 -39 108 -39q100 0 144 83l86 -57q-33 -61 -94 -95t-134 -34q-120 0 -200 79q-80 80 -80 199
q0 114 77 196q77 81 192 81q122 0 191 -76t69 -200q0 -19 -2 -37zM313 443q-55 0 -94 -33t-47 -88h280q-3 55 -42 88t-97 33z" />
    <glyph glyph-name="uni04DC" unicode="&#x4dc;" horiz-adv-x="1056" 
d="M412 999q31 0 53 -22t22 -53t-22 -53t-53 -22t-53 22t-22 53t21.5 53t53.5 22zM644 849q-32 0 -53.5 21.5t-21.5 53.5q0 31 21.5 53t53.5 22q31 0 52.5 -22t21.5 -53t-21.5 -53t-52.5 -22zM891 783h154l-315 -383l325 -400h-157l-303 380h-6v-380h-123v380h-5l-304 -380
h-156l324 400l-315 383h155l297 -367h4v367h123v-367h5z" />
    <glyph glyph-name="uni04DD" unicode="&#x4dd;" horiz-adv-x="871" 
d="M324 621q-31 0 -52.5 22t-21.5 53q0 30 22 52.5t52 22.5q31 0 53 -22.5t22 -52.5q0 -32 -21.5 -53.5t-53.5 -21.5zM546 771q31 0 53 -22.5t22 -52.5q2 -31 -22 -53t-53 -22t-53 22q-34 32 -15 81.5t68 46.5zM702 534h152l-220 -260l226 -274h-152l-208 259h-5v-259h-119
v259h-5l-207 -259h-153l226 274l-220 260h152l201 -246h6v246h119v-246h6z" />
    <glyph glyph-name="uni04DE" unicode="&#x4de;" horiz-adv-x="644" 
d="M192 849q-31 0 -52.5 22t-21.5 53t21.5 53t52.5 22t53.5 -22t22.5 -53t-22 -53t-54 -22zM424 999q31 0 53 -22t22 -53t-22 -53t-53 -22t-52.5 22t-21.5 53t21 53t53 22zM591 220q0 -97 -80 -163q-79 -66 -200 -66q-205 0 -276 177l106 52q53 -117 172 -117q64 0 108 35
q43 36 43 84q0 50 -42 85q-41 36 -107 36h-104v111h97q63 0 101 34q40 34 40 83q0 50 -37 80.5t-104 30.5q-107 0 -155 -114l-107 49q28 81 97 129t167 48q123 0 193 -61q71 -60 71 -149q0 -122 -118 -179v-1q135 -52 135 -184z" />
    <glyph glyph-name="uni04DF" unicode="&#x4df;" horiz-adv-x="513" 
d="M145 771q31 0 53 -22.5t22 -52.5q2 -31 -22 -53t-53 -22t-53 22q-34 32 -15 81.5t68 46.5zM292 696q0 31 21.5 53t53.5 22q31 0 53 -22.5t22 -52.5q0 -31 -22 -53t-53 -22t-53 21.5t-22 53.5zM257 -11q-79 0 -138 35t-89 101l95 51q38 -83 129 -83q39 0 64.5 19t25.5 47
q0 66 -89 66h-69v90h68q39 0 60 17.5t21 47.5q0 27 -22.5 44.5t-60.5 17.5q-85 0 -125 -85l-93 50q31 66 89 102t134 36q90 0 144 -42t54 -111q0 -37 -21 -67t-60 -46v-1q91 -36 91 -126q0 -75 -57 -119t-151 -44z" />
    <glyph glyph-name="uni04E2" unicode="&#x4e2;" horiz-adv-x="848" 
d="M251 984h347v-95h-347v95zM232 0h-132v783h121v-587l382 587h145v-783h-122v608z" />
    <glyph glyph-name="uni04E3" unicode="&#x4e3;" horiz-adv-x="644" 
d="M149 730h347v-95h-347v95zM80 0v534h116v-357l253 357h115v-534h-116v356l-253 -356h-115z" />
    <glyph glyph-name="uni04E4" unicode="&#x4e4;" horiz-adv-x="848" 
d="M309 999q31 0 53 -22t22 -53t-22 -53t-53 -22t-53 22t-22 53t21.5 53t53.5 22zM540 999q31 0 53 -22t22 -53t-22 -53t-53 -22t-52.5 22t-21.5 53t21 53t53 22zM232 0h-132v783h121v-587l382 587h145v-783h-122v608z" />
    <glyph glyph-name="uni04E5" unicode="&#x4e5;" horiz-adv-x="644" 
d="M211 771q31 0 53 -22.5t22 -52.5q2 -31 -22 -53t-53 -22t-53 22q-34 32 -15 81.5t68 46.5zM433 771q31 0 53 -22.5t22 -52.5q2 -31 -22 -53t-53 -22t-53 22q-36 32 -16 81.5t69 46.5zM80 0v534h116v-357l253 357h115v-534h-116v356l-253 -356h-115z" />
    <glyph glyph-name="uni04E6" unicode="&#x4e6;" horiz-adv-x="900" 
d="M336 849q-32 0 -53.5 21.5t-21.5 53.5q0 31 21.5 53.5t53.5 22.5q31 0 53 -22.5t22 -53.5t-22 -53t-53 -22zM567 849q-31 0 -52.5 22t-21.5 53t21.5 53.5t52.5 22.5t53.5 -22.5t22.5 -53.5t-22 -53t-54 -22zM48 390q0 170 118 287t285 117q169 0 284 -115
q117 -116 117 -286q0 -172 -118 -287t-286 -115t-284 113q-116 114 -116 286zM450 105q114 0 193 84q80 85 80 204q0 120 -80 203q-79 84 -193 84t-194 -84q-79 -82 -79 -203t79 -204q80 -84 194 -84z" />
    <glyph glyph-name="uni04E7" unicode="&#x4e7;" horiz-adv-x="650" 
d="M213 621q-31 0 -52.5 22t-21.5 53q0 30 22 52.5t52 22.5q31 0 53.5 -22.5t22.5 -52.5q0 -31 -22 -53t-54 -22zM436 621q-32 0 -53.5 21.5t-21.5 53.5q0 31 21.5 53t53.5 22q30 0 52 -22.5t22 -52.5q0 -31 -21.5 -53t-52.5 -22zM326 545q116 0 198 -79t82 -196
q0 -118 -82 -199q-82 -80 -199 -80t-200 80q-82 79 -82 197q0 117 83 197t200 80zM209 388q-44 -49 -44 -118q0 -70 45 -121q45 -50 116 -50q72 0 115 49q44 50 44 120t-45 120q-43 49 -115 49q-71 0 -116 -49z" />
    <glyph glyph-name="uni04E8" unicode="&#x4e8;" horiz-adv-x="900" 
d="M48 390q0 170 118 287t285 117q169 0 284 -115q117 -116 117 -286q0 -172 -118 -287t-286 -115t-284 113q-116 114 -116 286zM182 452h536q-16 98 -93 163t-175 65q-99 0 -176 -65q-75 -65 -92 -163zM720 344h-540q14 -102 90 -171q77 -68 180 -68q102 0 179 69
q78 70 91 170z" />
    <glyph glyph-name="uni04E9" unicode="&#x4e9;" horiz-adv-x="650" 
d="M606 270q0 -118 -82 -199q-82 -80 -199 -80t-200 80q-82 79 -82 197q0 117 83 197t200 80q116 0 198 -79t82 -196zM167 312h316q-11 57 -54.5 92t-103.5 35t-104 -36t-54 -91zM483 224h-315q10 -55 54.5 -91t103.5 -36t103.5 36.5t53.5 90.5z" />
    <glyph glyph-name="uni04EA" unicode="&#x4ea;" horiz-adv-x="900" 
d="M331 1000q31 0 53 -22.5t22 -53.5t-22 -53t-53 -22t-53 22t-22 53t21.5 53.5t53.5 22.5zM572 849q-31 -2 -52.5 22t-21.5 53t21 53q32 38 81.5 16.5t46.5 -69.5q0 -32 -21.5 -53.5t-53.5 -21.5zM48 390q0 170 118 287t285 117q169 0 284 -115q117 -116 117 -286
q0 -172 -118 -287t-286 -115t-284 113q-116 114 -116 286zM718 452q-16 98 -93 163t-175 65q-99 0 -176 -65q-75 -65 -92 -163h536zM180 344q14 -102 90 -171q77 -68 180 -68q102 0 179 69q78 70 91 170h-540z" />
    <glyph glyph-name="uni04EB" unicode="&#x4eb;" horiz-adv-x="650" 
d="M289 696q0 -31 -22 -53t-54 -22q-31 0 -52.5 22t-21.5 53q0 30 22 52.5t52 22.5q31 0 53.5 -22.5t22.5 -52.5zM510 696q0 -31 -21.5 -53t-52.5 -22q-32 0 -53.5 21.5t-21.5 53.5q0 31 21.5 53t53.5 22q30 0 52 -22.5t22 -52.5zM606 270q0 -118 -82 -199q-82 -80 -199 -80
t-200 80q-82 79 -82 197q0 117 83 197t200 80q116 0 198 -79t82 -196zM167 312h316q-11 57 -54.5 92t-103.5 35t-104 -36t-54 -91zM483 224h-315q10 -55 54.5 -91t103.5 -36t103.5 36.5t53.5 90.5z" />
    <glyph glyph-name="uni04EC" unicode="&#x4ec;" horiz-adv-x="834" 
d="M294 849q-31 0 -52.5 22t-21.5 53t21.5 53t52.5 22t53.5 -22t22.5 -53t-22 -53t-54 -22zM526 999q31 0 53 -22t22 -53t-22 -53t-53 -22t-52.5 22t-21.5 53t21 53t53 22zM394 794q159 0 272 -104q56 -50 88 -126.5t32 -167.5q0 -174 -117 -290q-116 -115 -280 -115
q-73 0 -136.5 21.5t-106.5 57t-71 75.5t-41 81l112 52q29 -78 92 -124.5t153 -46.5q95 0 171 65q75 64 90 172h-343v109h341q-18 103 -91 164q-71 61 -168 61q-81 0 -149 -47q-67 -46 -99 -125l-113 52q38 98 131 166q94 70 233 70z" />
    <glyph glyph-name="uni04ED" unicode="&#x4ed;" horiz-adv-x="601" 
d="M165 771q31 0 53 -22.5t22 -52.5q2 -31 -22 -53t-53 -22t-53 22q-34 32 -15 81.5t68 46.5zM312 696q0 31 21.5 53t53.5 22q31 0 53 -22.5t22 -52.5q0 -31 -22 -53t-53 -22t-53 21.5t-22 53.5zM285 545q121 0 196 -79q76 -79 76 -195q0 -121 -78 -201q-76 -79 -199 -79
q-96 0 -160 47q-63 49 -85 112l102 45q38 -98 142 -98q60 0 101.5 36.5t52.5 96.5h-208v92h205q-13 53 -53 85t-94 32q-104 0 -144 -97l-100 44q25 71 91.5 115t154.5 44z" />
    <glyph glyph-name="uni04EE" unicode="&#x4ee;" horiz-adv-x="708" 
d="M188 984h347v-95h-347v95zM4 783h137l234 -436l208 436h133l-308 -624q-42 -88 -96.5 -128t-128.5 -40q-94 0 -166 51l66 98q50 -36 95 -36q54 0 87 41q20 24 46 78z" />
    <glyph glyph-name="uni04EF" unicode="&#x4ef;" horiz-adv-x="612" 
d="M136 730h347v-95h-347v95zM152 534l166 -350l154 350h129l-367 -797h-127l147 323l-238 474h136z" />
    <glyph glyph-name="uni04F0" unicode="&#x4f0;" horiz-adv-x="708" 
d="M249 999q31 0 53 -22t22 -53t-22 -53t-53 -22t-53 22t-22 53t21.5 53t53.5 22zM480 999q31 0 53 -22t22 -53t-22 -53t-53 -22t-52.5 22t-21.5 53t21 53t53 22zM4 783h137l234 -436l208 436h133l-308 -624q-42 -88 -96.5 -128t-128.5 -40q-94 0 -166 51l66 98
q50 -36 95 -36q54 0 87 41q20 24 46 78z" />
    <glyph glyph-name="uni04F1" unicode="&#x4f1;" horiz-adv-x="612" 
d="M200 771q31 0 53 -22.5t22 -52.5q2 -31 -22 -53t-53 -22t-53 22q-36 32 -16 81.5t69 46.5zM422 621q-32 0 -53.5 21.5t-21.5 53.5q0 31 21.5 53t53.5 22q31 0 53 -22.5t22 -52.5q0 -31 -22 -53t-53 -22zM152 534l166 -350l154 350h129l-367 -797h-127l147 323l-238 474
h136z" />
    <glyph glyph-name="uni04F2" unicode="&#x4f2;" horiz-adv-x="708" 
d="M312 854h-99l98 172h141zM509 854h-98l97 172h141zM4 783h137l234 -436l208 436h133l-308 -624q-42 -88 -96.5 -128t-128.5 -40q-94 0 -166 51l66 98q50 -36 95 -36q54 0 87 41q20 24 46 78z" />
    <glyph glyph-name="uni04F3" unicode="&#x4f3;" horiz-adv-x="612" 
d="M261 625h-98l98 172h140zM458 625h-98l98 172h141zM152 534l166 -350l154 350h129l-367 -797h-127l147 323l-238 474h136z" />
    <glyph glyph-name="uni04F4" unicode="&#x4f4;" horiz-adv-x="761" 
d="M242 849q-31 -2 -52.5 22t-21.5 53t21 53q24 22 53 22t53 -22t22 -53q0 -32 -21.5 -53.5t-53.5 -21.5zM474 999q31 0 53 -22t22 -53t-22 -53t-53 -22t-53 22t-22 53t21.5 53t53.5 22zM661 0h-123v320q-133 -67 -225 -67q-123 0 -190 65.5t-67 185.5v279h123v-245
q0 -84 37.5 -126.5t121.5 -42.5q51 0 105.5 19.5t94.5 46.5v348h123v-783z" />
    <glyph glyph-name="uni04F5" unicode="&#x4f5;" horiz-adv-x="590" 
d="M93 696q0 30 22 52.5t52 22.5q31 0 53 -22.5t22 -52.5q0 -31 -22 -53t-53 -22t-52.5 22t-21.5 53zM389 771q31 0 53 -22.5t22 -52.5q2 -31 -22 -53t-53 -22t-53 22q-36 32 -16 81.5t69 46.5zM511 0h-120v193q-88 -41 -154 -41q-87 0 -139 45.5t-52 130.5v206h120v-187
q0 -41 24.5 -64.5t66.5 -23.5q69 0 134 38v237h120v-534z" />
    <glyph glyph-name="uni04F8" unicode="&#x4f8;" horiz-adv-x="1007" 
d="M388 999q31 0 53 -22t22 -53t-22 -53t-53 -22t-53 22t-22 53t21.5 53t53.5 22zM620 849q-32 0 -53.5 21.5t-21.5 53.5q0 31 21.5 53t53.5 22q31 0 52.5 -22t21.5 -53t-21.5 -53t-52.5 -22zM685 244q0 -104 -72 -175q-71 -69 -209 -69h-304v783h122v-305h183
q111 0 190 -52q90 -56 90 -182zM778 0v783h130v-783h-130zM563 245q0 57 -41 90.5t-123 33.5h-177v-257h178q85 0 124 36t39 97z" />
    <glyph glyph-name="uni04F9" unicode="&#x4f9;" horiz-adv-x="866" 
d="M247 696q0 30 22 52.5t52 22.5q31 0 53 -22.5t22 -52.5q0 -32 -22 -53.5t-53 -21.5t-52.5 22t-21.5 53zM543 771q31 0 53 -22.5t22 -52.5q2 -31 -22 -53t-53 -22t-53 22q-34 32 -15 81.5t68 46.5zM557 184q0 -85 -54.5 -134.5t-154.5 -49.5h-268v534h119v-176h140
q101 0 159.5 -44.5t58.5 -129.5zM667 0v534h119v-534h-119zM437 185q0 39 -29 59.5t-78 20.5h-131v-165h133q105 0 105 85z" />
    <glyph glyph-name="uni0E3F" unicode="&#xe3f;" horiz-adv-x="734" 
d="M328 783v108h80v-108q110 -2 176 -57q67 -55 67 -148q0 -43 -26 -93q-25 -48 -88 -77q80 -25 115 -80q35 -53 35 -109q0 -101 -72.5 -160t-205.5 -59h-1v-102h-80v102h-228v783h228zM329 452v221h-108v-221h108zM407 672v-219q59 6 90.5 36t31.5 76t-30.5 74t-91.5 33z
M329 110v234h-107v-234h107zM407 344v-234h4q73 0 113 32t40 86q0 53 -40 84t-117 32z" />
    <glyph glyph-name="uni1E20" unicode="&#x1e20;" horiz-adv-x="854" 
d="M273 984h347v-95h-347v95zM800 562l-109 -50q-69 168 -245 168q-115 0 -193 -82q-77 -83 -77 -205q0 -124 76 -206q77 -83 193 -83q96 0 157 48t76 128h-281v112h414v-43q0 -153 -100 -256q-99 -102 -265 -102q-176 0 -287 113q-111 112 -111 286q0 173 118 288
q119 116 281 116q133 0 227 -68q93 -68 126 -164z" />
    <glyph glyph-name="uni1E21" unicode="&#x1e21;" horiz-adv-x="677" 
d="M146 730h348v-95h-348v95zM303 -4q-113 0 -187 81q-73 80 -73 192q0 106 72 190q73 84 192 84q42 0 94 -23t80 -67v81h116v-527q0 -126 -77 -200t-202 -74q-195 0 -269 162l99 57q56 -113 168 -113q72 0 117 42.5t45 120.5v84q-28 -45 -81 -68q-51 -22 -94 -22zM480 271
q0 69 -44 118q-44 48 -115 48t-115 -48q-44 -47 -44 -118q0 -70 44 -120q45 -48 115 -48q71 0 114 48q45 49 45 120z" />
    <glyph glyph-name="uni1E30" unicode="&#x1e30;" horiz-adv-x="711" 
d="M417 854h-103l103 172h145zM223 783v-338l313 338h162l-350 -374l371 -409h-167l-329 370v-370h-123v783h123z" />
    <glyph glyph-name="uni1E31" unicode="&#x1e31;" horiz-adv-x="581" 
d="M80 0v814h120v-490h1l207 210h162l-241 -242l254 -292h-157l-223 261h-3v-261h-120zM394 625h-103l102 172h146z" />
    <glyph glyph-name="uni1E60" unicode="&#x1e60;" horiz-adv-x="641" 
d="M325 849q-32 0 -55 23t-23 56t22.5 56t55.5 23t56 -23t23 -56t-23 -56t-56 -23zM327 -9q-103 0 -179 49t-109 139l104 54q25 -63 73.5 -96.5t112.5 -33.5q61 0 99 29.5t38 77.5q0 42 -36 70t-121 55q-128 41 -184 91q-60 52 -60 143q0 95 75 159q76 66 185 66
q96 0 162 -45t95 -121l-102 -55q-45 110 -158 110q-57 0 -94 -30t-37 -77q0 -43 35 -70t110 -50q146 -44 201 -99q56 -54 56 -140q0 -91 -72 -159q-71 -67 -194 -67z" />
    <glyph glyph-name="uni1E61" unicode="&#x1e61;" horiz-adv-x="502" 
d="M248 621q-32 0 -55 23t-23 56t22.5 56t55.5 23t56 -23t23 -56t-23 -56t-56 -23zM253 -9q-159 0 -221 134l93 52q44 -86 128 -86q35 0 59.5 16.5t24.5 42.5q0 47 -110 70q-90 18 -133 64q-38 41 -38 97q0 72 58 118t136 46q144 0 200 -120l-92 -52q-36 72 -112 72
q-29 0 -52 -15.5t-23 -36.5q0 -26 23 -41.5t76 -26.5q185 -41 185 -168q0 -73 -56 -120q-55 -46 -146 -46z" />
    <glyph glyph-name="Wgrave" unicode="&#x1e80;" horiz-adv-x="1174" 
d="M535 854l-145 172h146l102 -172h-103zM331 174l188 609h137l189 -609l179 609h128l-238 -783h-140l-187 612h-1l-189 -612h-138l-236 783h132z" />
    <glyph glyph-name="wgrave" unicode="&#x1e81;" horiz-adv-x="879" 
d="M247 797h145l103 -172h-103zM736 534h122l-171 -534h-124l-123 375h-2l-124 -375h-122l-171 534h125l112 -377h1l121 377h120l122 -378h2z" />
    <glyph glyph-name="Wacute" unicode="&#x1e82;" horiz-adv-x="1174" 
d="M636 854h-103l103 172h145zM331 174l188 609h137l189 -609l179 609h128l-238 -783h-140l-187 612h-1l-189 -612h-138l-236 783h132z" />
    <glyph glyph-name="wacute" unicode="&#x1e83;" horiz-adv-x="879" 
d="M490 625h-103l103 172h145zM736 534h122l-171 -534h-124l-123 375h-2l-124 -375h-122l-171 534h125l112 -377h1l121 377h120l122 -378h2z" />
    <glyph glyph-name="Wdieresis" unicode="&#x1e84;" horiz-adv-x="1174" 
d="M477 999q31 0 53 -22t22 -53t-22 -53t-53 -22t-53 22t-22 53t21.5 53t53.5 22zM624 924q0 31 21.5 53t53.5 22q31 2 52.5 -22t21.5 -53t-22 -53q-23 -22 -52 -22.5t-53 21.5t-22 54zM331 174l188 609h137l189 -609l179 609h128l-238 -783h-140l-187 612h-1l-189 -612
h-138l-236 783h132z" />
    <glyph glyph-name="wdieresis" unicode="&#x1e85;" horiz-adv-x="879" 
d="M329 771q31 0 53 -22.5t22 -52.5q2 -31 -22 -53t-53 -22t-53 22q-36 32 -16 81.5t69 46.5zM476 696q0 31 21.5 53t53.5 22q30 0 52 -22.5t22 -52.5q0 -31 -21.5 -53t-52.5 -22t-53 21.5t-22 53.5zM736 534h122l-171 -534h-124l-123 375h-2l-124 -375h-122l-171 534h125
l112 -377h1l121 377h120l122 -378h2z" />
    <glyph glyph-name="uni1E90" unicode="&#x1e90;" horiz-adv-x="666" 
d="M282 1026h93l144 -172h-114l-73 92l-70 -92h-118zM54 783h562v-105l-428 -568h437v-110h-587v106l428 567h-412v110z" />
    <glyph glyph-name="uni1E91" unicode="&#x1e91;" horiz-adv-x="529" 
d="M214 797h93l144 -172h-114l-74 92l-69 -92h-118zM51 534h431v-95l-294 -335h295v-104h-440v99l290 331h-282v104z" />
    <glyph glyph-name="uni1EBC" unicode="&#x1ebc;" horiz-adv-x="663" 
d="M280 922q-38 0 -39 -66h-81q-4 72 28 113.5t92 41.5q31 1 59 -17t49 -35.5t35 -16.5q37 0 39 66h82q3 -72 -29 -113.5t-92 -41.5q-30 -1 -58.5 17t-50 35.5t-34.5 16.5zM601 672h-378v-218h344v-111h-344v-231h382v-112h-505v783h501v-111z" />
    <glyph glyph-name="uni1EBD" unicode="&#x1ebd;" horiz-adv-x="615" 
d="M237 693q-37 0 -39 -66h-81q-4 72 28 113.5t92 41.5q27 0 49.5 -11t35 -23.5t28 -23.5t30.5 -11q38 0 39 66h82q3 -72 -29 -113.5t-92 -41.5q-27 0 -49.5 11t-35 23.5t-28 23.5t-30.5 11zM571 232h-405q1 -59 48 -100q46 -39 108 -39q100 0 144 83l86 -57
q-33 -61 -94 -95t-134 -34q-120 0 -200 79q-80 80 -80 199q0 114 77 196q77 81 192 81q122 0 191 -76t69 -200q0 -19 -2 -37zM313 443q-55 0 -94 -33t-47 -88h280q-3 55 -42 88t-97 33z" />
    <glyph glyph-name="Ygrave" unicode="&#x1ef2;" horiz-adv-x="751" 
d="M336 854l-145 172h145l103 -172h-103zM20 783h142l214 -351l216 351h141l-296 -467v-316h-124v313z" />
    <glyph glyph-name="ygrave" unicode="&#x1ef3;" horiz-adv-x="612" 
d="M130 797h145l103 -172h-103zM152 534l166 -350l154 350h129l-367 -797h-127l147 323l-238 474h136z" />
    <glyph glyph-name="endash" unicode="&#x2013;" horiz-adv-x="605" 
d="M73 267v115h459v-115h-459z" />
    <glyph glyph-name="emdash" unicode="&#x2014;" horiz-adv-x="1018" 
d="M73 267v115h872v-115h-872z" />
    <glyph glyph-name="quoteleft" unicode="&#x2018;" horiz-adv-x="293" 
d="M174 790l54 -49q-66 -46 -98 -120q15 5 29 5q33 0 55 -23t22 -58q0 -37 -25.5 -62.5t-64.5 -25.5q-40 0 -66.5 32.5t-26.5 82.5v5q0 59 33 116.5t88 96.5z" />
    <glyph glyph-name="quoteright" unicode="&#x2019;" horiz-adv-x="296" 
d="M126 455l-54 49q67 48 98 121q-12 -6 -29 -6q-33 0 -55 23t-22 58q0 37 25.5 62.5t64.5 25.5q40 0 66.5 -32.5t26.5 -82.5v-4q0 -59 -33 -116.5t-88 -97.5z" />
    <glyph glyph-name="quotesinglbase" unicode="&#x201a;" horiz-adv-x="307" 
d="M124 -162l-54 48q67 46 99 121q-13 -6 -30 -6q-31 0 -54 23.5t-23 58.5q0 37 25.5 62t64.5 25t66 -32t27 -82v-5q0 -59 -33 -116.5t-88 -96.5z" />
    <glyph glyph-name="quotedblleft" unicode="&#x201c;" horiz-adv-x="522" 
d="M173 790l54 -49q-66 -46 -98 -120q15 5 29 5q33 0 55 -23t22 -58q0 -37 -25.5 -62.5t-64.5 -25.5q-40 0 -66.5 32.5t-26.5 82.5v5q0 59 33 116.5t88 96.5zM402 790l55 -49q-67 -47 -99 -120q17 5 30 5q33 0 55 -23t22 -58q0 -37 -25.5 -62.5t-64.5 -25.5
q-40 0 -66.5 32.5t-26.5 82.5v5q0 59 32.5 116.5t87.5 96.5z" />
    <glyph glyph-name="quotedblright" unicode="&#x201d;" horiz-adv-x="526" 
d="M126 455l-54 49q67 48 98 121q-12 -6 -29 -6q-33 0 -55 23t-22 58q0 37 25.5 62.5t64.5 25.5q40 0 66.5 -32.5t26.5 -82.5v-4q0 -59 -33 -116.5t-88 -97.5zM356 455l-55 49q67 46 99 121q-14 -6 -29 -6q-33 0 -55 23t-22 58q0 37 25 62.5t64 25.5q40 0 67 -32.5t27 -82.5
v-4q0 -59 -33 -116.5t-88 -97.5z" />
    <glyph glyph-name="quotedblbase" unicode="&#x201e;" horiz-adv-x="521" 
d="M73 -162v56q39 7 65 39t27 72q-10 -7 -29 -7q-33 0 -54 21.5t-21 54.5q0 35 23.5 57t59.5 22q43 0 68 -30.5t25 -77.5q0 -78 -44 -137q-43 -58 -120 -70zM296 -162v56q39 7 65 39t27 72q-10 -7 -29 -7q-33 0 -54 21.5t-21 54.5q0 35 23.5 57t59.5 22q43 0 68 -30.5
t25 -77.5q0 -78 -44 -137q-43 -58 -120 -70z" />
    <glyph glyph-name="dagger" unicode="&#x2020;" horiz-adv-x="629" 
d="M61 422v112h192v206h122v-206h193v-112h-193v-422h-122v422h-192z" />
    <glyph glyph-name="daggerdbl" unicode="&#x2021;" horiz-adv-x="629" 
d="M253 -207v207h-192v112h192v310h-192v112h192v206h122v-206h193v-112h-193v-310h193v-112h-193v-207h-122z" />
    <glyph glyph-name="bullet" unicode="&#x2022;" horiz-adv-x="492" 
d="M246 542q71 0 122 -53t51 -124t-51 -124q-50 -51 -122 -51t-123 51q-51 53 -51 124t51 124t123 53z" />
    <glyph glyph-name="ellipsis" unicode="&#x2026;" horiz-adv-x="900" 
d="M59 82q0 37 25.5 62.5t61.5 25.5q37 0 62 -25.5t25 -62.5q0 -36 -25.5 -61t-61.5 -25t-61.5 25.5t-25.5 60.5zM362 82q0 37 26 62.5t62 25.5q37 0 62 -25.5t25 -62.5q0 -36 -25.5 -61t-61.5 -25t-62 25.5t-26 60.5zM666 82q0 36 26 62t61 26q37 0 62.5 -25.5t25.5 -62.5
q0 -36 -25.5 -61t-62.5 -25q-35 0 -61 25.5t-26 60.5z" />
    <glyph glyph-name="perthousand" unicode="&#x2030;" horiz-adv-x="1277" 
d="M390 614q0 -73 -52 -125t-125 -52t-125 52q-51 53 -51 125t51 125q52 52 125 52t125 -52q52 -51 52 -125zM751 783l-509 -783h-118l510 783h117zM213 690q-31 0 -53.5 -22t-22.5 -54t22.5 -54t53.5 -22q32 0 54.5 22.5t22.5 53.5t-22.5 53.5t-54.5 22.5zM786 296
q52 -52 52 -125t-52 -125q-52 -51 -125 -51t-125 51q-52 52 -52 125t52 125t125 52t125 -52zM1189 296q52 -52 52 -125t-52 -125q-53 -51 -125 -51t-125 51q-52 52 -52 125q0 72 51 125q52 52 126 52t125 -52zM737 171q0 32 -22.5 54.5t-53.5 22.5t-53.5 -22.5t-22.5 -54.5
q0 -31 22.5 -53.5t53.5 -22.5t53.5 22.5t22.5 53.5zM1140 171q0 32 -22.5 54.5t-53.5 22.5t-53.5 -22.5t-22.5 -54.5q0 -31 22 -53.5t54 -22.5t54 22.5t22 53.5z" />
    <glyph glyph-name="guilsinglleft" unicode="&#x2039;" horiz-adv-x="385" 
d="M329 148l-70 -67l-224 220l225 221l69 -67l-157 -154z" />
    <glyph glyph-name="guilsinglright" unicode="&#x203a;" horiz-adv-x="385" 
d="M125 522l225 -221l-225 -220l-69 67l156 152l-155 155z" />
    <glyph glyph-name="uni203D" unicode="&#x203d;" horiz-adv-x="537" 
d="M268 794q98 0 163 -60q66 -59 66 -151q0 -57 -40 -112q-29 -39 -87 -91q-43 -37 -59.5 -63t-16.5 -63v-36h-108l-8 357h120l-3 -115q45 39 62.5 68t17.5 64q0 42 -29.5 68.5t-78.5 26.5q-93 0 -142 -90l-93 57q32 65 92 102.5t144 37.5zM241 -7q-32 0 -55 22.5t-23 55.5
t23 56t55 23t55.5 -23t23.5 -56t-23 -55.5t-56 -22.5z" />
    <glyph glyph-name="uni2042" unicode="&#x2042;" horiz-adv-x="915" 
d="M376 413l-63 46l79 110l-129 43l25 74l129 -42v139h81v-139l129 42l25 -74l-129 -43l79 -110l-63 -46l-82 111zM146 -18l-63 47l80 110l-130 43l25 73l129 -42v140h81v-140l129 42l26 -73l-130 -43l80 -110l-63 -47l-82 111zM605 -18l-63 47l80 110l-130 43l25 73
l129 -42v140h81v-140l129 42l26 -73l-130 -43l80 -110l-63 -47l-82 111z" />
    <glyph glyph-name="fraction" unicode="&#x2044;" horiz-adv-x="638" 
d="M634 785l-509 -785h-119l511 785h117z" />
    <glyph glyph-name="uni2051" unicode="&#x2051;" horiz-adv-x="494" 
d="M166 413l-63 46l79 110l-129 43l24 74l130 -42v139h81v-139l129 42l25 -74l-130 -43l80 -110l-63 -46l-82 111zM166 -18l-63 47l79 110l-129 43l24 73l130 -42v140h81v-140l129 42l25 -73l-130 -43l80 -110l-63 -47l-82 111z" />
    <glyph glyph-name="lira" unicode="&#x20a4;" horiz-adv-x="650" 
d="M538 171l83 -58q-23 -59 -71 -91.5t-111 -32.5q-48 0 -105 23q-54 24 -90 24q-56 0 -130 -41l-66 116q131 80 150 152h-136v82h126l-1 3l-25 52l-13 24h-87v82h50q-9 34 -9 59q0 92 74 160q75 69 180 69q94 0 157 -45t87 -121l-105 -51q-37 106 -138 106
q-56 0 -92.5 -34.5t-36.5 -92.5q0 -23 10 -50h252v-82h-212q28 -58 34 -79h178v-82h-173q-15 -73 -99 -126v-1q24 10 46 10q44 0 92 -22t84 -22q27 0 53 19t44 50z" />
    <glyph glyph-name="uni20A6" unicode="&#x20a6;" horiz-adv-x="927" 
d="M868 364v-91h-78v-273h-124l-184 274h-224v-274h-121v274h-78v90h78v80h-78v92h78v247h141l166 -247h224v247h122v-247l78 -1v-92h-78v-79h78zM257 612v-80h53zM258 364h163l-52 80h-111v-80zM559 364h109v80h-162zM616 277l53 -79v79h-53z" />
    <glyph glyph-name="uni20A9" unicode="&#x20a9;" horiz-adv-x="1209" 
d="M1039 356l-109 -356h-139l-110 358h-157l-110 -358h-138l-108 356h-118v73h96l-106 354h131l103 -356h152l110 356h136l111 -356h154l104 356h128l-108 -354h98v-73h-120zM545 427h115l-56 185h-1zM405 358h-111l54 -184zM862 174l54 184h-112z" />
    <glyph glyph-name="uni20AA" unicode="&#x20aa;" horiz-adv-x="1029" 
d="M693 221h-121v205q0 68 -27 95.5t-89 27.5h-236v-549h-120v658h357q123 0 179.5 -52t56.5 -168v-217zM808 658h121v-438q0 -116 -56.5 -168t-179.5 -52h-357v436h121v-327h235q62 0 89 27.5t27 95.5v426z" />
    <glyph glyph-name="dong" unicode="&#x20ab;" horiz-adv-x="714" 
d="M599 0h-117v83q-29 -47 -83 -69q-53 -22 -96 -22q-113 0 -188 82q-74 83 -74 194q0 109 73 192q73 84 193 84q43 0 93 -22q52 -21 79 -64v170h-156v87h156v99h120v-99h65v-87h-65v-628zM205 148q45 -48 116 -48t115 48q45 50 45 120t-45 120q-45 49 -115 49t-115 -49
q-45 -50 -45 -120t44 -120zM61 -194v107h538v-107h-538z" />
    <glyph glyph-name="Euro" unicode="&#x20ac;" horiz-adv-x="911" 
d="M759 278l112 -51q-30 -86 -116 -156q-98 -80 -246 -80q-127 0 -234 74q-105 73 -143 203h-89v86h73q-1 7 -1 35q0 6 2 44h-74v86h92q40 124 145 199q104 76 234 76q150 0 242 -79q85 -72 111 -156l-111 -51q-31 79 -93 125t-151 46q-76 0 -143 -43q-67 -44 -98 -117h316
l-27 -86h-313q-2 -34 -2 -40q0 -5 2 -39h293l-27 -86h-243q33 -75 98.5 -118.5t143.5 -43.5q81 0 149 47q69 48 98 125z" />
    <glyph glyph-name="uni20AE" unicode="&#x20ae;" horiz-adv-x="706" 
d="M623 470l-205 -73v-84l205 73v-91l-205 -73v-222h-123v178l-205 -73v92l205 73v83l-205 -73v92l205 72v225h-249v114h621v-114h-249v-181l205 73v-91z" />
    <glyph glyph-name="uni20B1" unicode="&#x20b1;" horiz-adv-x="791" 
d="M756 577v-82h-75q-16 -93 -91.5 -149t-193.5 -56h-140v-290h-123v495h-81v82h81v206h278q123 0 191 -59t80 -147h74zM256 669v-94h300q-25 94 -155 94h-145zM256 497v-94h145q64 0 102.5 25.5t51.5 68.5h-299z" />
    <glyph glyph-name="uni20B4" unicode="&#x20b4;" horiz-adv-x="750" 
d="M53 434v87h447q14 25 14 55q0 49 -41 79.5t-106 30.5q-38 0 -76.5 -19t-64.5 -55l-95 67q38 55 102 85t138 30q116 0 191 -63q75 -62 75 -161q0 -21 -5 -49h64v-87h-643zM696 365v-87h-450q-24 -27 -24 -66q0 -51 41.5 -81t113.5 -30q117 0 185 86l96 -65
q-96 -131 -287 -131q-134 0 -204 64t-70 156q0 35 9 67h-53v87h643z" />
    <glyph glyph-name="uni20B8" unicode="&#x20b8;" horiz-adv-x="713" 
d="M46 783h621v-113h-621v113zM46 479v113h621v-113h-249v-479h-123v479h-249z" />
    <glyph glyph-name="uni20B9" unicode="&#x20b9;" horiz-adv-x="633" 
d="M588 783v-101h-177q54 -35 70 -96h107v-94h-105q-24 -124 -151 -170l169 -322h-136l-151 297l-154 1v110h151q117 0 145 84h-296v94h297q-24 83 -146 83h-151v114h528z" />
    <glyph glyph-name="uni20BA" unicode="&#x20ba;" horiz-adv-x="734" 
d="M580 340l119 -12q-12 -151 -122 -240q-109 -88 -308 -88h-97v273l-110 -52v95l110 53v87l-110 -53v96l110 52v232h122v-174l244 117v-97l-244 -115v-87l244 116v-95l-244 -116v-221q133 4 203.5 64t82.5 165z" />
    <glyph glyph-name="uni20BD" unicode="&#x20bd;" horiz-adv-x="735" 
d="M495 120h-215v-120h-123v120h-96v91h96v79h-96v113h96v380h268q137 0 205 -71q69 -70 69 -172q0 -107 -77 -179q-77 -71 -212 -71h-130v-79h215v-91zM280 669v-266h134q78 0 119 38t41 96q0 55 -37 93q-36 39 -123 39h-134z" />
    <glyph glyph-name="uni2113" unicode="&#x2113;" horiz-adv-x="468" 
d="M395 95v-90q-30 -10 -66 -10q-91 0 -146.5 56t-55.5 155v10l-50 -45l-63 68l113 102v278q0 78 41 126.5t116 48.5q73 0 114 -42.5t41 -113.5q0 -139 -176 -298l-32 -29v-96q0 -65 28.5 -95t87.5 -30q21 0 48 5zM284 701q-53 0 -53 -79v-185q109 109 109 198q0 66 -56 66z
" />
    <glyph glyph-name="uni2116" unicode="&#x2116;" horiz-adv-x="1317" 
d="M221 600v-600h-121v783h141l398 -596v596h121v-783h-137zM1070 293q-81 0 -139 55q-57 56 -57 138t57 137q56 55 139 55q79 0 137 -56q58 -55 58 -136q0 -82 -57 -138q-55 -55 -138 -55zM1070 398q36 0 60.5 25.5t24.5 62.5t-23.5 62t-61.5 25t-62 -25t-24 -62t24 -62.5
t62 -25.5zM1255 102h-366v105h366v-105z" />
    <glyph glyph-name="trademark" unicode="&#x2122;" horiz-adv-x="1064" 
d="M170 696h-131v87h359v-87h-131v-364h-97v364zM696 332l-124 349h-6v-349h-90v451h141l112 -311l105 311h147v-451h-93v356h-5l-123 -356h-64z" />
    <glyph glyph-name="estimated" unicode="&#x212e;" horiz-adv-x="867" 
d="M441 -12q-179 0 -284 116q-104 118 -104 294q0 168 108 282q109 115 280 115q170 0 278 -114q109 -112 109 -281v-9h-604v-254q39 -40 98.5 -64t118.5 -24q101 0 175 43t113 124l53 -29q-42 -92 -132 -145.5t-209 -53.5zM224 453h435v197q-38 40 -98 62.5t-122 22.5
q-128 0 -215 -84v-198z" />
    <glyph glyph-name="uni2153" unicode="&#x2153;" horiz-adv-x="1009" 
d="M154 0l511 785h117l-509 -785h-119zM284 783v-455h-103v350l-104 -61l-45 74l152 92h100zM779 -9q-62 0 -106 30t-62 82l83 37q24 -62 87 -62q33 0 54 15t21 39q0 54 -75 54h-53v88h49q70 0 70 53q0 52 -70 52q-56 0 -80 -61l-84 37q18 51 62 80.5t104 29.5q71 0 118 -37
q48 -36 48 -94q0 -32 -18.5 -59.5t-49.5 -40.5v-1q76 -24 76 -104q0 -60 -51 -99q-50 -39 -123 -39z" />
    <glyph glyph-name="uni2154" unicode="&#x2154;" horiz-adv-x="1091" 
d="M218 793q74 0 119 -41t45 -104q0 -44 -23.5 -78.5t-80.5 -81.5l-89 -71h195v-89h-339v83l174 141q64 52 64 91q0 26 -18 43t-50 17q-51 0 -75 -64l-89 37q17 54 61.5 85.5t105.5 31.5zM242 0l510 785h117l-509 -785h-118zM870 -9q-62 0 -106 30t-62 82l83 37
q24 -62 87 -62q33 0 54 15t21 39q0 54 -75 54h-53v88h49q70 0 70 53q0 52 -70 52q-56 0 -80 -61l-84 37q18 51 62 80.5t104 29.5q71 0 118 -37q48 -36 48 -94q0 -32 -18.5 -59.5t-49.5 -40.5v-1q76 -24 76 -104q0 -60 -51 -99q-49 -39 -123 -39z" />
    <glyph glyph-name="oneeighth" unicode="&#x215b;" horiz-adv-x="975" 
d="M782 785l-509 -785h-119l511 785h117zM32 691l152 92h100v-455h-103v350l-104 -61zM914 333q0 -32 -22 -60t-54 -40q40 -13 63.5 -41t23.5 -66q3 -78 -79 -115q-76 -34 -163 -12q-88 22 -110 87q-6 19 -5 40q0 38 23.5 66t64.5 41q-32 12 -54 40t-22 60q0 61 52 95
q53 35 115 35t115 -35q52 -34 52 -95zM747 274q27 0 48 14.5t21 37.5q0 24 -20.5 37.5t-48.5 13.5t-49 -13.5t-21 -37.5t21 -38t49 -14zM747 189q-32 0 -56 -15t-24 -41t24.5 -41.5t55.5 -15.5t55 15.5t24 41.5t-24 41t-55 15z" />
    <glyph glyph-name="threeeighths" unicode="&#x215c;" horiz-adv-x="993" 
d="M210 319q-62 0 -106 30t-62 82l83 37q24 -62 87 -62q33 0 54 15t21 39q0 54 -75 54h-53v88h49q70 0 70 53q0 52 -70 52q-56 0 -80 -61l-84 37q18 51 62 80.5t104 29.5q71 0 118 -37q48 -36 48 -94q0 -32 -18.5 -59.5t-49.5 -40.5v-1q76 -24 76 -104q0 -60 -51 -99
q-49 -39 -123 -39zM183 0l510 785h117l-509 -785h-118zM954 126q3 -78 -79 -115q-76 -34 -164 -12t-109 87q-6 19 -5 40q0 38 23.5 66t63.5 41q-32 12 -54 40t-22 60q0 61 52 95q53 35 115 35t115 -35q52 -34 52 -95q0 -32 -22 -60t-54 -40q41 -13 64.5 -41t23.5 -66z
M775 274q28 0 49 14t21 38t-21 37.5t-49 13.5t-48.5 -13.5t-20.5 -37.5q0 -23 21 -37.5t48 -14.5zM829 91q25 15 25 42q0 28 -25 41q-25 15 -54 15t-54 -15q-25 -13 -25 -41q0 -27 25 -42t54 -15t54 15z" />
    <glyph glyph-name="fiveeighths" unicode="&#x215d;" horiz-adv-x="1011" 
d="M188 0l511 785h117l-509 -785h-119zM382 482q0 -73 -52 -118q-51 -45 -123 -45q-62 0 -105.5 28t-62.5 79l83 41q26 -60 86 -60q33 0 54.5 21t21.5 52t-20 50.5t-55 19.5q-41 0 -72 -36l-80 32l33 237h274v-88h-197l-14 -93q35 25 84 25q64 0 104.5 -38.5t40.5 -106.5z
M969 126q3 -78 -79 -115q-76 -34 -164 -12t-109 87q-6 19 -5 40q0 38 23.5 66t64.5 41q-31 11 -54 40.5t-23 59.5q0 61 52 95q53 35 116 35q62 0 115 -35q52 -34 52 -95q0 -32 -22 -60t-54 -40q40 -13 63.5 -41t23.5 -66zM791 274q27 0 48 14.5t21 37.5q0 24 -21 37.5
t-49 13.5t-48.5 -13.5t-20.5 -37.5t21 -38t49 -14zM790 189q-31 0 -55 -15t-24 -41t24.5 -41.5t55.5 -15.5t55 15.5t24 41.5t-24 41t-56 15z" />
    <glyph glyph-name="seveneighths" unicode="&#x215e;" horiz-adv-x="921" 
d="M729 785l-509 -785h-118l510 785h117zM40 783h340v-88l-194 -367h-112l195 367h-229v88zM871 333q0 -32 -22 -60t-54 -40q40 -13 63.5 -41t23.5 -66q3 -78 -79 -115q-76 -34 -163 -12q-88 22 -110 87q-6 19 -5 40q0 38 23.5 66t64.5 41q-32 12 -54 40t-22 60q0 61 52 95
q53 35 115 35t115 -35q52 -34 52 -95zM704 274q27 0 48 14.5t21 37.5q0 24 -20.5 37.5t-48.5 13.5t-49 -13.5t-21 -37.5t21 -38t49 -14zM704 189q-32 0 -55.5 -15t-23.5 -41t24 -41.5t55 -15.5t55 15.5t24 41.5t-24 41t-55 15z" />
    <glyph glyph-name="arrowleft" unicode="&#x2190;" horiz-adv-x="664" 
d="M20 374l289 313l71 -66l-186 -198h435v-117h-435l186 -198l-71 -66l-289 313v19z" />
    <glyph glyph-name="arrowup" unicode="&#x2191;" horiz-adv-x="664" 
d="M341 669l313 -289l-66 -71l-198 186v-435h-117v435l-197 -186l-66 71l313 289h18z" />
    <glyph glyph-name="arrowright" unicode="&#x2192;" horiz-adv-x="664" 
d="M644 355l-290 -313l-70 66l186 198h-436v117h436l-186 198l70 66l290 -313v-19z" />
    <glyph glyph-name="arrowdown" unicode="&#x2193;" horiz-adv-x="664" 
d="M323 60l-313 289l66 71l197 -186v435h118v-435l197 186l66 -71l-313 -289h-18z" />
    <glyph glyph-name="uni2196" unicode="&#x2196;" horiz-adv-x="664" 
d="M131 582l427 17l3 -97q-218 -7 -271 -8l308 -308l-83 -83l-308 308q-1 -69 -8 -271l-97 3l17 426z" />
    <glyph glyph-name="uni2197" unicode="&#x2197;" horiz-adv-x="664" 
d="M545 569l17 -426l-97 -3q-7 124 -8 271l-309 -308l-82 83l308 308q-69 1 -271 8l3 97l426 -17z" />
    <glyph glyph-name="uni2198" unicode="&#x2198;" horiz-adv-x="664" 
d="M532 120l-427 -17l-2 97q208 7 270 8l-308 308l83 83l308 -308q1 53 8 271l97 -3l-17 -427z" />
    <glyph glyph-name="uni2199" unicode="&#x2199;" horiz-adv-x="664" 
d="M119 132l-16 427l96 3q9 -269 9 -271l307 308l83 -83l-308 -308q53 -1 271 -8l-3 -97l-426 17z" />
    <glyph glyph-name="uni21A9" unicode="&#x21a9;" horiz-adv-x="1102" 
d="M726 151h-521l186 -197l-71 -66l-290 313v18l290 313l71 -66l-186 -197h516q95 0 155 54t60 142q0 92 -58 144.5t-160 53.5h-199v115h207q148 0 239 -88q92 -89 92 -225q0 -137 -91 -225q-92 -89 -240 -89z" />
    <glyph glyph-name="uni21B0" unicode="&#x21b0;" horiz-adv-x="846" 
d="M456 466h-251l186 -197l-71 -66l-289 313v18l289 313l71 -66l-186 -197h265q153 0 235 -71t82 -205v-308h-121v296q0 85 -55 127.5t-155 42.5z" />
    <glyph glyph-name="uni21B1" unicode="&#x21b1;" horiz-adv-x="846" 
d="M456 269l185 197h-251q-100 0 -154.5 -42.5t-54.5 -127.5v-296h-121v308q0 134 81.5 205t234.5 71h265l-185 197l70 66l289 -313v-18l-289 -313z" />
    <glyph glyph-name="uni21B2" unicode="&#x21b2;" horiz-adv-x="846" 
d="M391 514l-186 -197h251q100 0 155 42.5t55 127.5v296h121v-308q0 -134 -82 -204.5t-235 -70.5h-265l186 -198l-71 -66l-289 313v18l289 313z" />
    <glyph glyph-name="uni21B3" unicode="&#x21b3;" horiz-adv-x="846" 
d="M390 317h251l-185 197l70 66l289 -313v-18l-289 -313l-70 66l185 198h-265q-153 0 -234.5 70.5t-81.5 204.5v308h121v-296q0 -85 54.5 -127.5t154.5 -42.5z" />
    <glyph glyph-name="uni21B4" unicode="&#x21b4;" horiz-adv-x="917" 
d="M555 27l-313 290l66 70l197 -185v251q0 100 -32 152q-37 60 -162 60h-272v118h284q166 0 233 -79q67 -77 67 -237v-265l197 185l66 -70l-313 -290h-18z" />
    <glyph glyph-name="partialdiff" unicode="&#x2202;" horiz-adv-x="662" 
d="M305 -10q-111 0 -185 73q-75 73 -75 189q0 108 75 176q76 68 183 68q104 0 183 -61q-15 121 -72 186t-150 65q-75 0 -151 -35l-42 94q88 49 201 49q110 0 187.5 -61t113 -156t35.5 -212q0 -78 -18.5 -145t-55 -119t-95.5 -81.5t-134 -29.5zM331 396q-67 0 -116 -40
q-49 -39 -49 -113q0 -62 44 -104q46 -41 102 -41q83 0 130 71q47 73 47 164q-28 29 -72.5 46t-85.5 17z" />
    <glyph glyph-name="uni2206" unicode="&#x2206;" horiz-adv-x="846" 
d="M33 0l318 783h146l316 -783h-780zM203 111h440l-221 550z" />
    <glyph glyph-name="product" unicode="&#x220f;" horiz-adv-x="778" 
d="M292 669v-669h-124v669h-132v114h706v-114h-133v-669h-122v669h-195z" />
    <glyph glyph-name="summation" unicode="&#x2211;" horiz-adv-x="639" 
d="M47 113l279 284l-267 276v110h524v-110h-370l276 -276l-283 -287h377v-110h-536v113z" />
    <glyph glyph-name="minus" unicode="&#x2212;" horiz-adv-x="630" 
d="M72 312v110h486v-110h-486z" />
    <glyph glyph-name="radical" unicode="&#x221a;" horiz-adv-x="768" 
d="M758 958l-295 -958h-135l-188 514h-121v101h214l163 -477l252 820h110z" />
    <glyph glyph-name="infinity" unicode="&#x221e;" horiz-adv-x="1009" 
d="M739 109q-70 0 -132 48q-35 27 -51 42q-22 20 -52 50l-24 -23l-25 -23l-23 -21q-15 -14 -26 -21q-45 -29 -53 -32q-60 -20 -95 -20q-91 0 -148 62q-56 62 -56 153q0 93 61 155q61 63 154 63q70 0 132 -49q26 -19 52 -43l52 -50q71 70 104 94q67 48 142 48q93 0 148 -63
q56 -64 56 -155t-62 -153t-154 -62zM271 435q-44 0 -74 -32.5t-30 -78.5t29 -77t73 -31q60 0 140 80l26 27l-26 27q-26 26 -33 32l-30 24q-35 29 -75 29zM742 435q-19 0 -48 -11q-5 -2 -45 -27q-4 -3 -20 -17.5t-20 -17.5l-19 -20l-16 -17l26 -27q27 -27 33 -32
q18 -13 30 -23q38 -27 76 -27q43 0 73 32t30 76q0 46 -28.5 78.5t-71.5 32.5z" />
    <glyph glyph-name="integral" unicode="&#x222b;" horiz-adv-x="409" 
d="M265 551v-571q0 -121 -61.5 -183t-176.5 -62h-13v108q67 2 98.5 33.5t31.5 105.5v569q0 118 62 180.5t175 62.5h14v-108q-68 -2 -99 -31.5t-31 -103.5z" />
    <glyph glyph-name="uni2236" unicode="&#x2236;" horiz-adv-x="327" 
d="M76 542q0 37 26 62.5t62 25.5t61.5 -25.5t25.5 -62.5q0 -35 -25.5 -61t-61.5 -26t-62 26t-26 61zM76 169q0 37 26 63t62 26q37 0 62 -26t25 -63q0 -35 -25.5 -60.5t-61.5 -25.5t-62 25.5t-26 60.5z" />
    <glyph glyph-name="approxequal" unicode="&#x2248;" horiz-adv-x="629" 
d="M420 396q-41 0 -111 41t-99 41q-44 0 -78 -45l-65 61q54 90 143 90q61 0 118 -41q58 -40 92 -40q44 0 79 45l64 -61q-52 -91 -143 -91zM420 146q-41 0 -111 41t-99 41q-44 0 -78 -45l-65 61q54 90 143 90q61 0 118 -41q58 -40 92 -40q44 0 79 45l64 -61q-52 -91 -143 -91
z" />
    <glyph glyph-name="notequal" unicode="&#x2260;" horiz-adv-x="627" 
d="M555 171h-286l-65 -133l-84 42l46 91h-94v111h148l85 169h-233v110h286l67 132l83 -38l-47 -94h94v-110h-146l-85 -169h231v-111z" />
    <glyph glyph-name="lessequal" unicode="&#x2264;" horiz-adv-x="681" 
d="M213 426l389 -144v-114l-537 206v103l537 205v-112zM65 24v107h538v-107h-538z" />
    <glyph glyph-name="greaterequal" unicode="&#x2265;" horiz-adv-x="681" 
d="M80 682l536 -205v-103l-536 -206v113l388 144l-388 144v113zM79 24v107h537v-107h-537z" />
    <glyph glyph-name="uni2318" unicode="&#x2318;" horiz-adv-x="698" 
d="M546 69q-50 0 -87 37q-36 36 -36 86v63h-148v-63q0 -50 -36 -86q-34 -37 -87 -37q-52 0 -86 37q-36 36 -36 86t36 86t86 36h62v148h-61q-52 0 -86 37q-37 34 -37 86t37 86q36 36 86 36t86 -36t36 -86v-63h148v63q0 50 36 86q37 36 87 36t86 -36t36 -86t-36 -86
q-34 -37 -86 -37h-62v-148h62q50 0 86 -36t36 -86t-36 -86q-34 -37 -86 -37zM153 522h61v63q0 26 -18 44q-17 18 -43 18q-29 0 -45 -18q-18 -17 -18 -44q0 -26 18 -44q20 -19 45 -19zM546 647q-28 0 -44 -18q-18 -17 -18 -44v-63h62q25 0 44 19q30 26 13 67.5t-57 38.5z
M423 462h-148v-148h148v148zM214 192v63h-62q-28 0 -44 -19q-18 -16 -18 -44q0 -26 18 -45q20 -18 44 -18t44 18q18 19 18 45zM546 255h-62v-63q0 -26 18 -45q18 -18 44 -18q25 0 44 18q18 19 18 45q0 28 -18 44q-16 19 -44 19z" />
    <glyph glyph-name="filledbox" unicode="&#x25a0;" horiz-adv-x="908" 
d="M101 711h709v-711h-709v711z" />
    <glyph glyph-name="uni25A1" unicode="&#x25a1;" horiz-adv-x="908" 
d="M101 0v711h709v-711h-709zM709 616h-511v-522h511v522z" />
    <glyph glyph-name="triagup" unicode="&#x25b2;" horiz-adv-x="838" 
d="M0 0l421 730l417 -730h-838z" />
    <glyph glyph-name="uni25B3" unicode="&#x25b3;" horiz-adv-x="838" 
d="M419 720l412 -720h-824zM176 95h485l-242 428z" />
    <glyph glyph-name="lozenge" unicode="&#x25ca;" horiz-adv-x="716" 
d="M419 783l290 -390l-290 -393h-121l-292 393l292 390h121zM358 663l-199 -270l199 -271l199 273z" />
    <glyph glyph-name="circle" unicode="&#x25cb;" horiz-adv-x="813" 
d="M777 356q0 -154 -108 -262t-262 -108q-153 0 -263 108q-108 108 -108 262t108 263q109 109 263 109t262 -109q108 -108 108 -263zM407 631q-115 0 -194 -81q-79 -79 -79 -194t79 -194q80 -80 194 -80q111 0 191 80q79 80 79 194q0 115 -79 194q-80 81 -191 81z" />
    <glyph glyph-name="uni25CF" unicode="&#x25cf;" horiz-adv-x="813" 
d="M36 356q0 155 108 263q108 109 262 109t262 -109q109 -109 109 -263t-109 -262q-108 -108 -262 -108t-262 108t-108 262z" />
    <glyph glyph-name="uni2605" unicode="&#x2605;" horiz-adv-x="838" 
d="M663 -21l-244 177l-245 -175l94 285l-244 177h302l93 287l93 -287h302l-244 -177z" />
    <glyph glyph-name="uni2611" unicode="&#x2611;" horiz-adv-x="956" 
d="M101 711h620l128 225l92 -56l-131 -227v-653h-709v711zM297 499l177 -217l193 336h-470v-526h514v390l-223 -384l-274 329z" />
    <glyph glyph-name="uni2612" unicode="&#x2612;" horiz-adv-x="908" 
d="M810 0h-709v711h709v-711zM711 92v526h-514v-526h514zM383 355l-157 158l72 71l157 -157l155 157l72 -71l-156 -158l156 -156l-72 -72l-155 156l-158 -159l-71 72z" />
    <glyph glyph-name="uni2639" unicode="&#x2639;" horiz-adv-x="813" 
d="M777 356q0 -154 -108 -262t-262 -108q-153 0 -263 108q-108 108 -108 262t108 263q109 109 263 109t262 -109q108 -108 108 -263zM407 649q-119 0 -205 -86q-85 -85 -85 -207q0 -121 85 -206q86 -86 205 -86t203 86q84 85 84 206q0 122 -84 207q-84 86 -203 86zM363 501
q19 -19 19 -47t-19 -47t-47 -19t-47 19t-19 47t19 47q19 20 47 20t47 -20zM544 501q19 -19 19 -47t-19 -47t-47 -19t-47 19t-19 47t19 47q19 20 47 20t47 -20zM603 180h-78q-6 45 -42 74q-35 29 -76 29q-44 0 -79 -28.5t-41 -74.5h-78q10 77 66 127q56 49 132 49
q74 0 130 -50q55 -50 66 -126z" />
    <glyph glyph-name="smileface" unicode="&#x263a;" horiz-adv-x="813" 
d="M777 356q0 -154 -108 -262t-262 -108q-153 0 -263 108q-108 108 -108 262t108 263q109 109 263 109t262 -109q108 -108 108 -263zM407 649q-119 0 -205 -86q-85 -85 -85 -207q0 -121 85 -206q86 -86 205 -86t203 86q84 85 84 206q0 122 -84 207q-84 86 -203 86zM363 501
q19 -19 19 -47t-19 -47t-47 -19t-47 19t-19 47t19 47q19 20 47 20t47 -20zM544 501q19 -19 19 -47t-19 -47t-47 -19t-47 19t-19 47t19 47q19 20 47 20t47 -20zM525 332h78q-11 -78 -67 -127q-56 -50 -129 -50q-76 0 -132 49q-55 49 -66 128h78q6 -46 41 -74.5t79 -28.5
q42 0 76 28q36 29 42 75z" />
    <glyph glyph-name="invsmileface" unicode="&#x263b;" horiz-adv-x="813" 
d="M777 356q0 -154 -108 -262t-262 -108q-153 0 -263 108q-108 108 -108 262t108 263q109 109 263 109t262 -109q108 -108 108 -263zM363 407q19 19 19 47t-19 47q-19 20 -47 20t-47 -20q-19 -19 -19 -47t19 -47t47 -19t47 19zM544 407q19 19 19 47t-19 47q-19 20 -47 20
t-47 -20q-19 -19 -19 -47t19 -47t47 -19t47 19zM603 332h-78q-6 -46 -42 -75q-34 -28 -76 -28q-44 0 -79 28.5t-41 74.5h-78q11 -79 66 -128q56 -49 132 -49q73 0 129 50q56 49 67 127z" />
    <glyph glyph-name="heart" unicode="&#x2665;" horiz-adv-x="872" 
d="M3 480q0 96 65 163q66 66 163 66q58 0 106 -28t72 -78q24 51 72 78.5t109 27.5q96 0 160 -67q65 -68 65 -162q0 -120 -95 -237q-39 -49 -98 -102q-98 -88 -213 -155q-114 67 -214 155q-59 54 -97 102q-95 117 -95 237z" />
    <glyph glyph-name="uni2713" unicode="&#x2713;" horiz-adv-x="942" 
d="M834 713l75 -73l-602 -653l-290 319l75 71l218 -236z" />
    <glyph glyph-name="uni2715" unicode="&#x2715;" horiz-adv-x="755" 
d="M303 355l-282 282l74 72l281 -280l279 280l73 -72l-279 -282l284 -284l-72 -73l-285 283l-282 -283l-73 73z" />
    <glyph glyph-name="uni2E18" unicode="&#x2e18;" horiz-adv-x="530" 
d="M289 541q32 0 55 -22.5t23 -55.5t-23 -56t-55 -23t-55.5 23t-23.5 56t23 55.5t56 22.5zM405 -63l93 -57q-32 -65 -92 -102.5t-144 -37.5q-98 0 -164 60q-65 59 -65 151q0 57 40 112q29 39 87 91q43 37 59.5 63t16.5 63v36h108l8 -357h-120l3 115q-45 -39 -62.5 -68
t-17.5 -64q0 -42 29.5 -68.5t78.5 -26.5q93 0 142 90z" />
    <glyph glyph-name="uniE09D" unicode="&#xe09d;" horiz-adv-x="781" 
d="M736 429h-131v-238q0 -47 22.5 -68t69.5 -21q21 0 38 4v-101q-30 -11 -64 -11q-88 0 -136.5 46t-48.5 132v257h-241v-429h-120v429h-98v105h98v75q0 99 55.5 153.5t154.5 54.5q25 0 55 -8v-102q-16 4 -43 4q-102 0 -102 -106v-71h241v165h119v-165h131v-105z" />
    <glyph glyph-name="at.case" unicode="&#xf633;" horiz-adv-x="867" 
d="M624 192q-35 0 -66.5 17t-45.5 45q-20 -28 -53.5 -44.5t-64.5 -16.5q-70 0 -116 52q-47 53 -47 115q0 94 58 161t145 67q29 0 56.5 -14.5t39.5 -43.5l10 55h110l-42 -249q-10 -61 35 -61q44 0 81 52q39 53 39 125q0 118 -85 197t-218 79q-141 0 -241 -100t-100 -242
q0 -138 91 -233q92 -96 244 -96q116 0 210 69l35 -54q-41 -36 -112 -59q-69 -22 -133 -22q-176 0 -289 113q-113 115 -113 282q-2 108 54 203.5t151.5 150.5t201.5 53q158 0 264 -97q106 -96 106 -243q0 -115 -61 -188t-144 -73zM445 485q-42 0 -72 -35q-29 -36 -28 -77
q1 -31 21.5 -54.5t51.5 -23.5q39 0 68 35q29 37 29 81q0 33 -19.5 53.5t-50.5 20.5z" />
    <glyph glyph-name="dollar.lowercase" unicode="&#xf653;" horiz-adv-x="502" 
d="M455 157q0 -61 -40.5 -104.5t-108.5 -56.5v-98h-114v98q-110 21 -160 129l93 52q44 -86 128 -86q35 0 59.5 16.5t24.5 42.5q0 47 -110 70q-90 18 -133 64q-38 41 -38 97q0 57 37.5 99t98.5 58v99h114v-97q101 -20 144 -115l-92 -52q-36 72 -112 72q-29 0 -52 -15.5
t-23 -36.5q0 -26 23 -41.5t76 -26.5q185 -41 185 -168z" />
    <glyph glyph-name="commaaccent" unicode="&#xf6c3;" horiz-adv-x="0" 
d="M68 -326l-42 38q50 36 77 94q-8 -4 -23 -4q-25 0 -42.5 18t-17.5 45q0 29 19.5 48.5t49.5 19.5t51.5 -25.5t21.5 -63.5v-3q0 -47 -25.5 -92t-68.5 -75z" />
    <glyph glyph-name="uniF730" unicode="&#xf730;" horiz-adv-x="649" 
d="M326 545q116 0 195 -79q80 -80 80 -196q0 -117 -80 -199q-80 -80 -196 -80q-118 0 -197 79q-80 80 -80 198q0 117 80 197q82 80 198 80zM168 270q0 -72 43 -122q44 -50 115 -50q72 0 112 49q42 50 42 121q0 72 -42 120q-42 49 -113 49t-114 -48q-43 -46 -43 -119z" />
    <glyph glyph-name="uniF731" unicode="&#xf731;" horiz-adv-x="398" 
d="M16 426l178 108h117v-534h-121v411l-121 -73z" />
    <glyph glyph-name="uniF732" unicode="&#xf732;" horiz-adv-x="515" 
d="M50 0v93l197 159q54 45 71 66q18 23 18 52q0 30 -21 49.5t-57 19.5q-69 0 -101 -86l-103 43q20 70 74.5 109t129.5 39q85 0 141 -47q57 -47 57 -121q0 -60 -32 -104q-30 -41 -104 -100l-87 -68h226v-104h-409z" />
    <glyph glyph-name="uniF733" unicode="&#xf733;" horiz-adv-x="510" 
d="M249 -6q-153 0 -209 138l100 49q36 -82 110 -82q36 0 60.5 18t24.5 42q0 26 -23 44t-61 18h-53v104h49q52 -1 71 37q16 34 -10 59q-21 20 -61 18q-65 0 -98 -79l-101 46q24 66 75 102t125 36q88 0 141 -44q54 -44 54 -108q0 -78 -76 -115v-1q88 -34 88 -118
q0 -69 -59 -117q-59 -47 -147 -47z" />
    <glyph glyph-name="uniF734" unicode="&#xf734;" horiz-adv-x="552" 
d="M38 110v127l240 297h147v-322h82v-102h-82v-110h-116v110h-271zM142 212h167v205z" />
    <glyph glyph-name="uniF735" unicode="&#xf735;" horiz-adv-x="508" 
d="M432 432h-236l-18 -111q40 34 97 34q75 0 128 -49q55 -48 55 -129q0 -84 -62 -134q-61 -49 -150 -49q-146 0 -202 132l98 55q36 -82 106 -82q39 0 64.5 21t25.5 56q0 36 -24.5 57.5t-63.5 21.5q-52 0 -97 -47l-94 36l44 290h329v-102z" />
    <glyph glyph-name="uniF736" unicode="&#xf736;" horiz-adv-x="528" 
d="M304 442q-54 0 -89.5 -37t-45.5 -103h1q20 27 52.5 42.5t66.5 15.5q83 0 139 -50q55 -49 55 -130q0 -82 -63 -134q-61 -52 -148 -52q-92 0 -157 59q-65 62 -65 198q0 77 25 141.5t84.5 108t144.5 43.5q93 0 172 -66l-59 -85q-34 28 -58.5 38.5t-54.5 10.5zM271 260
q-40 0 -68.5 -23.5t-28.5 -57.5q0 -38 27 -60t70 -22q41 0 67.5 22t26.5 58q0 37 -26 60t-68 23z" />
    <glyph glyph-name="uniF737" unicode="&#xf737;" horiz-adv-x="471" 
d="M37 534h400v-103l-229 -431h-129l229 431h-271v103z" />
    <glyph glyph-name="uniF738" unicode="&#xf738;" horiz-adv-x="522" 
d="M458 393q0 -36 -27 -70.5t-63 -46.5q47 -16 74.5 -49t27.5 -78q0 -77 -63 -118q-62 -40 -146 -40q-85 0 -147 40q-63 41 -63 118q0 45 28 78t75 49q-36 12 -63 46.5t-27 70.5q0 71 61 111q62 41 136 41q73 0 135 -41t62 -111zM320 337q27 17 27 47t-28 47q-58 37 -117 0
q-27 -17 -27 -47t27 -47q59 -34 118 0zM358 157q0 32 -29 51t-68 19t-68.5 -19t-29.5 -51q0 -31 30 -50t68 -19t67.5 19t29.5 50z" />
    <glyph glyph-name="uniF739" unicode="&#xf739;" horiz-adv-x="529" 
d="M230 96q52 0 85.5 36.5t44.5 103.5h-1q-20 -27 -52.5 -42.5t-66.5 -15.5q-84 0 -139 49t-55 131q0 80 62 133q64 53 149 53q95 0 157 -59q65 -62 65 -198q0 -122 -63 -207.5t-186 -85.5q-56 0 -95 15.5t-83 53.5l58 85q34 -29 60 -40.5t60 -11.5zM259 278q40 0 68 23
t28 57q0 38 -26.5 60.5t-69.5 22.5q-41 0 -67.5 -22.5t-26.5 -58.5q0 -39 25.5 -60.5t68.5 -21.5z" />
    <glyph glyph-name="NULL" horiz-adv-x="0" 
 />
    <glyph glyph-name="CR" horiz-adv-x="333" 
 />
    <glyph glyph-name="Aring.alt" horiz-adv-x="783" 
d="M245 990q0 57 43 97q44 41 102 41q59 0 103 -41q43 -40 43 -97q0 -59 -43 -99t-103 -40t-103 40q-42 41 -42 99zM390 1054q-29 0 -48.5 -18.5t-19.5 -45.5t20 -46.5t48 -19.5q29 0 48.5 19.5t19.5 46.5q0 25 -20.5 44.5t-47.5 19.5zM0 0l319 783h145l317 -783h-128
l-71 184h-384l-72 -184h-126zM390 665l-148 -372h297z" />
    <glyph glyph-name="OE.alt" horiz-adv-x="1135" 
d="M1077 112v-112h-613q-84 0 -154 23.5t-117.5 62t-81 89.5t-48.5 105.5t-15 110.5q0 108 60 207q49 83 140 133.5t218 51.5h607v-111h-369v-218h335v-111h-335v-231h373zM581 114v555h-113q-72 0 -130.5 -25.5t-93.5 -68.5q-67 -84 -67 -180q0 -105 68 -190
q35 -42 93 -66.5t131 -24.5h112z" />
    <glyph glyph-name="Q.alt" horiz-adv-x="899" 
d="M875 104v-104h-431q-170 0 -283 112q-113 113 -113 282q0 168 117 284q118 116 282 116q166 0 281 -115q116 -114 116 -282q0 -194 -166 -290v-3h197zM175 396q0 -118 78 -201q79 -82 193 -82q76 0 140 39q60 38 95 103.5t35 140.5q0 120 -79 202q-78 83 -192 83
t-192 -83q-78 -82 -78 -202z" />
    <glyph glyph-name="O.slash" horiz-adv-x="900" 
d="M451 794q169 0 284 -115q117 -116 117 -286q0 -172 -118 -287t-286 -115t-284 113q-116 114 -116 286q0 170 118 287t285 117zM450 680q-114 0 -194 -84q-79 -82 -79 -203q0 -94 51 -169l362 416q-65 40 -140 40zM450 105q114 0 193 84q80 85 80 204q0 93 -53 169
l-361 -416q65 -41 141 -41z" />
    <glyph glyph-name="a.alt" horiz-adv-x="681" 
d="M43 268q0 109 73 192q74 84 193 84q45 0 93 -22q51 -21 81 -66v78h118v-534h-118v81q-27 -45 -82 -68q-52 -21 -95 -21q-113 0 -188 82t-75 194zM324 437q-71 0 -116 -49q-44 -50 -44 -120t44 -120q45 -48 116 -48q72 0 115 48q45 50 45 120t-45 120q-45 49 -115 49z" />
    <glyph glyph-name="aacute.alt" horiz-adv-x="681" 
d="M375 625h-103l103 172h145zM43 268q0 109 73 192q74 84 193 84q45 0 93 -22q51 -21 81 -66v78h118v-534h-118v81q-27 -45 -82 -68q-52 -21 -95 -21q-113 0 -188 82t-75 194zM324 437q-71 0 -116 -49q-44 -50 -44 -120t44 -120q45 -48 116 -48q72 0 115 48q45 50 45 120
t-45 120q-45 49 -115 49z" />
    <glyph glyph-name="abreve.alt" horiz-adv-x="681" 
d="M322 623q-75 0 -125.5 45t-56.5 125h101q3 -41 24 -63t57 -22t57.5 22t24.5 63h100q-7 -78 -56.5 -124t-125.5 -46zM43 268q0 109 73 192q74 84 193 84q45 0 93 -22q51 -21 81 -66v78h118v-534h-118v81q-27 -45 -82 -68q-52 -21 -95 -21q-113 0 -188 82t-75 194zM324 437
q-71 0 -116 -49q-44 -50 -44 -120t44 -120q45 -48 116 -48q72 0 115 48q45 50 45 120t-45 120q-45 49 -115 49z" />
    <glyph glyph-name="acaron.alt" horiz-adv-x="681" 
d="M253 797l69 -92l74 92h114l-144 -172h-93l-138 172h118zM43 268q0 109 73 192q74 84 193 84q45 0 93 -22q51 -21 81 -66v78h118v-534h-118v81q-27 -45 -82 -68q-52 -21 -95 -21q-113 0 -188 82t-75 194zM324 437q-71 0 -116 -49q-44 -50 -44 -120t44 -120q45 -48 116 -48
q72 0 115 48q45 50 45 120t-45 120q-45 49 -115 49z" />
    <glyph glyph-name="acircumflex.alt" horiz-adv-x="681" 
d="M273 797h94l143 -172h-114l-73 92l-70 -92h-118zM43 268q0 109 73 192q74 84 193 84q45 0 93 -22q51 -21 81 -66v78h118v-534h-118v81q-27 -45 -82 -68q-52 -21 -95 -21q-113 0 -188 82t-75 194zM324 437q-71 0 -116 -49q-44 -50 -44 -120t44 -120q45 -48 116 -48
q72 0 115 48q45 50 45 120t-45 120q-45 49 -115 49z" />
    <glyph glyph-name="adieresis.alt" horiz-adv-x="681" 
d="M198 771q31 0 53 -22.5t22 -52.5q2 -31 -22 -53t-53 -22t-53 22q-34 32 -15 81.5t68 46.5zM420 621q-32 0 -53.5 21.5t-21.5 53.5q0 31 21.5 53t53.5 22q31 0 53 -22.5t22 -52.5q0 -31 -22 -53t-53 -22zM43 268q0 109 73 192q74 84 193 84q45 0 93 -22q51 -21 81 -66v78
h118v-534h-118v81q-27 -45 -82 -68q-52 -21 -95 -21q-113 0 -188 82t-75 194zM324 437q-71 0 -116 -49q-44 -50 -44 -120t44 -120q45 -48 116 -48q72 0 115 48q45 50 45 120t-45 120q-45 49 -115 49z" />
    <glyph glyph-name="agrave.alt" horiz-adv-x="681" 
d="M125 797h146l103 -172h-103zM43 268q0 109 73 192q74 84 193 84q45 0 93 -22q51 -21 81 -66v78h118v-534h-118v81q-27 -45 -82 -68q-52 -21 -95 -21q-113 0 -188 82t-75 194zM324 437q-71 0 -116 -49q-44 -50 -44 -120t44 -120q45 -48 116 -48q72 0 115 48q45 50 45 120
t-45 120q-45 49 -115 49z" />
    <glyph glyph-name="amacron.alt" horiz-adv-x="681" 
d="M149 730h347v-95h-347v95zM43 268q0 109 73 192q74 84 193 84q45 0 93 -22q51 -21 81 -66v78h118v-534h-118v81q-27 -45 -82 -68q-52 -21 -95 -21q-113 0 -188 82t-75 194zM324 437q-71 0 -116 -49q-44 -50 -44 -120t44 -120q45 -48 116 -48q72 0 115 48q45 50 45 120
t-45 120q-45 49 -115 49z" />
    <glyph glyph-name="aogonek.alt" horiz-adv-x="681" 
d="M483 534h118v-534q-83 -62 -83 -106q0 -54 77 -54h2v-82q-34 -2 -37 -2q-64 0 -105 29t-41 80q0 62 94 135h-25v81q-27 -45 -82 -68q-52 -21 -95 -21q-113 0 -188 82t-75 194q0 109 73 192q74 84 193 84q45 0 93 -22q51 -21 81 -66v78zM324 437q-71 0 -116 -49
q-44 -50 -44 -120t44 -120q45 -48 116 -48q72 0 115 48q45 50 45 120t-45 120q-45 49 -115 49z" />
    <glyph glyph-name="aring.alt" horiz-adv-x="681" 
d="M321 603q-59 0 -102 40t-43 99q0 57 43 97q44 41 102 41q60 0 103 -41q43 -40 43 -97q0 -59 -43 -99q-41 -40 -103 -40zM322 806q-45 2 -63.5 -40t14.5 -71q30 -31 75 -13t42 60q0 25 -20.5 44.5t-47.5 19.5zM43 268q0 109 73 192q74 84 193 84q45 0 93 -22
q51 -21 81 -66v78h118v-534h-118v81q-27 -45 -82 -68q-52 -21 -95 -21q-113 0 -188 82t-75 194zM324 437q-71 0 -116 -49q-44 -50 -44 -120t44 -120q45 -48 116 -48q72 0 115 48q45 50 45 120t-45 120q-45 49 -115 49z" />
    <glyph glyph-name="atilde.alt" horiz-adv-x="681" 
d="M252 693q-38 0 -39 -66h-81q-4 72 28 113.5t92 41.5q27 0 49.5 -11t35 -23.5t28 -23.5t30.5 -11q37 0 39 66h82q3 -72 -29 -113.5t-92 -41.5q-27 0 -49.5 11t-35 23.5t-28 23.5t-30.5 11zM43 268q0 109 73 192q74 84 193 84q45 0 93 -22q51 -21 81 -66v78h118v-534h-118
v81q-27 -45 -82 -68q-52 -21 -95 -21q-113 0 -188 82t-75 194zM324 437q-71 0 -116 -49q-44 -50 -44 -120t44 -120q45 -48 116 -48q72 0 115 48q45 50 45 120t-45 120q-45 49 -115 49z" />
    <glyph glyph-name="l.alt" horiz-adv-x="325" 
d="M75 814h119v-615q0 -96 82 -96q21 0 38 4v-101q-30 -11 -62 -11q-84 0 -130.5 51t-46.5 144v624z" />
    <glyph glyph-name="lslash.alt" horiz-adv-x="418" 
d="M378 409l-121 -70v-140q0 -96 83 -96q21 0 38 4v-101q-30 -11 -62 -11q-84 0 -130.5 51t-46.5 144v79l-102 -60v122l102 59v424h118v-355l121 70v-120z" />
    <glyph glyph-name="y.alt" horiz-adv-x="604" 
d="M147 534l163 -398l151 398h126l-251 -615q-38 -93 -92 -139.5t-132 -46.5q-41 0 -68 9v103q11 -4 43 -4q93 0 136 108l22 54l-226 531h128z" />
    <glyph glyph-name="aring.alt2" horiz-adv-x="575" 
d="M286 603q-59 0 -102 40t-43 99q0 57 43 97q44 41 102 41q60 0 103 -41q43 -40 43 -97q0 -59 -43 -99q-41 -40 -103 -40zM287 806q-45 2 -62.5 -40t13.5 -71q30 -31 75 -13t42 60q0 25 -20.5 44.5t-47.5 19.5zM385 362q0 34 -28 57t-77 23q-93 0 -133 -85l-91 52
q63 136 227 136q151 0 200 -109q18 -40 18 -96v-340h-117v73q-49 -82 -157 -82q-77 0 -129 44q-51 43 -51 113v6q0 44 21 77.5t55 51t71 26t75 8.5h66q50 0 50 45zM384 216v17h-115q-37 0 -71 -20q-32 -20 -32 -54q0 -33 23.5 -53t61.5 -20q61 0 97 35t36 95z" />
    <glyph glyph-name="i.loclTRK" horiz-adv-x="278" 
d="M84 652q-23 23 -23 55t23 55q23 24 55 24t55 -24q23 -23 23 -55t-23 -55t-55 -23t-55 23zM199 534v-534h-119v534h119z" />
    <glyph glyph-name="uni0414.alt" horiz-adv-x="870" 
d="M721 0h-573v-165h-122v276h64l274 672h143l270 -672h67v-276h-123v165zM645 111l-210 542l-216 -542h426z" />
    <glyph glyph-name="uni041B.alt" horiz-adv-x="741" 
d="M368 642l-235 -642h-131l297 783h141l298 -783h-137z" />
    <glyph glyph-name="uni0434.alt" horiz-adv-x="708" 
d="M83 107l209 427h122l210 -427h46v-272h-116v165h-401v-165h-116v272h46zM352 411l-145 -304h290z" />
    <glyph glyph-name="uni0438.alt" horiz-adv-x="633" 
d="M74 534h119v-299q0 -62 30 -97.5t88 -35.5q56 0 89.5 37t33.5 98v297h119v-534h-116v72q-62 -83 -163 -83q-95 0 -147.5 59.5t-52.5 157.5v328z" />
    <glyph glyph-name="uni0439.alt" horiz-adv-x="633" 
d="M314 622q-72 0 -122.5 42.5t-59.5 121.5l81 15q15 -47 37.5 -69t63.5 -22q40 0 63 22t39 69l79 -15q-11 -79 -60 -121.5t-121 -42.5zM74 534h119v-299q0 -62 30 -97.5t88 -35.5q56 0 89.5 37t33.5 98v297h119v-534h-116v72q-62 -83 -163 -83q-95 0 -147.5 59.5
t-52.5 157.5v328z" />
    <glyph glyph-name="uni043B.alt" horiz-adv-x="606" 
d="M587 0h-129l-157 395l-156 -395h-126l224 534h119z" />
    <glyph glyph-name="uni043F.alt" horiz-adv-x="633" 
d="M559 0h-119v299q0 62 -30 97.5t-88 35.5q-56 0 -89.5 -37t-33.5 -98v-297h-119v534h116v-72q62 83 163 83q96 0 148 -58.5t52 -157.5v-329z" />
    <glyph glyph-name="uni0446.alt" horiz-adv-x="667" 
d="M509 0h-72v72q-62 -83 -163 -83q-96 0 -148 59t-52 158v328h119v-299q0 -62 30 -97.5t88 -35.5q56 0 89.5 37t33.5 98v297h119v-427h69v-272h-113v165z" />
    <glyph glyph-name="uni0448.alt" horiz-adv-x="974" 
d="M425 534h118v-300q0 -63 28.5 -98t86.5 -35q54 0 85.5 37t31.5 98v298h120v-534h-117v72q-62 -84 -159 -84q-115 0 -165 87q-42 -46 -84.5 -66.5t-100.5 -20.5q-94 0 -144.5 58.5t-50.5 157.5v330h119v-302q0 -131 114 -131q54 0 86 36.5t32 97.5v299z" />
    <glyph glyph-name="uni0449.alt" horiz-adv-x="1008" 
d="M850 0h-72v72q-62 -84 -159 -84q-115 0 -165 87q-42 -46 -84.5 -66.5t-100.5 -20.5q-94 0 -144.5 58.5t-50.5 157.5v330h119v-302q0 -131 114 -131q54 0 86 36.5t32 97.5v299h118v-300q0 -63 28.5 -98t86.5 -35q54 0 85.5 37.5t31.5 98.5v297h120v-427h68v-272h-113v165z
" />
    <glyph glyph-name="zero.slash" horiz-adv-x="765" 
d="M712 394q0 -172 -93 -288q-91 -115 -238 -115q-145 0 -237 114q-91 115 -91 287q0 170 92 286q93 116 239 116t237 -115q91 -113 91 -285zM381 681q-89 0 -145 -83q-55 -82 -55 -204q0 -81 26 -148l280 396q-45 39 -106 39zM384 104q89 0 145 83q55 82 55 205
q0 84 -27 150l-281 -398q47 -40 108 -40z" />
    <glyph glyph-name="colon.case" horiz-adv-x="333" 
d="M79 579q0 37 26 62.5t62 25.5t61.5 -25.5t25.5 -62.5q0 -35 -25.5 -60.5t-61.5 -25.5t-62 25.5t-26 60.5zM79 207q0 37 26 62.5t62 25.5q37 0 62 -25.5t25 -62.5q0 -36 -25.5 -61.5t-61.5 -25.5t-62 26t-26 61z" />
    <glyph glyph-name="exclamdown.case" horiz-adv-x="312" 
d="M156 790q32 0 55 -22.5t23 -55.5t-23 -56t-55 -23q-33 0 -56 23t-23 56t23 55.5t56 22.5zM219 119l-10 434h-108l-10 -434v-119h128v119z" />
    <glyph glyph-name="uni2E18.case" horiz-adv-x="537" 
d="M296 791q32 0 55 -22.5t23 -55.5t-23 -56t-55 -23t-55.5 23t-23.5 56t23 55.5t56 22.5zM412 187l93 -57q-32 -65 -92 -102.5t-144 -37.5q-97 0 -164 59q-65 60 -65 152q0 57 40 112q29 39 87 91q43 37 59.5 63t16.5 63v36h108l8 -357h-120l3 115q-45 -39 -62.5 -68
t-17.5 -64q0 -42 29.5 -68.5t78.5 -26.5q92 0 142 90z" />
    <glyph glyph-name="questiondown.case" horiz-adv-x="535" 
d="M296 792q32 0 55 -22.5t23 -55.5t-23 -56t-55 -23t-55.5 23t-23.5 56t23 55.5t56 22.5zM269 -9q86 0 147 41t87 109l-103 57q-18 -46 -53 -70.5t-77 -24.5q-44 0 -72.5 26t-28.5 66q0 55 78 124l27 23q45 39 64.5 77.5t19.5 90.5v45h-115v-24q0 -37 -16.5 -63t-59.5 -63
q-67 -58 -97 -100t-30 -103q0 -92 65 -152q67 -59 164 -59z" />
    <glyph glyph-name="semicolon.case" horiz-adv-x="337" 
d="M81 578q0 37 25.5 62.5t61.5 25.5q37 0 62.5 -25.5t25.5 -62.5q0 -35 -25.5 -60.5t-62.5 -25.5q-36 0 -61.5 25.5t-25.5 60.5zM142 -38l-54 48q67 46 99 121q-13 -6 -30 -6q-31 0 -54 23.5t-23 58.5q0 37 25.5 62t64.5 25t66 -32t27 -82v-5q0 -59 -33 -116.5t-88 -96.5z
" />
    <glyph glyph-name="braceleft.case" horiz-adv-x="462" 
d="M142 118l16 110q8 65 -24.5 90t-95.5 24h-8v97h8q66 0 97.5 27t22.5 89l-16 110q-18 119 38.5 171t187.5 52h54v-95h-47q-64 0 -92.5 -20t-29 -57.5t7.5 -92.5l12 -80q4 -30 -2.5 -58t-35.5 -56t-80 -37v-1q52 -9 80 -37q50 -46 38 -113l-12 -81q-8 -55 -7.5 -92.5
t29 -57.5t92.5 -20h47v-95h-54q-128 0 -186 49q-59 50 -40 174z" />
    <glyph glyph-name="braceright.case" horiz-adv-x="462" 
d="M304 228l16 -110q18 -126 -41 -174q-58 -49 -185 -49h-54v95h48q63 0 91.5 20t29 57.5t-7.5 92.5l-13 81q-4 27 2 57q7 31 38 58t79 35v1q-39 7 -66 24.5t-37.5 39t-15 45t0.5 42.5l12 80q8 55 7.5 92.5t-29 57.5t-91.5 20h-48v95h54q130 0 186.5 -52t39.5 -171l-16 -110
q-9 -62 23 -89t98 -27h7v-97h-7q-67 0 -98.5 -26t-22.5 -88z" />
    <glyph glyph-name="bracketleft.case" horiz-adv-x="435" 
d="M211 793v-802h185v-96h-296v993h296v-95h-185z" />
    <glyph glyph-name="bracketright.case" horiz-adv-x="435" 
d="M39 793v95h296v-993h-296v96h184v802h-184z" />
    <glyph glyph-name="parenleft.case" horiz-adv-x="405" 
d="M381 -48l-51 -65q-134 76 -206.5 201.5t-72.5 287.5v27q0 163 73 291t206 204l51 -66q-103 -76 -159.5 -186t-56.5 -243v-27q0 -267 216 -424z" />
    <glyph glyph-name="parenright.case" horiz-adv-x="405" 
d="M75 -113l-51 65q217 157 217 424v27q0 133 -56.5 243t-160.5 186l51 66q134 -75 206.5 -203.5t72.5 -291.5v-27q0 -163 -72.5 -288t-206.5 -201z" />
    <glyph glyph-name="emdash.case" horiz-adv-x="1024" 
d="M76 337v115h872v-115h-872z" />
    <glyph glyph-name="endash.case" horiz-adv-x="611" 
d="M76 337v115h459v-115h-459z" />
    <glyph glyph-name="hyphen.case" horiz-adv-x="470" 
d="M72 336v121h325v-121h-325z" />
    <glyph glyph-name="guillemotleft.case" horiz-adv-x="655" 
d="M340 235l-69 -68l-224 221l224 221l69 -67l-156 -154zM591 235l-70 -68l-224 221l224 221l69 -67l-155 -154z" />
    <glyph glyph-name="guillemotright.case" horiz-adv-x="656" 
d="M134 609l224 -221l-223 -221l-70 68l156 153l-156 154zM385 609l224 -221l-224 -221l-70 68l157 153l-156 154z" />
    <glyph glyph-name="guilsinglleft.case" horiz-adv-x="405" 
d="M340 235l-69 -68l-224 221l224 221l69 -67l-156 -154z" />
    <glyph glyph-name="guilsinglright.case" horiz-adv-x="405" 
d="M134 609l224 -221l-224 -221l-69 68l156 153l-156 154z" />
    <glyph glyph-name="cent.alt" horiz-adv-x="601" 
d="M462 198l104 -46q-20 -58 -69.5 -101t-120.5 -55v-98h-118v100q-95 21 -155 95q-59 76 -59 175q0 96 60 172q59 75 154 98v99h118v-97q68 -12 117.5 -53.5t68.5 -101.5l-102 -46q-35 98 -137 98q-65 0 -112 -47q-45 -46 -45 -120q0 -75 45 -123t113 -48q100 0 138 99z
" />
    <glyph glyph-name="dollar.alt" horiz-adv-x="641" 
d="M593 217q0 -80 -55 -142q-57 -63 -151 -79v-108h-119v107q-82 13 -141.5 60.5t-87.5 123.5l104 54q25 -63 73.5 -96.5t112.5 -33.5q61 0 99 29.5t38 77.5q0 42 -36 70t-121 55q-128 41 -184 91q-60 52 -60 143q0 81 57 142t146 78v102h119v-102q141 -27 195 -161
l-102 -55q-45 110 -158 110q-57 0 -94 -30t-37 -77q0 -43 35 -70t110 -50q146 -44 201 -99q56 -54 56 -140z" />
    <glyph glyph-name="brevecyr" horiz-adv-x="663" 
d="M147 786l81 15q15 -47 38 -69t64 -22q40 0 63 22.5t38 68.5l79 -15q-11 -80 -59.5 -122t-120.5 -42q-73 0 -123.5 42.5t-59.5 121.5z" />
    <glyph glyph-name="zero.slash.osf" horiz-adv-x="725" 
d="M364 621q141 0 226 -90q86 -91 86 -225t-87 -225t-227 -91q-137 0 -225 88t-88 228q0 134 86 225q87 90 229 90zM362 509q-92 0 -140 -59q-48 -58 -48 -144q0 -72 33 -124l224 316q-33 11 -69 11zM362 102q91 0 139 59q49 58 49 145q0 71 -33 122l-224 -315
q33 -11 69 -11z" />
    <glyph glyph-name="zero.osf" horiz-adv-x="725" 
d="M362 -10q-137 0 -225 88t-88 228q0 134 86 225q87 90 229 90q141 0 226 -90q86 -91 86 -225t-87 -225t-227 -91zM362 508q-91 0 -139 -58q-47 -59 -47 -144q0 -86 48 -144t138 -58t138 58q49 58 49 144q0 85 -49 143q-48 59 -138 59z" />
    <glyph glyph-name="one.osf" horiz-adv-x="462" 
d="M7 467l239 144h117v-611h-123v479l-176 -106z" />
    <glyph glyph-name="two.osf" horiz-adv-x="646" 
d="M592 0h-528v98l242 132q79 43 114 81t35 82q0 52 -37 85.5t-96 33.5q-55 0 -99 -32t-65 -89l-108 42q27 85 102 138q76 52 169 52q116 0 189 -68q73 -67 73 -161q0 -75 -52.5 -133t-157.5 -112l-72 -37v-1h291v-111z" />
    <glyph glyph-name="three.osf" horiz-adv-x="648" 
d="M592 48q0 -96 -79 -162q-77 -67 -199 -67q-203 0 -274 176l106 52q51 -116 170 -116q62 0 106 36q43 34 43 83q0 50 -42 85q-41 36 -105 36h-84v111h77q61 0 99 34q40 34 40 83t-37 80t-102 31q-105 0 -153 -113l-107 49q28 80 96.5 128t165.5 48q121 0 191 -61
q71 -62 71 -149q0 -122 -118 -179v-1q135 -52 135 -184z" />
    <glyph glyph-name="four.osf" horiz-adv-x="712" 
d="M404 611h151v-500h116v-111h-116v-172h-121v172h-403v124zM434 472l-277 -361h277v361z" />
    <glyph glyph-name="five.osf" horiz-adv-x="639" 
d="M307 -181q-91 0 -161 43t-105 125l106 59q49 -114 162 -114q66 0 111 39q46 39 46 105q0 67 -43.5 106.5t-110.5 39.5q-88 0 -148 -67l-105 43l59 413h437v-111h-344l-31 -224q64 53 155 53q116 0 187 -71t71 -180q0 -118 -83 -189q-82 -70 -203 -70z" />
    <glyph glyph-name="six.osf" horiz-adv-x="685" 
d="M401 686q-103 0 -162 -80q-56 -79 -64 -197h1q32 46 87.5 72.5t115.5 26.5q112 0 186 -71t74 -183q0 -117 -84 -190q-83 -74 -201 -74q-128 0 -213 85q-88 88 -88 289q0 85 21 160.5t62 137t109.5 97t155.5 35.5q117 0 218 -84l-62 -90q-30 24 -46 33q-47 33 -110 33z
M352 401q-66 0 -115 -42t-49 -106q0 -69 47 -110t117 -41t115 41.5t45 106.5q0 68 -45 109q-45 42 -115 42z" />
    <glyph glyph-name="seven.osf" horiz-adv-x="615" 
d="M29 611h559v-101l-359 -682h-142l360 672h-418v111z" />
    <glyph glyph-name="eight.osf" horiz-adv-x="679" 
d="M339 -9q-122 0 -205 62q-82 61 -82 160q0 139 150 194v1q-60 17 -95 64t-35 110q0 95 80 154q79 58 187 58q109 0 188 -58q80 -57 80 -154q0 -63 -34 -108.5t-95 -65.5v-1q149 -54 149 -189q0 -102 -83 -165q-83 -62 -205 -62zM194 570q0 -50 42 -85q44 -33 103 -33
q63 0 104.5 33.5t41.5 84.5t-41.5 84.5t-104.5 33.5q-64 0 -104.5 -33t-40.5 -85zM175 223q0 -53 47 -89q48 -36 117 -36q68 0 117 35q49 36 49 90t-49 88q-48 36 -117 36q-71 0 -118 -35q-46 -34 -46 -89z" />
    <glyph glyph-name="nine.osf" horiz-adv-x="686" 
d="M284 -73q72 0 123 42q94 75 105 230h-2q-33 -47 -88 -73.5t-114 -26.5q-114 0 -188 71t-74 184q0 118 83 193q83 76 202 76q128 0 213 -85q88 -88 88 -289q0 -86 -20.5 -161.5t-61 -136.5t-109 -96.5t-157.5 -35.5q-124 0 -225 87l64 89q82 -68 161 -68zM333 206
q65 0 115 42q49 43 49 109q0 71 -45.5 112.5t-118.5 41.5q-71 0 -115.5 -41.5t-44.5 -109.5q0 -69 44 -111.5t116 -42.5z" />
    <glyph glyph-name="zero.slash.tosf" 
d="M342 621q134 0 218 -89q85 -88 85 -226t-86 -227t-220 -89q-133 0 -219 89q-84 89 -84 226q0 139 85 227q86 89 221 89zM340 510q-62 0 -105 -34q-75 -59 -75 -171q0 -63 29 -116l220 309q-30 12 -69 12zM341 101q87 0 134 62q46 61 46 141q0 64 -29 119l-220 -309
q30 -13 69 -13z" />
    <glyph glyph-name="zero.tosf" 
d="M339 -10q-133 0 -219 89q-84 89 -84 226q0 139 85 227q86 89 221 89q134 0 218 -89q85 -88 85 -226t-86 -227t-220 -89zM340 508q-89 0 -134 -62t-45 -141t46 -140q47 -62 134 -62q88 0 133 61q46 61 46 140q0 49 -17 94q-17 47 -60.5 78.5t-102.5 31.5z" />
    <glyph glyph-name="one.tosf" 
d="M72 111h224v371l-188 -91l-49 97l248 122h112v-499h195v-111h-542v111z" />
    <glyph glyph-name="two.tosf" 
d="M606 0h-528v98l242 132q79 43 114 81t35 82q0 52 -37 85.5t-96 33.5q-55 0 -99 -32t-65 -89l-108 42q27 85 102 138q76 52 169 52q116 0 189 -68q73 -67 73 -161q0 -75 -52.5 -133t-157.5 -112l-72 -37v-1h291v-111z" />
    <glyph glyph-name="three.tosf" 
d="M614 48q0 -96 -79 -162q-77 -67 -199 -67q-203 0 -274 176l106 52q51 -116 170 -116q62 0 106 36q43 34 43 83q0 50 -42 85q-41 36 -105 36h-84v111h77q61 0 99 34q40 34 40 83t-37 80t-102 31q-105 0 -153 -113l-107 49q28 80 96.5 128t165.5 48q121 0 191 -61
q71 -62 71 -149q0 -122 -118 -179v-1q135 -52 135 -184z" />
    <glyph glyph-name="four.tosf" 
d="M405 611h151v-500h90v-111h-90v-172h-121v172h-399v124zM435 472l-274 -361h274v361z" />
    <glyph glyph-name="five.tosf" 
d="M332 -181q-91 0 -161 43t-105 125l106 59q50 -114 162 -114q66 0 111 39q46 39 46 105q0 67 -43.5 106.5t-110.5 39.5q-88 0 -148 -67l-105 43l59 413h437v-111h-344l-31 -224q64 53 155 53q116 0 187 -71t71 -180q0 -118 -83 -189q-82 -70 -203 -70z" />
    <glyph glyph-name="six.tosf" 
d="M394 686q-103 0 -162 -80q-56 -79 -64 -197h1q32 46 87.5 72.5t115.5 26.5q112 0 186 -71t74 -183q0 -117 -84 -190q-83 -74 -201 -74q-128 0 -213 85q-88 88 -88 289q0 85 21 160.5t62 137t109.5 97t155.5 35.5q118 0 218 -84l-62 -90q-30 24 -46 33q-47 33 -110 33z
M345 401q-65 0 -115 -42q-49 -42 -49 -106q0 -69 47 -110t117 -41t115 41.5t45 106.5q0 68 -45 109q-45 42 -115 42z" />
    <glyph glyph-name="seven.tosf" 
d="M61 611h559v-101l-359 -682h-142l360 672h-418v111z" />
    <glyph glyph-name="eight.tosf" 
d="M340 -9q-122 0 -205 62q-82 61 -82 160q0 139 150 194v1q-60 17 -95 64t-35 110q0 95 80 154q79 58 187 58q109 0 188 -58q80 -57 80 -154q0 -63 -34 -108.5t-95 -65.5v-1q149 -54 149 -189q0 -102 -83 -165q-83 -62 -205 -62zM195 570q0 -50 42 -85q43 -33 103 -33
q63 0 104.5 33.5t41.5 84.5t-41.5 84.5t-104.5 33.5q-64 0 -104.5 -33t-40.5 -85zM176 223q0 -53 47 -89q48 -36 117 -36q68 0 117 35q49 36 49 90t-49 88q-48 36 -117 36q-71 0 -118 -35q-46 -34 -46 -89z" />
    <glyph glyph-name="nine.tosf" 
d="M284 -73q72 0 123 42q94 75 105 230h-2q-33 -47 -88 -73.5t-114 -26.5q-114 0 -188 71t-74 184q0 118 83 193q83 76 202 76q128 0 213 -85q88 -88 88 -289q0 -86 -20.5 -161.5t-61 -136.5t-109 -96.5t-157.5 -35.5q-124 0 -225 87l64 89q82 -68 161 -68zM333 206
q65 0 115 42q49 43 49 109q0 71 -45.5 112.5t-118.5 41.5q-71 0 -115.5 -41.5t-44.5 -109.5q0 -69 44 -111.5t116 -42.5z" />
    <glyph glyph-name="zero.slash.tf" 
d="M342 794q78 0 138 -31.5t95 -87t52.5 -125.5t17.5 -154t-17.5 -155t-52.5 -128t-95.5 -89.5t-140.5 -32.5q-65 0 -116.5 21t-86 57.5t-57.5 88t-33 109.5t-10 125q0 84 17 154.5t52 127t95.5 88.5t141.5 32zM341 684q-88 0 -131 -67q-18 -26 -31 -70q-19 -63 -19 -153
q0 -78 14 -139l275 387q-42 42 -108 42zM341 101q86 0 130 68q19 28 30 70q19 66 19 155q0 76 -14 137l-275 -387q43 -43 110 -43z" />
    <glyph glyph-name="zero.tf" 
d="M339 -9q-65 0 -116.5 21t-86 57.5t-57.5 88t-33 109.5t-10 125q0 84 17 154.5t52 127t95.5 88.5t141.5 32q78 0 138 -31.5t95 -87t52.5 -125.5t17.5 -154t-17.5 -155t-52.5 -128t-95.5 -89.5t-140.5 -32.5zM341 682q-110 0 -148 -101q-31 -82 -31 -187q0 -290 179 -290
q53 0 90.5 27t55.5 74q32 84 32 189q0 106 -32 187q-37 101 -146 101z" />
    <glyph glyph-name="one.tf" 
d="M72 111h223v543l-188 -92l-48 98l247 123h112v-672h196v-111h-542v111z" />
    <glyph glyph-name="two.tf" 
d="M66 0v107l280 239q79 67 110 109q30 42 30 94q0 58 -38 95t-102 37q-112 0 -159 -123l-110 46q24 86 96 138q73 52 174 52q116 0 191 -66q75 -64 75 -170q0 -85 -44 -149q-43 -61 -147 -147l-182 -151h377v-111h-551z" />
    <glyph glyph-name="three.tf" 
d="M614 220q0 -96 -79 -163q-78 -66 -199 -66q-203 0 -274 176l106 52q51 -116 170 -116q62 0 106 35q43 36 43 84q0 50 -42 85q-41 36 -105 36h-84v111h77q61 0 99 34q40 34 40 83t-37 80t-102 31q-105 0 -153 -113l-107 49q28 80 96.5 128t165.5 48q121 0 191 -61
q71 -62 71 -149q0 -122 -118 -179v-1q135 -52 135 -184z" />
    <glyph glyph-name="four.tf" 
d="M405 783h151v-499h90v-111h-90v-173h-121v173h-399v124zM435 644l-274 -360h274v360z" />
    </font>
</defs>
</svg>
